G04 #@! TF.GenerationSoftware,KiCad,Pcbnew,(5.0.1-3-g963ef8bb5)*
G04 #@! TF.CreationDate,2018-11-19T18:06:17+01:00*
G04 #@! TF.ProjectId,wmbus_pihat,776D6275735F70696861742E6B696361,0.1*
G04 #@! TF.SameCoordinates,Original*
G04 #@! TF.FileFunction,Copper,L1,Top,Signal*
G04 #@! TF.FilePolarity,Positive*
%FSLAX46Y46*%
G04 Gerber Fmt 4.6, Leading zero omitted, Abs format (unit mm)*
G04 Created by KiCad (PCBNEW (5.0.1-3-g963ef8bb5)) date Monday 19 November 2018 at 18:06:17*
%MOMM*%
%LPD*%
G01*
G04 APERTURE LIST*
G04 #@! TA.AperFunction,SMDPad,CuDef*
%ADD10R,2.000000X1.000000*%
G04 #@! TD*
G04 #@! TA.AperFunction,Conductor*
%ADD11C,0.100000*%
G04 #@! TD*
G04 #@! TA.AperFunction,SMDPad,CuDef*
%ADD12C,0.875000*%
G04 #@! TD*
G04 #@! TA.AperFunction,SMDPad,CuDef*
%ADD13C,1.325000*%
G04 #@! TD*
G04 #@! TA.AperFunction,SMDPad,CuDef*
%ADD14R,2.200000X1.050000*%
G04 #@! TD*
G04 #@! TA.AperFunction,SMDPad,CuDef*
%ADD15R,1.050000X1.000000*%
G04 #@! TD*
G04 #@! TA.AperFunction,SMDPad,CuDef*
%ADD16R,1.550000X1.300000*%
G04 #@! TD*
G04 #@! TA.AperFunction,ComponentPad*
%ADD17R,3.500120X3.500120*%
G04 #@! TD*
G04 #@! TA.AperFunction,ComponentPad*
%ADD18C,3.500120*%
G04 #@! TD*
G04 #@! TA.AperFunction,ComponentPad*
%ADD19R,1.700000X1.700000*%
G04 #@! TD*
G04 #@! TA.AperFunction,ComponentPad*
%ADD20O,1.700000X1.700000*%
G04 #@! TD*
G04 #@! TA.AperFunction,Conductor*
%ADD21C,1.900000*%
G04 #@! TD*
G04 #@! TA.AperFunction,Conductor*
%ADD22C,0.250000*%
G04 #@! TD*
G04 #@! TA.AperFunction,Conductor*
%ADD23C,0.750000*%
G04 #@! TD*
G04 #@! TA.AperFunction,Conductor*
%ADD24C,1.000000*%
G04 #@! TD*
G04 #@! TA.AperFunction,Conductor*
%ADD25C,0.500000*%
G04 #@! TD*
G04 #@! TA.AperFunction,Conductor*
%ADD26C,0.254000*%
G04 #@! TD*
G04 APERTURE END LIST*
D10*
G04 #@! TO.P,U1,1*
G04 #@! TO.N,Net-(C3-Pad1)*
X45350000Y-22700000D03*
G04 #@! TO.P,U1,2*
G04 #@! TO.N,GND*
X45350000Y-24700000D03*
G04 #@! TO.P,U1,3*
G04 #@! TO.N,+3V3*
X45350000Y-26700000D03*
G04 #@! TO.P,U1,4*
G04 #@! TO.N,Net-(J3-Pad10)*
X45350000Y-28700000D03*
G04 #@! TO.P,U1,5*
G04 #@! TO.N,Net-(J3-Pad8)*
X45350000Y-30700000D03*
G04 #@! TO.P,U1,6*
G04 #@! TO.N,Net-(J3-Pad11)*
X45350000Y-32700000D03*
G04 #@! TO.P,U1,7*
G04 #@! TO.N,Net-(J3-Pad36)*
X45350000Y-35700000D03*
G04 #@! TO.P,U1,8*
G04 #@! TO.N,Net-(U1-Pad8)*
X45350000Y-37700000D03*
G04 #@! TO.P,U1,9*
G04 #@! TO.N,Net-(U1-Pad9)*
X45350000Y-39700000D03*
G04 #@! TO.P,U1,10*
G04 #@! TO.N,Net-(U1-Pad10)*
X45350000Y-41700000D03*
G04 #@! TO.P,U1,11*
G04 #@! TO.N,Net-(U1-Pad11)*
X45350000Y-43700000D03*
G04 #@! TO.P,U1,12*
G04 #@! TO.N,Net-(U1-Pad12)*
X45350000Y-45700000D03*
G04 #@! TO.P,U1,13*
G04 #@! TO.N,Net-(U1-Pad13)*
X61850000Y-45700000D03*
G04 #@! TO.P,U1,14*
G04 #@! TO.N,Net-(U1-Pad14)*
X61850000Y-43700000D03*
G04 #@! TO.P,U1,15*
G04 #@! TO.N,Net-(U1-Pad15)*
X61850000Y-41700000D03*
G04 #@! TO.P,U1,16*
G04 #@! TO.N,Net-(U1-Pad16)*
X61850000Y-39700000D03*
G04 #@! TO.P,U1,17*
G04 #@! TO.N,Net-(U1-Pad17)*
X61850000Y-37700000D03*
G04 #@! TO.P,U1,18*
G04 #@! TO.N,Net-(U1-Pad18)*
X61850000Y-35700000D03*
G04 #@! TO.P,U1,19*
G04 #@! TO.N,Net-(C4-Pad1)*
X61850000Y-32700000D03*
G04 #@! TO.P,U1,20*
G04 #@! TO.N,Net-(D3-Pad2)*
X61850000Y-30700000D03*
G04 #@! TO.P,U1,21*
G04 #@! TO.N,Net-(D2-Pad2)*
X61850000Y-28700000D03*
G04 #@! TO.P,U1,22*
G04 #@! TO.N,Net-(U1-Pad22)*
X61850000Y-26700000D03*
G04 #@! TO.P,U1,23*
G04 #@! TO.N,GND*
X61850000Y-24700000D03*
G04 #@! TD*
D11*
G04 #@! TO.N,Net-(C1-Pad2)*
G04 #@! TO.C,C1*
G36*
X33040191Y-22126053D02*
X33061426Y-22129203D01*
X33082250Y-22134419D01*
X33102462Y-22141651D01*
X33121868Y-22150830D01*
X33140281Y-22161866D01*
X33157524Y-22174654D01*
X33173430Y-22189070D01*
X33187846Y-22204976D01*
X33200634Y-22222219D01*
X33211670Y-22240632D01*
X33220849Y-22260038D01*
X33228081Y-22280250D01*
X33233297Y-22301074D01*
X33236447Y-22322309D01*
X33237500Y-22343750D01*
X33237500Y-22856250D01*
X33236447Y-22877691D01*
X33233297Y-22898926D01*
X33228081Y-22919750D01*
X33220849Y-22939962D01*
X33211670Y-22959368D01*
X33200634Y-22977781D01*
X33187846Y-22995024D01*
X33173430Y-23010930D01*
X33157524Y-23025346D01*
X33140281Y-23038134D01*
X33121868Y-23049170D01*
X33102462Y-23058349D01*
X33082250Y-23065581D01*
X33061426Y-23070797D01*
X33040191Y-23073947D01*
X33018750Y-23075000D01*
X32581250Y-23075000D01*
X32559809Y-23073947D01*
X32538574Y-23070797D01*
X32517750Y-23065581D01*
X32497538Y-23058349D01*
X32478132Y-23049170D01*
X32459719Y-23038134D01*
X32442476Y-23025346D01*
X32426570Y-23010930D01*
X32412154Y-22995024D01*
X32399366Y-22977781D01*
X32388330Y-22959368D01*
X32379151Y-22939962D01*
X32371919Y-22919750D01*
X32366703Y-22898926D01*
X32363553Y-22877691D01*
X32362500Y-22856250D01*
X32362500Y-22343750D01*
X32363553Y-22322309D01*
X32366703Y-22301074D01*
X32371919Y-22280250D01*
X32379151Y-22260038D01*
X32388330Y-22240632D01*
X32399366Y-22222219D01*
X32412154Y-22204976D01*
X32426570Y-22189070D01*
X32442476Y-22174654D01*
X32459719Y-22161866D01*
X32478132Y-22150830D01*
X32497538Y-22141651D01*
X32517750Y-22134419D01*
X32538574Y-22129203D01*
X32559809Y-22126053D01*
X32581250Y-22125000D01*
X33018750Y-22125000D01*
X33040191Y-22126053D01*
X33040191Y-22126053D01*
G37*
D12*
G04 #@! TD*
G04 #@! TO.P,C1,2*
G04 #@! TO.N,Net-(C1-Pad2)*
X32800000Y-22600000D03*
D11*
G04 #@! TO.N,Net-(C1-Pad1)*
G04 #@! TO.C,C1*
G36*
X34615191Y-22126053D02*
X34636426Y-22129203D01*
X34657250Y-22134419D01*
X34677462Y-22141651D01*
X34696868Y-22150830D01*
X34715281Y-22161866D01*
X34732524Y-22174654D01*
X34748430Y-22189070D01*
X34762846Y-22204976D01*
X34775634Y-22222219D01*
X34786670Y-22240632D01*
X34795849Y-22260038D01*
X34803081Y-22280250D01*
X34808297Y-22301074D01*
X34811447Y-22322309D01*
X34812500Y-22343750D01*
X34812500Y-22856250D01*
X34811447Y-22877691D01*
X34808297Y-22898926D01*
X34803081Y-22919750D01*
X34795849Y-22939962D01*
X34786670Y-22959368D01*
X34775634Y-22977781D01*
X34762846Y-22995024D01*
X34748430Y-23010930D01*
X34732524Y-23025346D01*
X34715281Y-23038134D01*
X34696868Y-23049170D01*
X34677462Y-23058349D01*
X34657250Y-23065581D01*
X34636426Y-23070797D01*
X34615191Y-23073947D01*
X34593750Y-23075000D01*
X34156250Y-23075000D01*
X34134809Y-23073947D01*
X34113574Y-23070797D01*
X34092750Y-23065581D01*
X34072538Y-23058349D01*
X34053132Y-23049170D01*
X34034719Y-23038134D01*
X34017476Y-23025346D01*
X34001570Y-23010930D01*
X33987154Y-22995024D01*
X33974366Y-22977781D01*
X33963330Y-22959368D01*
X33954151Y-22939962D01*
X33946919Y-22919750D01*
X33941703Y-22898926D01*
X33938553Y-22877691D01*
X33937500Y-22856250D01*
X33937500Y-22343750D01*
X33938553Y-22322309D01*
X33941703Y-22301074D01*
X33946919Y-22280250D01*
X33954151Y-22260038D01*
X33963330Y-22240632D01*
X33974366Y-22222219D01*
X33987154Y-22204976D01*
X34001570Y-22189070D01*
X34017476Y-22174654D01*
X34034719Y-22161866D01*
X34053132Y-22150830D01*
X34072538Y-22141651D01*
X34092750Y-22134419D01*
X34113574Y-22129203D01*
X34134809Y-22126053D01*
X34156250Y-22125000D01*
X34593750Y-22125000D01*
X34615191Y-22126053D01*
X34615191Y-22126053D01*
G37*
D12*
G04 #@! TD*
G04 #@! TO.P,C1,1*
G04 #@! TO.N,Net-(C1-Pad1)*
X34375000Y-22600000D03*
D11*
G04 #@! TO.N,+3V3*
G04 #@! TO.C,C2*
G36*
X41549505Y-28001204D02*
X41573773Y-28004804D01*
X41597572Y-28010765D01*
X41620671Y-28019030D01*
X41642850Y-28029520D01*
X41663893Y-28042132D01*
X41683599Y-28056747D01*
X41701777Y-28073223D01*
X41718253Y-28091401D01*
X41732868Y-28111107D01*
X41745480Y-28132150D01*
X41755970Y-28154329D01*
X41764235Y-28177428D01*
X41770196Y-28201227D01*
X41773796Y-28225495D01*
X41775000Y-28249999D01*
X41775000Y-29075001D01*
X41773796Y-29099505D01*
X41770196Y-29123773D01*
X41764235Y-29147572D01*
X41755970Y-29170671D01*
X41745480Y-29192850D01*
X41732868Y-29213893D01*
X41718253Y-29233599D01*
X41701777Y-29251777D01*
X41683599Y-29268253D01*
X41663893Y-29282868D01*
X41642850Y-29295480D01*
X41620671Y-29305970D01*
X41597572Y-29314235D01*
X41573773Y-29320196D01*
X41549505Y-29323796D01*
X41525001Y-29325000D01*
X39674999Y-29325000D01*
X39650495Y-29323796D01*
X39626227Y-29320196D01*
X39602428Y-29314235D01*
X39579329Y-29305970D01*
X39557150Y-29295480D01*
X39536107Y-29282868D01*
X39516401Y-29268253D01*
X39498223Y-29251777D01*
X39481747Y-29233599D01*
X39467132Y-29213893D01*
X39454520Y-29192850D01*
X39444030Y-29170671D01*
X39435765Y-29147572D01*
X39429804Y-29123773D01*
X39426204Y-29099505D01*
X39425000Y-29075001D01*
X39425000Y-28249999D01*
X39426204Y-28225495D01*
X39429804Y-28201227D01*
X39435765Y-28177428D01*
X39444030Y-28154329D01*
X39454520Y-28132150D01*
X39467132Y-28111107D01*
X39481747Y-28091401D01*
X39498223Y-28073223D01*
X39516401Y-28056747D01*
X39536107Y-28042132D01*
X39557150Y-28029520D01*
X39579329Y-28019030D01*
X39602428Y-28010765D01*
X39626227Y-28004804D01*
X39650495Y-28001204D01*
X39674999Y-28000000D01*
X41525001Y-28000000D01*
X41549505Y-28001204D01*
X41549505Y-28001204D01*
G37*
D13*
G04 #@! TD*
G04 #@! TO.P,C2,1*
G04 #@! TO.N,+3V3*
X40600000Y-28662500D03*
D11*
G04 #@! TO.N,GND*
G04 #@! TO.C,C2*
G36*
X41549505Y-31076204D02*
X41573773Y-31079804D01*
X41597572Y-31085765D01*
X41620671Y-31094030D01*
X41642850Y-31104520D01*
X41663893Y-31117132D01*
X41683599Y-31131747D01*
X41701777Y-31148223D01*
X41718253Y-31166401D01*
X41732868Y-31186107D01*
X41745480Y-31207150D01*
X41755970Y-31229329D01*
X41764235Y-31252428D01*
X41770196Y-31276227D01*
X41773796Y-31300495D01*
X41775000Y-31324999D01*
X41775000Y-32150001D01*
X41773796Y-32174505D01*
X41770196Y-32198773D01*
X41764235Y-32222572D01*
X41755970Y-32245671D01*
X41745480Y-32267850D01*
X41732868Y-32288893D01*
X41718253Y-32308599D01*
X41701777Y-32326777D01*
X41683599Y-32343253D01*
X41663893Y-32357868D01*
X41642850Y-32370480D01*
X41620671Y-32380970D01*
X41597572Y-32389235D01*
X41573773Y-32395196D01*
X41549505Y-32398796D01*
X41525001Y-32400000D01*
X39674999Y-32400000D01*
X39650495Y-32398796D01*
X39626227Y-32395196D01*
X39602428Y-32389235D01*
X39579329Y-32380970D01*
X39557150Y-32370480D01*
X39536107Y-32357868D01*
X39516401Y-32343253D01*
X39498223Y-32326777D01*
X39481747Y-32308599D01*
X39467132Y-32288893D01*
X39454520Y-32267850D01*
X39444030Y-32245671D01*
X39435765Y-32222572D01*
X39429804Y-32198773D01*
X39426204Y-32174505D01*
X39425000Y-32150001D01*
X39425000Y-31324999D01*
X39426204Y-31300495D01*
X39429804Y-31276227D01*
X39435765Y-31252428D01*
X39444030Y-31229329D01*
X39454520Y-31207150D01*
X39467132Y-31186107D01*
X39481747Y-31166401D01*
X39498223Y-31148223D01*
X39516401Y-31131747D01*
X39536107Y-31117132D01*
X39557150Y-31104520D01*
X39579329Y-31094030D01*
X39602428Y-31085765D01*
X39626227Y-31079804D01*
X39650495Y-31076204D01*
X39674999Y-31075000D01*
X41525001Y-31075000D01*
X41549505Y-31076204D01*
X41549505Y-31076204D01*
G37*
D13*
G04 #@! TD*
G04 #@! TO.P,C2,2*
G04 #@! TO.N,GND*
X40600000Y-31737500D03*
D11*
G04 #@! TO.N,Net-(C3-Pad1)*
G04 #@! TO.C,C3*
G36*
X41527691Y-22188553D02*
X41548926Y-22191703D01*
X41569750Y-22196919D01*
X41589962Y-22204151D01*
X41609368Y-22213330D01*
X41627781Y-22224366D01*
X41645024Y-22237154D01*
X41660930Y-22251570D01*
X41675346Y-22267476D01*
X41688134Y-22284719D01*
X41699170Y-22303132D01*
X41708349Y-22322538D01*
X41715581Y-22342750D01*
X41720797Y-22363574D01*
X41723947Y-22384809D01*
X41725000Y-22406250D01*
X41725000Y-22843750D01*
X41723947Y-22865191D01*
X41720797Y-22886426D01*
X41715581Y-22907250D01*
X41708349Y-22927462D01*
X41699170Y-22946868D01*
X41688134Y-22965281D01*
X41675346Y-22982524D01*
X41660930Y-22998430D01*
X41645024Y-23012846D01*
X41627781Y-23025634D01*
X41609368Y-23036670D01*
X41589962Y-23045849D01*
X41569750Y-23053081D01*
X41548926Y-23058297D01*
X41527691Y-23061447D01*
X41506250Y-23062500D01*
X40993750Y-23062500D01*
X40972309Y-23061447D01*
X40951074Y-23058297D01*
X40930250Y-23053081D01*
X40910038Y-23045849D01*
X40890632Y-23036670D01*
X40872219Y-23025634D01*
X40854976Y-23012846D01*
X40839070Y-22998430D01*
X40824654Y-22982524D01*
X40811866Y-22965281D01*
X40800830Y-22946868D01*
X40791651Y-22927462D01*
X40784419Y-22907250D01*
X40779203Y-22886426D01*
X40776053Y-22865191D01*
X40775000Y-22843750D01*
X40775000Y-22406250D01*
X40776053Y-22384809D01*
X40779203Y-22363574D01*
X40784419Y-22342750D01*
X40791651Y-22322538D01*
X40800830Y-22303132D01*
X40811866Y-22284719D01*
X40824654Y-22267476D01*
X40839070Y-22251570D01*
X40854976Y-22237154D01*
X40872219Y-22224366D01*
X40890632Y-22213330D01*
X40910038Y-22204151D01*
X40930250Y-22196919D01*
X40951074Y-22191703D01*
X40972309Y-22188553D01*
X40993750Y-22187500D01*
X41506250Y-22187500D01*
X41527691Y-22188553D01*
X41527691Y-22188553D01*
G37*
D12*
G04 #@! TD*
G04 #@! TO.P,C3,1*
G04 #@! TO.N,Net-(C3-Pad1)*
X41250000Y-22625000D03*
D11*
G04 #@! TO.N,GND*
G04 #@! TO.C,C3*
G36*
X41527691Y-23763553D02*
X41548926Y-23766703D01*
X41569750Y-23771919D01*
X41589962Y-23779151D01*
X41609368Y-23788330D01*
X41627781Y-23799366D01*
X41645024Y-23812154D01*
X41660930Y-23826570D01*
X41675346Y-23842476D01*
X41688134Y-23859719D01*
X41699170Y-23878132D01*
X41708349Y-23897538D01*
X41715581Y-23917750D01*
X41720797Y-23938574D01*
X41723947Y-23959809D01*
X41725000Y-23981250D01*
X41725000Y-24418750D01*
X41723947Y-24440191D01*
X41720797Y-24461426D01*
X41715581Y-24482250D01*
X41708349Y-24502462D01*
X41699170Y-24521868D01*
X41688134Y-24540281D01*
X41675346Y-24557524D01*
X41660930Y-24573430D01*
X41645024Y-24587846D01*
X41627781Y-24600634D01*
X41609368Y-24611670D01*
X41589962Y-24620849D01*
X41569750Y-24628081D01*
X41548926Y-24633297D01*
X41527691Y-24636447D01*
X41506250Y-24637500D01*
X40993750Y-24637500D01*
X40972309Y-24636447D01*
X40951074Y-24633297D01*
X40930250Y-24628081D01*
X40910038Y-24620849D01*
X40890632Y-24611670D01*
X40872219Y-24600634D01*
X40854976Y-24587846D01*
X40839070Y-24573430D01*
X40824654Y-24557524D01*
X40811866Y-24540281D01*
X40800830Y-24521868D01*
X40791651Y-24502462D01*
X40784419Y-24482250D01*
X40779203Y-24461426D01*
X40776053Y-24440191D01*
X40775000Y-24418750D01*
X40775000Y-23981250D01*
X40776053Y-23959809D01*
X40779203Y-23938574D01*
X40784419Y-23917750D01*
X40791651Y-23897538D01*
X40800830Y-23878132D01*
X40811866Y-23859719D01*
X40824654Y-23842476D01*
X40839070Y-23826570D01*
X40854976Y-23812154D01*
X40872219Y-23799366D01*
X40890632Y-23788330D01*
X40910038Y-23779151D01*
X40930250Y-23771919D01*
X40951074Y-23766703D01*
X40972309Y-23763553D01*
X40993750Y-23762500D01*
X41506250Y-23762500D01*
X41527691Y-23763553D01*
X41527691Y-23763553D01*
G37*
D12*
G04 #@! TD*
G04 #@! TO.P,C3,2*
G04 #@! TO.N,GND*
X41250000Y-24200000D03*
D11*
G04 #@! TO.N,GND*
G04 #@! TO.C,C4*
G36*
X68815191Y-34526053D02*
X68836426Y-34529203D01*
X68857250Y-34534419D01*
X68877462Y-34541651D01*
X68896868Y-34550830D01*
X68915281Y-34561866D01*
X68932524Y-34574654D01*
X68948430Y-34589070D01*
X68962846Y-34604976D01*
X68975634Y-34622219D01*
X68986670Y-34640632D01*
X68995849Y-34660038D01*
X69003081Y-34680250D01*
X69008297Y-34701074D01*
X69011447Y-34722309D01*
X69012500Y-34743750D01*
X69012500Y-35256250D01*
X69011447Y-35277691D01*
X69008297Y-35298926D01*
X69003081Y-35319750D01*
X68995849Y-35339962D01*
X68986670Y-35359368D01*
X68975634Y-35377781D01*
X68962846Y-35395024D01*
X68948430Y-35410930D01*
X68932524Y-35425346D01*
X68915281Y-35438134D01*
X68896868Y-35449170D01*
X68877462Y-35458349D01*
X68857250Y-35465581D01*
X68836426Y-35470797D01*
X68815191Y-35473947D01*
X68793750Y-35475000D01*
X68356250Y-35475000D01*
X68334809Y-35473947D01*
X68313574Y-35470797D01*
X68292750Y-35465581D01*
X68272538Y-35458349D01*
X68253132Y-35449170D01*
X68234719Y-35438134D01*
X68217476Y-35425346D01*
X68201570Y-35410930D01*
X68187154Y-35395024D01*
X68174366Y-35377781D01*
X68163330Y-35359368D01*
X68154151Y-35339962D01*
X68146919Y-35319750D01*
X68141703Y-35298926D01*
X68138553Y-35277691D01*
X68137500Y-35256250D01*
X68137500Y-34743750D01*
X68138553Y-34722309D01*
X68141703Y-34701074D01*
X68146919Y-34680250D01*
X68154151Y-34660038D01*
X68163330Y-34640632D01*
X68174366Y-34622219D01*
X68187154Y-34604976D01*
X68201570Y-34589070D01*
X68217476Y-34574654D01*
X68234719Y-34561866D01*
X68253132Y-34550830D01*
X68272538Y-34541651D01*
X68292750Y-34534419D01*
X68313574Y-34529203D01*
X68334809Y-34526053D01*
X68356250Y-34525000D01*
X68793750Y-34525000D01*
X68815191Y-34526053D01*
X68815191Y-34526053D01*
G37*
D12*
G04 #@! TD*
G04 #@! TO.P,C4,2*
G04 #@! TO.N,GND*
X68575000Y-35000000D03*
D11*
G04 #@! TO.N,Net-(C4-Pad1)*
G04 #@! TO.C,C4*
G36*
X67240191Y-34526053D02*
X67261426Y-34529203D01*
X67282250Y-34534419D01*
X67302462Y-34541651D01*
X67321868Y-34550830D01*
X67340281Y-34561866D01*
X67357524Y-34574654D01*
X67373430Y-34589070D01*
X67387846Y-34604976D01*
X67400634Y-34622219D01*
X67411670Y-34640632D01*
X67420849Y-34660038D01*
X67428081Y-34680250D01*
X67433297Y-34701074D01*
X67436447Y-34722309D01*
X67437500Y-34743750D01*
X67437500Y-35256250D01*
X67436447Y-35277691D01*
X67433297Y-35298926D01*
X67428081Y-35319750D01*
X67420849Y-35339962D01*
X67411670Y-35359368D01*
X67400634Y-35377781D01*
X67387846Y-35395024D01*
X67373430Y-35410930D01*
X67357524Y-35425346D01*
X67340281Y-35438134D01*
X67321868Y-35449170D01*
X67302462Y-35458349D01*
X67282250Y-35465581D01*
X67261426Y-35470797D01*
X67240191Y-35473947D01*
X67218750Y-35475000D01*
X66781250Y-35475000D01*
X66759809Y-35473947D01*
X66738574Y-35470797D01*
X66717750Y-35465581D01*
X66697538Y-35458349D01*
X66678132Y-35449170D01*
X66659719Y-35438134D01*
X66642476Y-35425346D01*
X66626570Y-35410930D01*
X66612154Y-35395024D01*
X66599366Y-35377781D01*
X66588330Y-35359368D01*
X66579151Y-35339962D01*
X66571919Y-35319750D01*
X66566703Y-35298926D01*
X66563553Y-35277691D01*
X66562500Y-35256250D01*
X66562500Y-34743750D01*
X66563553Y-34722309D01*
X66566703Y-34701074D01*
X66571919Y-34680250D01*
X66579151Y-34660038D01*
X66588330Y-34640632D01*
X66599366Y-34622219D01*
X66612154Y-34604976D01*
X66626570Y-34589070D01*
X66642476Y-34574654D01*
X66659719Y-34561866D01*
X66678132Y-34550830D01*
X66697538Y-34541651D01*
X66717750Y-34534419D01*
X66738574Y-34529203D01*
X66759809Y-34526053D01*
X66781250Y-34525000D01*
X67218750Y-34525000D01*
X67240191Y-34526053D01*
X67240191Y-34526053D01*
G37*
D12*
G04 #@! TD*
G04 #@! TO.P,C4,1*
G04 #@! TO.N,Net-(C4-Pad1)*
X67000000Y-35000000D03*
D11*
G04 #@! TO.N,Net-(D1-Pad1)*
G04 #@! TO.C,D1*
G36*
X35877691Y-29738553D02*
X35898926Y-29741703D01*
X35919750Y-29746919D01*
X35939962Y-29754151D01*
X35959368Y-29763330D01*
X35977781Y-29774366D01*
X35995024Y-29787154D01*
X36010930Y-29801570D01*
X36025346Y-29817476D01*
X36038134Y-29834719D01*
X36049170Y-29853132D01*
X36058349Y-29872538D01*
X36065581Y-29892750D01*
X36070797Y-29913574D01*
X36073947Y-29934809D01*
X36075000Y-29956250D01*
X36075000Y-30393750D01*
X36073947Y-30415191D01*
X36070797Y-30436426D01*
X36065581Y-30457250D01*
X36058349Y-30477462D01*
X36049170Y-30496868D01*
X36038134Y-30515281D01*
X36025346Y-30532524D01*
X36010930Y-30548430D01*
X35995024Y-30562846D01*
X35977781Y-30575634D01*
X35959368Y-30586670D01*
X35939962Y-30595849D01*
X35919750Y-30603081D01*
X35898926Y-30608297D01*
X35877691Y-30611447D01*
X35856250Y-30612500D01*
X35343750Y-30612500D01*
X35322309Y-30611447D01*
X35301074Y-30608297D01*
X35280250Y-30603081D01*
X35260038Y-30595849D01*
X35240632Y-30586670D01*
X35222219Y-30575634D01*
X35204976Y-30562846D01*
X35189070Y-30548430D01*
X35174654Y-30532524D01*
X35161866Y-30515281D01*
X35150830Y-30496868D01*
X35141651Y-30477462D01*
X35134419Y-30457250D01*
X35129203Y-30436426D01*
X35126053Y-30415191D01*
X35125000Y-30393750D01*
X35125000Y-29956250D01*
X35126053Y-29934809D01*
X35129203Y-29913574D01*
X35134419Y-29892750D01*
X35141651Y-29872538D01*
X35150830Y-29853132D01*
X35161866Y-29834719D01*
X35174654Y-29817476D01*
X35189070Y-29801570D01*
X35204976Y-29787154D01*
X35222219Y-29774366D01*
X35240632Y-29763330D01*
X35260038Y-29754151D01*
X35280250Y-29746919D01*
X35301074Y-29741703D01*
X35322309Y-29738553D01*
X35343750Y-29737500D01*
X35856250Y-29737500D01*
X35877691Y-29738553D01*
X35877691Y-29738553D01*
G37*
D12*
G04 #@! TD*
G04 #@! TO.P,D1,1*
G04 #@! TO.N,Net-(D1-Pad1)*
X35600000Y-30175000D03*
D11*
G04 #@! TO.N,+3V3*
G04 #@! TO.C,D1*
G36*
X35877691Y-28163553D02*
X35898926Y-28166703D01*
X35919750Y-28171919D01*
X35939962Y-28179151D01*
X35959368Y-28188330D01*
X35977781Y-28199366D01*
X35995024Y-28212154D01*
X36010930Y-28226570D01*
X36025346Y-28242476D01*
X36038134Y-28259719D01*
X36049170Y-28278132D01*
X36058349Y-28297538D01*
X36065581Y-28317750D01*
X36070797Y-28338574D01*
X36073947Y-28359809D01*
X36075000Y-28381250D01*
X36075000Y-28818750D01*
X36073947Y-28840191D01*
X36070797Y-28861426D01*
X36065581Y-28882250D01*
X36058349Y-28902462D01*
X36049170Y-28921868D01*
X36038134Y-28940281D01*
X36025346Y-28957524D01*
X36010930Y-28973430D01*
X35995024Y-28987846D01*
X35977781Y-29000634D01*
X35959368Y-29011670D01*
X35939962Y-29020849D01*
X35919750Y-29028081D01*
X35898926Y-29033297D01*
X35877691Y-29036447D01*
X35856250Y-29037500D01*
X35343750Y-29037500D01*
X35322309Y-29036447D01*
X35301074Y-29033297D01*
X35280250Y-29028081D01*
X35260038Y-29020849D01*
X35240632Y-29011670D01*
X35222219Y-29000634D01*
X35204976Y-28987846D01*
X35189070Y-28973430D01*
X35174654Y-28957524D01*
X35161866Y-28940281D01*
X35150830Y-28921868D01*
X35141651Y-28902462D01*
X35134419Y-28882250D01*
X35129203Y-28861426D01*
X35126053Y-28840191D01*
X35125000Y-28818750D01*
X35125000Y-28381250D01*
X35126053Y-28359809D01*
X35129203Y-28338574D01*
X35134419Y-28317750D01*
X35141651Y-28297538D01*
X35150830Y-28278132D01*
X35161866Y-28259719D01*
X35174654Y-28242476D01*
X35189070Y-28226570D01*
X35204976Y-28212154D01*
X35222219Y-28199366D01*
X35240632Y-28188330D01*
X35260038Y-28179151D01*
X35280250Y-28171919D01*
X35301074Y-28166703D01*
X35322309Y-28163553D01*
X35343750Y-28162500D01*
X35856250Y-28162500D01*
X35877691Y-28163553D01*
X35877691Y-28163553D01*
G37*
D12*
G04 #@! TD*
G04 #@! TO.P,D1,2*
G04 #@! TO.N,+3V3*
X35600000Y-28600000D03*
D11*
G04 #@! TO.N,Net-(D2-Pad1)*
G04 #@! TO.C,D2*
G36*
X68827691Y-26126053D02*
X68848926Y-26129203D01*
X68869750Y-26134419D01*
X68889962Y-26141651D01*
X68909368Y-26150830D01*
X68927781Y-26161866D01*
X68945024Y-26174654D01*
X68960930Y-26189070D01*
X68975346Y-26204976D01*
X68988134Y-26222219D01*
X68999170Y-26240632D01*
X69008349Y-26260038D01*
X69015581Y-26280250D01*
X69020797Y-26301074D01*
X69023947Y-26322309D01*
X69025000Y-26343750D01*
X69025000Y-26856250D01*
X69023947Y-26877691D01*
X69020797Y-26898926D01*
X69015581Y-26919750D01*
X69008349Y-26939962D01*
X68999170Y-26959368D01*
X68988134Y-26977781D01*
X68975346Y-26995024D01*
X68960930Y-27010930D01*
X68945024Y-27025346D01*
X68927781Y-27038134D01*
X68909368Y-27049170D01*
X68889962Y-27058349D01*
X68869750Y-27065581D01*
X68848926Y-27070797D01*
X68827691Y-27073947D01*
X68806250Y-27075000D01*
X68368750Y-27075000D01*
X68347309Y-27073947D01*
X68326074Y-27070797D01*
X68305250Y-27065581D01*
X68285038Y-27058349D01*
X68265632Y-27049170D01*
X68247219Y-27038134D01*
X68229976Y-27025346D01*
X68214070Y-27010930D01*
X68199654Y-26995024D01*
X68186866Y-26977781D01*
X68175830Y-26959368D01*
X68166651Y-26939962D01*
X68159419Y-26919750D01*
X68154203Y-26898926D01*
X68151053Y-26877691D01*
X68150000Y-26856250D01*
X68150000Y-26343750D01*
X68151053Y-26322309D01*
X68154203Y-26301074D01*
X68159419Y-26280250D01*
X68166651Y-26260038D01*
X68175830Y-26240632D01*
X68186866Y-26222219D01*
X68199654Y-26204976D01*
X68214070Y-26189070D01*
X68229976Y-26174654D01*
X68247219Y-26161866D01*
X68265632Y-26150830D01*
X68285038Y-26141651D01*
X68305250Y-26134419D01*
X68326074Y-26129203D01*
X68347309Y-26126053D01*
X68368750Y-26125000D01*
X68806250Y-26125000D01*
X68827691Y-26126053D01*
X68827691Y-26126053D01*
G37*
D12*
G04 #@! TD*
G04 #@! TO.P,D2,1*
G04 #@! TO.N,Net-(D2-Pad1)*
X68587500Y-26600000D03*
D11*
G04 #@! TO.N,Net-(D2-Pad2)*
G04 #@! TO.C,D2*
G36*
X67252691Y-26126053D02*
X67273926Y-26129203D01*
X67294750Y-26134419D01*
X67314962Y-26141651D01*
X67334368Y-26150830D01*
X67352781Y-26161866D01*
X67370024Y-26174654D01*
X67385930Y-26189070D01*
X67400346Y-26204976D01*
X67413134Y-26222219D01*
X67424170Y-26240632D01*
X67433349Y-26260038D01*
X67440581Y-26280250D01*
X67445797Y-26301074D01*
X67448947Y-26322309D01*
X67450000Y-26343750D01*
X67450000Y-26856250D01*
X67448947Y-26877691D01*
X67445797Y-26898926D01*
X67440581Y-26919750D01*
X67433349Y-26939962D01*
X67424170Y-26959368D01*
X67413134Y-26977781D01*
X67400346Y-26995024D01*
X67385930Y-27010930D01*
X67370024Y-27025346D01*
X67352781Y-27038134D01*
X67334368Y-27049170D01*
X67314962Y-27058349D01*
X67294750Y-27065581D01*
X67273926Y-27070797D01*
X67252691Y-27073947D01*
X67231250Y-27075000D01*
X66793750Y-27075000D01*
X66772309Y-27073947D01*
X66751074Y-27070797D01*
X66730250Y-27065581D01*
X66710038Y-27058349D01*
X66690632Y-27049170D01*
X66672219Y-27038134D01*
X66654976Y-27025346D01*
X66639070Y-27010930D01*
X66624654Y-26995024D01*
X66611866Y-26977781D01*
X66600830Y-26959368D01*
X66591651Y-26939962D01*
X66584419Y-26919750D01*
X66579203Y-26898926D01*
X66576053Y-26877691D01*
X66575000Y-26856250D01*
X66575000Y-26343750D01*
X66576053Y-26322309D01*
X66579203Y-26301074D01*
X66584419Y-26280250D01*
X66591651Y-26260038D01*
X66600830Y-26240632D01*
X66611866Y-26222219D01*
X66624654Y-26204976D01*
X66639070Y-26189070D01*
X66654976Y-26174654D01*
X66672219Y-26161866D01*
X66690632Y-26150830D01*
X66710038Y-26141651D01*
X66730250Y-26134419D01*
X66751074Y-26129203D01*
X66772309Y-26126053D01*
X66793750Y-26125000D01*
X67231250Y-26125000D01*
X67252691Y-26126053D01*
X67252691Y-26126053D01*
G37*
D12*
G04 #@! TD*
G04 #@! TO.P,D2,2*
G04 #@! TO.N,Net-(D2-Pad2)*
X67012500Y-26600000D03*
D11*
G04 #@! TO.N,Net-(D3-Pad2)*
G04 #@! TO.C,D3*
G36*
X67252691Y-30326053D02*
X67273926Y-30329203D01*
X67294750Y-30334419D01*
X67314962Y-30341651D01*
X67334368Y-30350830D01*
X67352781Y-30361866D01*
X67370024Y-30374654D01*
X67385930Y-30389070D01*
X67400346Y-30404976D01*
X67413134Y-30422219D01*
X67424170Y-30440632D01*
X67433349Y-30460038D01*
X67440581Y-30480250D01*
X67445797Y-30501074D01*
X67448947Y-30522309D01*
X67450000Y-30543750D01*
X67450000Y-31056250D01*
X67448947Y-31077691D01*
X67445797Y-31098926D01*
X67440581Y-31119750D01*
X67433349Y-31139962D01*
X67424170Y-31159368D01*
X67413134Y-31177781D01*
X67400346Y-31195024D01*
X67385930Y-31210930D01*
X67370024Y-31225346D01*
X67352781Y-31238134D01*
X67334368Y-31249170D01*
X67314962Y-31258349D01*
X67294750Y-31265581D01*
X67273926Y-31270797D01*
X67252691Y-31273947D01*
X67231250Y-31275000D01*
X66793750Y-31275000D01*
X66772309Y-31273947D01*
X66751074Y-31270797D01*
X66730250Y-31265581D01*
X66710038Y-31258349D01*
X66690632Y-31249170D01*
X66672219Y-31238134D01*
X66654976Y-31225346D01*
X66639070Y-31210930D01*
X66624654Y-31195024D01*
X66611866Y-31177781D01*
X66600830Y-31159368D01*
X66591651Y-31139962D01*
X66584419Y-31119750D01*
X66579203Y-31098926D01*
X66576053Y-31077691D01*
X66575000Y-31056250D01*
X66575000Y-30543750D01*
X66576053Y-30522309D01*
X66579203Y-30501074D01*
X66584419Y-30480250D01*
X66591651Y-30460038D01*
X66600830Y-30440632D01*
X66611866Y-30422219D01*
X66624654Y-30404976D01*
X66639070Y-30389070D01*
X66654976Y-30374654D01*
X66672219Y-30361866D01*
X66690632Y-30350830D01*
X66710038Y-30341651D01*
X66730250Y-30334419D01*
X66751074Y-30329203D01*
X66772309Y-30326053D01*
X66793750Y-30325000D01*
X67231250Y-30325000D01*
X67252691Y-30326053D01*
X67252691Y-30326053D01*
G37*
D12*
G04 #@! TD*
G04 #@! TO.P,D3,2*
G04 #@! TO.N,Net-(D3-Pad2)*
X67012500Y-30800000D03*
D11*
G04 #@! TO.N,Net-(D3-Pad1)*
G04 #@! TO.C,D3*
G36*
X68827691Y-30326053D02*
X68848926Y-30329203D01*
X68869750Y-30334419D01*
X68889962Y-30341651D01*
X68909368Y-30350830D01*
X68927781Y-30361866D01*
X68945024Y-30374654D01*
X68960930Y-30389070D01*
X68975346Y-30404976D01*
X68988134Y-30422219D01*
X68999170Y-30440632D01*
X69008349Y-30460038D01*
X69015581Y-30480250D01*
X69020797Y-30501074D01*
X69023947Y-30522309D01*
X69025000Y-30543750D01*
X69025000Y-31056250D01*
X69023947Y-31077691D01*
X69020797Y-31098926D01*
X69015581Y-31119750D01*
X69008349Y-31139962D01*
X68999170Y-31159368D01*
X68988134Y-31177781D01*
X68975346Y-31195024D01*
X68960930Y-31210930D01*
X68945024Y-31225346D01*
X68927781Y-31238134D01*
X68909368Y-31249170D01*
X68889962Y-31258349D01*
X68869750Y-31265581D01*
X68848926Y-31270797D01*
X68827691Y-31273947D01*
X68806250Y-31275000D01*
X68368750Y-31275000D01*
X68347309Y-31273947D01*
X68326074Y-31270797D01*
X68305250Y-31265581D01*
X68285038Y-31258349D01*
X68265632Y-31249170D01*
X68247219Y-31238134D01*
X68229976Y-31225346D01*
X68214070Y-31210930D01*
X68199654Y-31195024D01*
X68186866Y-31177781D01*
X68175830Y-31159368D01*
X68166651Y-31139962D01*
X68159419Y-31119750D01*
X68154203Y-31098926D01*
X68151053Y-31077691D01*
X68150000Y-31056250D01*
X68150000Y-30543750D01*
X68151053Y-30522309D01*
X68154203Y-30501074D01*
X68159419Y-30480250D01*
X68166651Y-30460038D01*
X68175830Y-30440632D01*
X68186866Y-30422219D01*
X68199654Y-30404976D01*
X68214070Y-30389070D01*
X68229976Y-30374654D01*
X68247219Y-30361866D01*
X68265632Y-30350830D01*
X68285038Y-30341651D01*
X68305250Y-30334419D01*
X68326074Y-30329203D01*
X68347309Y-30326053D01*
X68368750Y-30325000D01*
X68806250Y-30325000D01*
X68827691Y-30326053D01*
X68827691Y-30326053D01*
G37*
D12*
G04 #@! TD*
G04 #@! TO.P,D3,1*
G04 #@! TO.N,Net-(D3-Pad1)*
X68587500Y-30800000D03*
D14*
G04 #@! TO.P,J1,2*
G04 #@! TO.N,GND*
X24525000Y-21125000D03*
D15*
G04 #@! TO.P,J1,1*
G04 #@! TO.N,Net-(C1-Pad2)*
X26050000Y-22600000D03*
D14*
G04 #@! TO.P,J1,2*
G04 #@! TO.N,GND*
X24525000Y-24075000D03*
G04 #@! TD*
D11*
G04 #@! TO.N,Net-(C3-Pad1)*
G04 #@! TO.C,L1*
G36*
X38827691Y-22126053D02*
X38848926Y-22129203D01*
X38869750Y-22134419D01*
X38889962Y-22141651D01*
X38909368Y-22150830D01*
X38927781Y-22161866D01*
X38945024Y-22174654D01*
X38960930Y-22189070D01*
X38975346Y-22204976D01*
X38988134Y-22222219D01*
X38999170Y-22240632D01*
X39008349Y-22260038D01*
X39015581Y-22280250D01*
X39020797Y-22301074D01*
X39023947Y-22322309D01*
X39025000Y-22343750D01*
X39025000Y-22856250D01*
X39023947Y-22877691D01*
X39020797Y-22898926D01*
X39015581Y-22919750D01*
X39008349Y-22939962D01*
X38999170Y-22959368D01*
X38988134Y-22977781D01*
X38975346Y-22995024D01*
X38960930Y-23010930D01*
X38945024Y-23025346D01*
X38927781Y-23038134D01*
X38909368Y-23049170D01*
X38889962Y-23058349D01*
X38869750Y-23065581D01*
X38848926Y-23070797D01*
X38827691Y-23073947D01*
X38806250Y-23075000D01*
X38368750Y-23075000D01*
X38347309Y-23073947D01*
X38326074Y-23070797D01*
X38305250Y-23065581D01*
X38285038Y-23058349D01*
X38265632Y-23049170D01*
X38247219Y-23038134D01*
X38229976Y-23025346D01*
X38214070Y-23010930D01*
X38199654Y-22995024D01*
X38186866Y-22977781D01*
X38175830Y-22959368D01*
X38166651Y-22939962D01*
X38159419Y-22919750D01*
X38154203Y-22898926D01*
X38151053Y-22877691D01*
X38150000Y-22856250D01*
X38150000Y-22343750D01*
X38151053Y-22322309D01*
X38154203Y-22301074D01*
X38159419Y-22280250D01*
X38166651Y-22260038D01*
X38175830Y-22240632D01*
X38186866Y-22222219D01*
X38199654Y-22204976D01*
X38214070Y-22189070D01*
X38229976Y-22174654D01*
X38247219Y-22161866D01*
X38265632Y-22150830D01*
X38285038Y-22141651D01*
X38305250Y-22134419D01*
X38326074Y-22129203D01*
X38347309Y-22126053D01*
X38368750Y-22125000D01*
X38806250Y-22125000D01*
X38827691Y-22126053D01*
X38827691Y-22126053D01*
G37*
D12*
G04 #@! TD*
G04 #@! TO.P,L1,1*
G04 #@! TO.N,Net-(C3-Pad1)*
X38587500Y-22600000D03*
D11*
G04 #@! TO.N,Net-(C1-Pad1)*
G04 #@! TO.C,L1*
G36*
X37252691Y-22126053D02*
X37273926Y-22129203D01*
X37294750Y-22134419D01*
X37314962Y-22141651D01*
X37334368Y-22150830D01*
X37352781Y-22161866D01*
X37370024Y-22174654D01*
X37385930Y-22189070D01*
X37400346Y-22204976D01*
X37413134Y-22222219D01*
X37424170Y-22240632D01*
X37433349Y-22260038D01*
X37440581Y-22280250D01*
X37445797Y-22301074D01*
X37448947Y-22322309D01*
X37450000Y-22343750D01*
X37450000Y-22856250D01*
X37448947Y-22877691D01*
X37445797Y-22898926D01*
X37440581Y-22919750D01*
X37433349Y-22939962D01*
X37424170Y-22959368D01*
X37413134Y-22977781D01*
X37400346Y-22995024D01*
X37385930Y-23010930D01*
X37370024Y-23025346D01*
X37352781Y-23038134D01*
X37334368Y-23049170D01*
X37314962Y-23058349D01*
X37294750Y-23065581D01*
X37273926Y-23070797D01*
X37252691Y-23073947D01*
X37231250Y-23075000D01*
X36793750Y-23075000D01*
X36772309Y-23073947D01*
X36751074Y-23070797D01*
X36730250Y-23065581D01*
X36710038Y-23058349D01*
X36690632Y-23049170D01*
X36672219Y-23038134D01*
X36654976Y-23025346D01*
X36639070Y-23010930D01*
X36624654Y-22995024D01*
X36611866Y-22977781D01*
X36600830Y-22959368D01*
X36591651Y-22939962D01*
X36584419Y-22919750D01*
X36579203Y-22898926D01*
X36576053Y-22877691D01*
X36575000Y-22856250D01*
X36575000Y-22343750D01*
X36576053Y-22322309D01*
X36579203Y-22301074D01*
X36584419Y-22280250D01*
X36591651Y-22260038D01*
X36600830Y-22240632D01*
X36611866Y-22222219D01*
X36624654Y-22204976D01*
X36639070Y-22189070D01*
X36654976Y-22174654D01*
X36672219Y-22161866D01*
X36690632Y-22150830D01*
X36710038Y-22141651D01*
X36730250Y-22134419D01*
X36751074Y-22129203D01*
X36772309Y-22126053D01*
X36793750Y-22125000D01*
X37231250Y-22125000D01*
X37252691Y-22126053D01*
X37252691Y-22126053D01*
G37*
D12*
G04 #@! TD*
G04 #@! TO.P,L1,2*
G04 #@! TO.N,Net-(C1-Pad1)*
X37012500Y-22600000D03*
D11*
G04 #@! TO.N,Net-(D1-Pad1)*
G04 #@! TO.C,R1*
G36*
X35890191Y-34176053D02*
X35911426Y-34179203D01*
X35932250Y-34184419D01*
X35952462Y-34191651D01*
X35971868Y-34200830D01*
X35990281Y-34211866D01*
X36007524Y-34224654D01*
X36023430Y-34239070D01*
X36037846Y-34254976D01*
X36050634Y-34272219D01*
X36061670Y-34290632D01*
X36070849Y-34310038D01*
X36078081Y-34330250D01*
X36083297Y-34351074D01*
X36086447Y-34372309D01*
X36087500Y-34393750D01*
X36087500Y-34831250D01*
X36086447Y-34852691D01*
X36083297Y-34873926D01*
X36078081Y-34894750D01*
X36070849Y-34914962D01*
X36061670Y-34934368D01*
X36050634Y-34952781D01*
X36037846Y-34970024D01*
X36023430Y-34985930D01*
X36007524Y-35000346D01*
X35990281Y-35013134D01*
X35971868Y-35024170D01*
X35952462Y-35033349D01*
X35932250Y-35040581D01*
X35911426Y-35045797D01*
X35890191Y-35048947D01*
X35868750Y-35050000D01*
X35356250Y-35050000D01*
X35334809Y-35048947D01*
X35313574Y-35045797D01*
X35292750Y-35040581D01*
X35272538Y-35033349D01*
X35253132Y-35024170D01*
X35234719Y-35013134D01*
X35217476Y-35000346D01*
X35201570Y-34985930D01*
X35187154Y-34970024D01*
X35174366Y-34952781D01*
X35163330Y-34934368D01*
X35154151Y-34914962D01*
X35146919Y-34894750D01*
X35141703Y-34873926D01*
X35138553Y-34852691D01*
X35137500Y-34831250D01*
X35137500Y-34393750D01*
X35138553Y-34372309D01*
X35141703Y-34351074D01*
X35146919Y-34330250D01*
X35154151Y-34310038D01*
X35163330Y-34290632D01*
X35174366Y-34272219D01*
X35187154Y-34254976D01*
X35201570Y-34239070D01*
X35217476Y-34224654D01*
X35234719Y-34211866D01*
X35253132Y-34200830D01*
X35272538Y-34191651D01*
X35292750Y-34184419D01*
X35313574Y-34179203D01*
X35334809Y-34176053D01*
X35356250Y-34175000D01*
X35868750Y-34175000D01*
X35890191Y-34176053D01*
X35890191Y-34176053D01*
G37*
D12*
G04 #@! TD*
G04 #@! TO.P,R1,1*
G04 #@! TO.N,Net-(D1-Pad1)*
X35612500Y-34612500D03*
D11*
G04 #@! TO.N,GND*
G04 #@! TO.C,R1*
G36*
X35890191Y-35751053D02*
X35911426Y-35754203D01*
X35932250Y-35759419D01*
X35952462Y-35766651D01*
X35971868Y-35775830D01*
X35990281Y-35786866D01*
X36007524Y-35799654D01*
X36023430Y-35814070D01*
X36037846Y-35829976D01*
X36050634Y-35847219D01*
X36061670Y-35865632D01*
X36070849Y-35885038D01*
X36078081Y-35905250D01*
X36083297Y-35926074D01*
X36086447Y-35947309D01*
X36087500Y-35968750D01*
X36087500Y-36406250D01*
X36086447Y-36427691D01*
X36083297Y-36448926D01*
X36078081Y-36469750D01*
X36070849Y-36489962D01*
X36061670Y-36509368D01*
X36050634Y-36527781D01*
X36037846Y-36545024D01*
X36023430Y-36560930D01*
X36007524Y-36575346D01*
X35990281Y-36588134D01*
X35971868Y-36599170D01*
X35952462Y-36608349D01*
X35932250Y-36615581D01*
X35911426Y-36620797D01*
X35890191Y-36623947D01*
X35868750Y-36625000D01*
X35356250Y-36625000D01*
X35334809Y-36623947D01*
X35313574Y-36620797D01*
X35292750Y-36615581D01*
X35272538Y-36608349D01*
X35253132Y-36599170D01*
X35234719Y-36588134D01*
X35217476Y-36575346D01*
X35201570Y-36560930D01*
X35187154Y-36545024D01*
X35174366Y-36527781D01*
X35163330Y-36509368D01*
X35154151Y-36489962D01*
X35146919Y-36469750D01*
X35141703Y-36448926D01*
X35138553Y-36427691D01*
X35137500Y-36406250D01*
X35137500Y-35968750D01*
X35138553Y-35947309D01*
X35141703Y-35926074D01*
X35146919Y-35905250D01*
X35154151Y-35885038D01*
X35163330Y-35865632D01*
X35174366Y-35847219D01*
X35187154Y-35829976D01*
X35201570Y-35814070D01*
X35217476Y-35799654D01*
X35234719Y-35786866D01*
X35253132Y-35775830D01*
X35272538Y-35766651D01*
X35292750Y-35759419D01*
X35313574Y-35754203D01*
X35334809Y-35751053D01*
X35356250Y-35750000D01*
X35868750Y-35750000D01*
X35890191Y-35751053D01*
X35890191Y-35751053D01*
G37*
D12*
G04 #@! TD*
G04 #@! TO.P,R1,2*
G04 #@! TO.N,GND*
X35612500Y-36187500D03*
D11*
G04 #@! TO.N,Net-(D2-Pad1)*
G04 #@! TO.C,R2*
G36*
X73052691Y-26126053D02*
X73073926Y-26129203D01*
X73094750Y-26134419D01*
X73114962Y-26141651D01*
X73134368Y-26150830D01*
X73152781Y-26161866D01*
X73170024Y-26174654D01*
X73185930Y-26189070D01*
X73200346Y-26204976D01*
X73213134Y-26222219D01*
X73224170Y-26240632D01*
X73233349Y-26260038D01*
X73240581Y-26280250D01*
X73245797Y-26301074D01*
X73248947Y-26322309D01*
X73250000Y-26343750D01*
X73250000Y-26856250D01*
X73248947Y-26877691D01*
X73245797Y-26898926D01*
X73240581Y-26919750D01*
X73233349Y-26939962D01*
X73224170Y-26959368D01*
X73213134Y-26977781D01*
X73200346Y-26995024D01*
X73185930Y-27010930D01*
X73170024Y-27025346D01*
X73152781Y-27038134D01*
X73134368Y-27049170D01*
X73114962Y-27058349D01*
X73094750Y-27065581D01*
X73073926Y-27070797D01*
X73052691Y-27073947D01*
X73031250Y-27075000D01*
X72593750Y-27075000D01*
X72572309Y-27073947D01*
X72551074Y-27070797D01*
X72530250Y-27065581D01*
X72510038Y-27058349D01*
X72490632Y-27049170D01*
X72472219Y-27038134D01*
X72454976Y-27025346D01*
X72439070Y-27010930D01*
X72424654Y-26995024D01*
X72411866Y-26977781D01*
X72400830Y-26959368D01*
X72391651Y-26939962D01*
X72384419Y-26919750D01*
X72379203Y-26898926D01*
X72376053Y-26877691D01*
X72375000Y-26856250D01*
X72375000Y-26343750D01*
X72376053Y-26322309D01*
X72379203Y-26301074D01*
X72384419Y-26280250D01*
X72391651Y-26260038D01*
X72400830Y-26240632D01*
X72411866Y-26222219D01*
X72424654Y-26204976D01*
X72439070Y-26189070D01*
X72454976Y-26174654D01*
X72472219Y-26161866D01*
X72490632Y-26150830D01*
X72510038Y-26141651D01*
X72530250Y-26134419D01*
X72551074Y-26129203D01*
X72572309Y-26126053D01*
X72593750Y-26125000D01*
X73031250Y-26125000D01*
X73052691Y-26126053D01*
X73052691Y-26126053D01*
G37*
D12*
G04 #@! TD*
G04 #@! TO.P,R2,1*
G04 #@! TO.N,Net-(D2-Pad1)*
X72812500Y-26600000D03*
D11*
G04 #@! TO.N,GND*
G04 #@! TO.C,R2*
G36*
X74627691Y-26126053D02*
X74648926Y-26129203D01*
X74669750Y-26134419D01*
X74689962Y-26141651D01*
X74709368Y-26150830D01*
X74727781Y-26161866D01*
X74745024Y-26174654D01*
X74760930Y-26189070D01*
X74775346Y-26204976D01*
X74788134Y-26222219D01*
X74799170Y-26240632D01*
X74808349Y-26260038D01*
X74815581Y-26280250D01*
X74820797Y-26301074D01*
X74823947Y-26322309D01*
X74825000Y-26343750D01*
X74825000Y-26856250D01*
X74823947Y-26877691D01*
X74820797Y-26898926D01*
X74815581Y-26919750D01*
X74808349Y-26939962D01*
X74799170Y-26959368D01*
X74788134Y-26977781D01*
X74775346Y-26995024D01*
X74760930Y-27010930D01*
X74745024Y-27025346D01*
X74727781Y-27038134D01*
X74709368Y-27049170D01*
X74689962Y-27058349D01*
X74669750Y-27065581D01*
X74648926Y-27070797D01*
X74627691Y-27073947D01*
X74606250Y-27075000D01*
X74168750Y-27075000D01*
X74147309Y-27073947D01*
X74126074Y-27070797D01*
X74105250Y-27065581D01*
X74085038Y-27058349D01*
X74065632Y-27049170D01*
X74047219Y-27038134D01*
X74029976Y-27025346D01*
X74014070Y-27010930D01*
X73999654Y-26995024D01*
X73986866Y-26977781D01*
X73975830Y-26959368D01*
X73966651Y-26939962D01*
X73959419Y-26919750D01*
X73954203Y-26898926D01*
X73951053Y-26877691D01*
X73950000Y-26856250D01*
X73950000Y-26343750D01*
X73951053Y-26322309D01*
X73954203Y-26301074D01*
X73959419Y-26280250D01*
X73966651Y-26260038D01*
X73975830Y-26240632D01*
X73986866Y-26222219D01*
X73999654Y-26204976D01*
X74014070Y-26189070D01*
X74029976Y-26174654D01*
X74047219Y-26161866D01*
X74065632Y-26150830D01*
X74085038Y-26141651D01*
X74105250Y-26134419D01*
X74126074Y-26129203D01*
X74147309Y-26126053D01*
X74168750Y-26125000D01*
X74606250Y-26125000D01*
X74627691Y-26126053D01*
X74627691Y-26126053D01*
G37*
D12*
G04 #@! TD*
G04 #@! TO.P,R2,2*
G04 #@! TO.N,GND*
X74387500Y-26600000D03*
D11*
G04 #@! TO.N,GND*
G04 #@! TO.C,R3*
G36*
X74627691Y-30326053D02*
X74648926Y-30329203D01*
X74669750Y-30334419D01*
X74689962Y-30341651D01*
X74709368Y-30350830D01*
X74727781Y-30361866D01*
X74745024Y-30374654D01*
X74760930Y-30389070D01*
X74775346Y-30404976D01*
X74788134Y-30422219D01*
X74799170Y-30440632D01*
X74808349Y-30460038D01*
X74815581Y-30480250D01*
X74820797Y-30501074D01*
X74823947Y-30522309D01*
X74825000Y-30543750D01*
X74825000Y-31056250D01*
X74823947Y-31077691D01*
X74820797Y-31098926D01*
X74815581Y-31119750D01*
X74808349Y-31139962D01*
X74799170Y-31159368D01*
X74788134Y-31177781D01*
X74775346Y-31195024D01*
X74760930Y-31210930D01*
X74745024Y-31225346D01*
X74727781Y-31238134D01*
X74709368Y-31249170D01*
X74689962Y-31258349D01*
X74669750Y-31265581D01*
X74648926Y-31270797D01*
X74627691Y-31273947D01*
X74606250Y-31275000D01*
X74168750Y-31275000D01*
X74147309Y-31273947D01*
X74126074Y-31270797D01*
X74105250Y-31265581D01*
X74085038Y-31258349D01*
X74065632Y-31249170D01*
X74047219Y-31238134D01*
X74029976Y-31225346D01*
X74014070Y-31210930D01*
X73999654Y-31195024D01*
X73986866Y-31177781D01*
X73975830Y-31159368D01*
X73966651Y-31139962D01*
X73959419Y-31119750D01*
X73954203Y-31098926D01*
X73951053Y-31077691D01*
X73950000Y-31056250D01*
X73950000Y-30543750D01*
X73951053Y-30522309D01*
X73954203Y-30501074D01*
X73959419Y-30480250D01*
X73966651Y-30460038D01*
X73975830Y-30440632D01*
X73986866Y-30422219D01*
X73999654Y-30404976D01*
X74014070Y-30389070D01*
X74029976Y-30374654D01*
X74047219Y-30361866D01*
X74065632Y-30350830D01*
X74085038Y-30341651D01*
X74105250Y-30334419D01*
X74126074Y-30329203D01*
X74147309Y-30326053D01*
X74168750Y-30325000D01*
X74606250Y-30325000D01*
X74627691Y-30326053D01*
X74627691Y-30326053D01*
G37*
D12*
G04 #@! TD*
G04 #@! TO.P,R3,2*
G04 #@! TO.N,GND*
X74387500Y-30800000D03*
D11*
G04 #@! TO.N,Net-(D3-Pad1)*
G04 #@! TO.C,R3*
G36*
X73052691Y-30326053D02*
X73073926Y-30329203D01*
X73094750Y-30334419D01*
X73114962Y-30341651D01*
X73134368Y-30350830D01*
X73152781Y-30361866D01*
X73170024Y-30374654D01*
X73185930Y-30389070D01*
X73200346Y-30404976D01*
X73213134Y-30422219D01*
X73224170Y-30440632D01*
X73233349Y-30460038D01*
X73240581Y-30480250D01*
X73245797Y-30501074D01*
X73248947Y-30522309D01*
X73250000Y-30543750D01*
X73250000Y-31056250D01*
X73248947Y-31077691D01*
X73245797Y-31098926D01*
X73240581Y-31119750D01*
X73233349Y-31139962D01*
X73224170Y-31159368D01*
X73213134Y-31177781D01*
X73200346Y-31195024D01*
X73185930Y-31210930D01*
X73170024Y-31225346D01*
X73152781Y-31238134D01*
X73134368Y-31249170D01*
X73114962Y-31258349D01*
X73094750Y-31265581D01*
X73073926Y-31270797D01*
X73052691Y-31273947D01*
X73031250Y-31275000D01*
X72593750Y-31275000D01*
X72572309Y-31273947D01*
X72551074Y-31270797D01*
X72530250Y-31265581D01*
X72510038Y-31258349D01*
X72490632Y-31249170D01*
X72472219Y-31238134D01*
X72454976Y-31225346D01*
X72439070Y-31210930D01*
X72424654Y-31195024D01*
X72411866Y-31177781D01*
X72400830Y-31159368D01*
X72391651Y-31139962D01*
X72384419Y-31119750D01*
X72379203Y-31098926D01*
X72376053Y-31077691D01*
X72375000Y-31056250D01*
X72375000Y-30543750D01*
X72376053Y-30522309D01*
X72379203Y-30501074D01*
X72384419Y-30480250D01*
X72391651Y-30460038D01*
X72400830Y-30440632D01*
X72411866Y-30422219D01*
X72424654Y-30404976D01*
X72439070Y-30389070D01*
X72454976Y-30374654D01*
X72472219Y-30361866D01*
X72490632Y-30350830D01*
X72510038Y-30341651D01*
X72530250Y-30334419D01*
X72551074Y-30329203D01*
X72572309Y-30326053D01*
X72593750Y-30325000D01*
X73031250Y-30325000D01*
X73052691Y-30326053D01*
X73052691Y-30326053D01*
G37*
D12*
G04 #@! TD*
G04 #@! TO.P,R3,1*
G04 #@! TO.N,Net-(D3-Pad1)*
X72812500Y-30800000D03*
D11*
G04 #@! TO.N,Net-(C4-Pad1)*
G04 #@! TO.C,R4*
G36*
X75077691Y-47388553D02*
X75098926Y-47391703D01*
X75119750Y-47396919D01*
X75139962Y-47404151D01*
X75159368Y-47413330D01*
X75177781Y-47424366D01*
X75195024Y-47437154D01*
X75210930Y-47451570D01*
X75225346Y-47467476D01*
X75238134Y-47484719D01*
X75249170Y-47503132D01*
X75258349Y-47522538D01*
X75265581Y-47542750D01*
X75270797Y-47563574D01*
X75273947Y-47584809D01*
X75275000Y-47606250D01*
X75275000Y-48043750D01*
X75273947Y-48065191D01*
X75270797Y-48086426D01*
X75265581Y-48107250D01*
X75258349Y-48127462D01*
X75249170Y-48146868D01*
X75238134Y-48165281D01*
X75225346Y-48182524D01*
X75210930Y-48198430D01*
X75195024Y-48212846D01*
X75177781Y-48225634D01*
X75159368Y-48236670D01*
X75139962Y-48245849D01*
X75119750Y-48253081D01*
X75098926Y-48258297D01*
X75077691Y-48261447D01*
X75056250Y-48262500D01*
X74543750Y-48262500D01*
X74522309Y-48261447D01*
X74501074Y-48258297D01*
X74480250Y-48253081D01*
X74460038Y-48245849D01*
X74440632Y-48236670D01*
X74422219Y-48225634D01*
X74404976Y-48212846D01*
X74389070Y-48198430D01*
X74374654Y-48182524D01*
X74361866Y-48165281D01*
X74350830Y-48146868D01*
X74341651Y-48127462D01*
X74334419Y-48107250D01*
X74329203Y-48086426D01*
X74326053Y-48065191D01*
X74325000Y-48043750D01*
X74325000Y-47606250D01*
X74326053Y-47584809D01*
X74329203Y-47563574D01*
X74334419Y-47542750D01*
X74341651Y-47522538D01*
X74350830Y-47503132D01*
X74361866Y-47484719D01*
X74374654Y-47467476D01*
X74389070Y-47451570D01*
X74404976Y-47437154D01*
X74422219Y-47424366D01*
X74440632Y-47413330D01*
X74460038Y-47404151D01*
X74480250Y-47396919D01*
X74501074Y-47391703D01*
X74522309Y-47388553D01*
X74543750Y-47387500D01*
X75056250Y-47387500D01*
X75077691Y-47388553D01*
X75077691Y-47388553D01*
G37*
D12*
G04 #@! TD*
G04 #@! TO.P,R4,2*
G04 #@! TO.N,Net-(C4-Pad1)*
X74800000Y-47825000D03*
D11*
G04 #@! TO.N,+3V3*
G04 #@! TO.C,R4*
G36*
X75077691Y-48963553D02*
X75098926Y-48966703D01*
X75119750Y-48971919D01*
X75139962Y-48979151D01*
X75159368Y-48988330D01*
X75177781Y-48999366D01*
X75195024Y-49012154D01*
X75210930Y-49026570D01*
X75225346Y-49042476D01*
X75238134Y-49059719D01*
X75249170Y-49078132D01*
X75258349Y-49097538D01*
X75265581Y-49117750D01*
X75270797Y-49138574D01*
X75273947Y-49159809D01*
X75275000Y-49181250D01*
X75275000Y-49618750D01*
X75273947Y-49640191D01*
X75270797Y-49661426D01*
X75265581Y-49682250D01*
X75258349Y-49702462D01*
X75249170Y-49721868D01*
X75238134Y-49740281D01*
X75225346Y-49757524D01*
X75210930Y-49773430D01*
X75195024Y-49787846D01*
X75177781Y-49800634D01*
X75159368Y-49811670D01*
X75139962Y-49820849D01*
X75119750Y-49828081D01*
X75098926Y-49833297D01*
X75077691Y-49836447D01*
X75056250Y-49837500D01*
X74543750Y-49837500D01*
X74522309Y-49836447D01*
X74501074Y-49833297D01*
X74480250Y-49828081D01*
X74460038Y-49820849D01*
X74440632Y-49811670D01*
X74422219Y-49800634D01*
X74404976Y-49787846D01*
X74389070Y-49773430D01*
X74374654Y-49757524D01*
X74361866Y-49740281D01*
X74350830Y-49721868D01*
X74341651Y-49702462D01*
X74334419Y-49682250D01*
X74329203Y-49661426D01*
X74326053Y-49640191D01*
X74325000Y-49618750D01*
X74325000Y-49181250D01*
X74326053Y-49159809D01*
X74329203Y-49138574D01*
X74334419Y-49117750D01*
X74341651Y-49097538D01*
X74350830Y-49078132D01*
X74361866Y-49059719D01*
X74374654Y-49042476D01*
X74389070Y-49026570D01*
X74404976Y-49012154D01*
X74422219Y-48999366D01*
X74440632Y-48988330D01*
X74460038Y-48979151D01*
X74480250Y-48971919D01*
X74501074Y-48966703D01*
X74522309Y-48963553D01*
X74543750Y-48962500D01*
X75056250Y-48962500D01*
X75077691Y-48963553D01*
X75077691Y-48963553D01*
G37*
D12*
G04 #@! TD*
G04 #@! TO.P,R4,1*
G04 #@! TO.N,+3V3*
X74800000Y-49400000D03*
D16*
G04 #@! TO.P,SW1,2*
G04 #@! TO.N,GND*
X66820000Y-44250000D03*
G04 #@! TO.P,SW1,1*
G04 #@! TO.N,Net-(C4-Pad1)*
X66820000Y-39750000D03*
X74780000Y-39750000D03*
G04 #@! TO.P,SW1,2*
G04 #@! TO.N,GND*
X74780000Y-44250000D03*
G04 #@! TD*
D17*
G04 #@! TO.P,J2,1*
G04 #@! TO.N,+5V*
X22400000Y-43600000D03*
D18*
G04 #@! TO.P,J2,2*
G04 #@! TO.N,GND*
X22400000Y-38520000D03*
G04 #@! TD*
D19*
G04 #@! TO.P,J3,1*
G04 #@! TO.N,+3V3*
X71200000Y-50800000D03*
D20*
G04 #@! TO.P,J3,2*
G04 #@! TO.N,+5V*
X71200000Y-53340000D03*
G04 #@! TO.P,J3,3*
G04 #@! TO.N,Net-(J3-Pad3)*
X68660000Y-50800000D03*
G04 #@! TO.P,J3,4*
G04 #@! TO.N,+5V*
X68660000Y-53340000D03*
G04 #@! TO.P,J3,5*
G04 #@! TO.N,Net-(J3-Pad5)*
X66120000Y-50800000D03*
G04 #@! TO.P,J3,6*
G04 #@! TO.N,GND*
X66120000Y-53340000D03*
G04 #@! TO.P,J3,7*
G04 #@! TO.N,Net-(J3-Pad7)*
X63580000Y-50800000D03*
G04 #@! TO.P,J3,8*
G04 #@! TO.N,Net-(J3-Pad8)*
X63580000Y-53340000D03*
G04 #@! TO.P,J3,9*
G04 #@! TO.N,GND*
X61040000Y-50800000D03*
G04 #@! TO.P,J3,10*
G04 #@! TO.N,Net-(J3-Pad10)*
X61040000Y-53340000D03*
G04 #@! TO.P,J3,11*
G04 #@! TO.N,Net-(J3-Pad11)*
X58500000Y-50800000D03*
G04 #@! TO.P,J3,12*
G04 #@! TO.N,Net-(J3-Pad12)*
X58500000Y-53340000D03*
G04 #@! TO.P,J3,13*
G04 #@! TO.N,Net-(J3-Pad13)*
X55960000Y-50800000D03*
G04 #@! TO.P,J3,14*
G04 #@! TO.N,GND*
X55960000Y-53340000D03*
G04 #@! TO.P,J3,15*
G04 #@! TO.N,Net-(J3-Pad15)*
X53420000Y-50800000D03*
G04 #@! TO.P,J3,16*
G04 #@! TO.N,Net-(J3-Pad16)*
X53420000Y-53340000D03*
G04 #@! TO.P,J3,17*
G04 #@! TO.N,+3V3*
X50880000Y-50800000D03*
G04 #@! TO.P,J3,18*
G04 #@! TO.N,Net-(J3-Pad18)*
X50880000Y-53340000D03*
G04 #@! TO.P,J3,19*
G04 #@! TO.N,Net-(J3-Pad19)*
X48340000Y-50800000D03*
G04 #@! TO.P,J3,20*
G04 #@! TO.N,GND*
X48340000Y-53340000D03*
G04 #@! TO.P,J3,21*
G04 #@! TO.N,Net-(J3-Pad21)*
X45800000Y-50800000D03*
G04 #@! TO.P,J3,22*
G04 #@! TO.N,Net-(J3-Pad22)*
X45800000Y-53340000D03*
G04 #@! TO.P,J3,23*
G04 #@! TO.N,Net-(J3-Pad23)*
X43260000Y-50800000D03*
G04 #@! TO.P,J3,24*
G04 #@! TO.N,Net-(J3-Pad24)*
X43260000Y-53340000D03*
G04 #@! TO.P,J3,25*
G04 #@! TO.N,GND*
X40720000Y-50800000D03*
G04 #@! TO.P,J3,26*
G04 #@! TO.N,Net-(J3-Pad26)*
X40720000Y-53340000D03*
G04 #@! TO.P,J3,27*
G04 #@! TO.N,Net-(J3-Pad27)*
X38180000Y-50800000D03*
G04 #@! TO.P,J3,28*
G04 #@! TO.N,Net-(J3-Pad28)*
X38180000Y-53340000D03*
G04 #@! TO.P,J3,29*
G04 #@! TO.N,Net-(J3-Pad29)*
X35640000Y-50800000D03*
G04 #@! TO.P,J3,30*
G04 #@! TO.N,GND*
X35640000Y-53340000D03*
G04 #@! TO.P,J3,31*
G04 #@! TO.N,Net-(J3-Pad31)*
X33100000Y-50800000D03*
G04 #@! TO.P,J3,32*
G04 #@! TO.N,Net-(J3-Pad32)*
X33100000Y-53340000D03*
G04 #@! TO.P,J3,33*
G04 #@! TO.N,Net-(J3-Pad33)*
X30560000Y-50800000D03*
G04 #@! TO.P,J3,34*
G04 #@! TO.N,GND*
X30560000Y-53340000D03*
G04 #@! TO.P,J3,35*
G04 #@! TO.N,Net-(J3-Pad35)*
X28020000Y-50800000D03*
G04 #@! TO.P,J3,36*
G04 #@! TO.N,Net-(J3-Pad36)*
X28020000Y-53340000D03*
G04 #@! TO.P,J3,37*
G04 #@! TO.N,Net-(J3-Pad37)*
X25480000Y-50800000D03*
G04 #@! TO.P,J3,38*
G04 #@! TO.N,Net-(J3-Pad38)*
X25480000Y-53340000D03*
G04 #@! TO.P,J3,39*
G04 #@! TO.N,GND*
X22940000Y-50800000D03*
G04 #@! TO.P,J3,40*
G04 #@! TO.N,Net-(J3-Pad40)*
X22940000Y-53340000D03*
G04 #@! TD*
D21*
G04 #@! TO.N,Net-(C1-Pad2)*
X32800000Y-22600000D02*
X27400000Y-22600000D01*
D22*
X26050000Y-22600000D02*
X27400000Y-22600000D01*
D23*
G04 #@! TO.N,Net-(C1-Pad1)*
X37012500Y-22600000D02*
X34375000Y-22600000D01*
D24*
G04 #@! TO.N,+3V3*
X73400000Y-50800000D02*
X74800000Y-49400000D01*
X71200000Y-50800000D02*
X73400000Y-50800000D01*
X42562500Y-26700000D02*
X45350000Y-26700000D01*
X40600000Y-28662500D02*
X42562500Y-26700000D01*
X35662500Y-28662500D02*
X35600000Y-28600000D01*
X40600000Y-28662500D02*
X35662500Y-28662500D01*
X43200000Y-29200000D02*
X42662500Y-28662500D01*
X42662500Y-28662500D02*
X40600000Y-28662500D01*
X43200000Y-33200000D02*
X43200000Y-29200000D01*
X44200000Y-34200000D02*
X43200000Y-33200000D01*
X48800000Y-35400000D02*
X47600000Y-34200000D01*
X47600000Y-34200000D02*
X44200000Y-34200000D01*
X48800000Y-47517919D02*
X48800000Y-35400000D01*
X50880000Y-49597919D02*
X48800000Y-47517919D01*
X50880000Y-50800000D02*
X50880000Y-49597919D01*
D22*
G04 #@! TO.N,GND*
X74387500Y-26600000D02*
X74387500Y-30800000D01*
X74387500Y-33587500D02*
X74387500Y-30800000D01*
X74400000Y-33600000D02*
X74387500Y-33587500D01*
X73000000Y-35000000D02*
X74400000Y-33600000D01*
X68575000Y-35000000D02*
X73000000Y-35000000D01*
X67845000Y-44250000D02*
X74780000Y-44250000D01*
X66820000Y-44250000D02*
X67845000Y-44250000D01*
X75805000Y-44250000D02*
X76400000Y-43655000D01*
X74780000Y-44250000D02*
X75805000Y-44250000D01*
X76400000Y-35600000D02*
X74400000Y-33600000D01*
X76400000Y-43655000D02*
X76400000Y-35600000D01*
X41750000Y-24700000D02*
X41250000Y-24200000D01*
X45350000Y-24700000D02*
X41750000Y-24700000D01*
X40600000Y-31737500D02*
X40600000Y-33600000D01*
X38200000Y-33600000D02*
X35612500Y-36187500D01*
X40600000Y-33600000D02*
X38200000Y-33600000D01*
X24732500Y-36187500D02*
X35612500Y-36187500D01*
X22400000Y-38520000D02*
X24732500Y-36187500D01*
X63100000Y-24700000D02*
X64600000Y-23200000D01*
X61850000Y-24700000D02*
X63100000Y-24700000D01*
X64600000Y-23200000D02*
X72600000Y-23200000D01*
X72600000Y-23200000D02*
X74400000Y-25000000D01*
X74387500Y-25012500D02*
X74387500Y-26600000D01*
X74400000Y-25000000D02*
X74387500Y-25012500D01*
X33800000Y-34375000D02*
X35612500Y-36187500D01*
X41250000Y-25150000D02*
X39000000Y-27400000D01*
X39000000Y-27400000D02*
X34600000Y-27400000D01*
X33800000Y-28200000D02*
X33800000Y-34375000D01*
X34600000Y-27400000D02*
X33800000Y-28200000D01*
X41250000Y-24200000D02*
X41250000Y-25150000D01*
X24525000Y-19675000D02*
X24525000Y-21125000D01*
X26400000Y-17800000D02*
X24525000Y-19675000D01*
X64600000Y-23200000D02*
X59200000Y-17800000D01*
X24525000Y-21125000D02*
X24525000Y-24075000D01*
X45850000Y-24700000D02*
X52600000Y-17950000D01*
X45350000Y-24700000D02*
X45850000Y-24700000D01*
X52600000Y-17950000D02*
X52600000Y-17800000D01*
X52600000Y-17800000D02*
X26400000Y-17800000D01*
X59200000Y-17800000D02*
X52600000Y-17800000D01*
D25*
G04 #@! TO.N,Net-(C3-Pad1)*
X38612500Y-22625000D02*
X38587500Y-22600000D01*
D23*
X41325000Y-22700000D02*
X41250000Y-22625000D01*
X45350000Y-22700000D02*
X41325000Y-22700000D01*
X41225000Y-22600000D02*
X41250000Y-22625000D01*
X38587500Y-22600000D02*
X41225000Y-22600000D01*
D22*
G04 #@! TO.N,Net-(C4-Pad1)*
X64700000Y-32700000D02*
X67000000Y-35000000D01*
X61850000Y-32700000D02*
X64700000Y-32700000D01*
X66820000Y-35180000D02*
X67000000Y-35000000D01*
X66820000Y-39750000D02*
X66820000Y-35180000D01*
X66820000Y-39750000D02*
X74780000Y-39750000D01*
X74225000Y-47825000D02*
X74200000Y-47800000D01*
X74800000Y-47825000D02*
X74225000Y-47825000D01*
X74200000Y-47800000D02*
X66200000Y-47800000D01*
X66200000Y-47800000D02*
X64800000Y-46400000D01*
X64800000Y-46400000D02*
X64800000Y-42670000D01*
X66820000Y-40650000D02*
X66820000Y-39750000D01*
X64800000Y-42670000D02*
X66820000Y-40650000D01*
G04 #@! TO.N,Net-(D1-Pad1)*
X35600000Y-34600000D02*
X35612500Y-34612500D01*
X35600000Y-30175000D02*
X35600000Y-34600000D01*
G04 #@! TO.N,Net-(D2-Pad1)*
X68587500Y-26600000D02*
X72812500Y-26600000D01*
G04 #@! TO.N,Net-(D2-Pad2)*
X62350000Y-28700000D02*
X64450000Y-26600000D01*
X61850000Y-28700000D02*
X62350000Y-28700000D01*
X64450000Y-26600000D02*
X67012500Y-26600000D01*
G04 #@! TO.N,Net-(D3-Pad2)*
X66912500Y-30700000D02*
X67012500Y-30800000D01*
X61850000Y-30700000D02*
X66912500Y-30700000D01*
G04 #@! TO.N,Net-(D3-Pad1)*
X68587500Y-30800000D02*
X72812500Y-30800000D01*
G04 #@! TO.N,Net-(J3-Pad8)*
X45350000Y-30700000D02*
X45850000Y-30700000D01*
X62730001Y-54189999D02*
X62730001Y-54269999D01*
X63580000Y-53340000D02*
X62730001Y-54189999D01*
X62730001Y-54269999D02*
X62000000Y-55000000D01*
X62000000Y-55000000D02*
X60200000Y-55000000D01*
X46600000Y-30700000D02*
X45350000Y-30700000D01*
X59864999Y-43964999D02*
X46600000Y-30700000D01*
X59864999Y-54664999D02*
X59864999Y-43964999D01*
X60200000Y-55000000D02*
X59864999Y-54664999D01*
G04 #@! TO.N,Net-(J3-Pad10)*
X45850000Y-28700000D02*
X45350000Y-28700000D01*
X60315009Y-43165009D02*
X45850000Y-28700000D01*
X60315009Y-46250011D02*
X60315009Y-43165009D01*
X62215001Y-48150003D02*
X60315009Y-46250011D01*
X62215001Y-52164999D02*
X62215001Y-48150003D01*
X61040000Y-53340000D02*
X62215001Y-52164999D01*
G04 #@! TO.N,Net-(J3-Pad11)*
X58500000Y-49597919D02*
X50000000Y-41097919D01*
X58500000Y-50800000D02*
X58500000Y-49597919D01*
X50000000Y-41097919D02*
X50000000Y-34800000D01*
X47900000Y-32700000D02*
X45350000Y-32700000D01*
X50000000Y-34800000D02*
X47900000Y-32700000D01*
G04 #@! TO.N,Net-(J3-Pad36)*
X44850000Y-35700000D02*
X32350000Y-48200000D01*
X45350000Y-35700000D02*
X44850000Y-35700000D01*
X32350000Y-48200000D02*
X30800000Y-48200000D01*
X28869999Y-52490001D02*
X28020000Y-53340000D01*
X29384999Y-51975001D02*
X28869999Y-52490001D01*
X29384999Y-49615001D02*
X29384999Y-51975001D01*
X30800000Y-48200000D02*
X29384999Y-49615001D01*
G04 #@! TD*
D26*
G04 #@! TO.N,GND*
G36*
X76290001Y-56290000D02*
X17710000Y-56290000D01*
X17710000Y-53340000D01*
X21425908Y-53340000D01*
X21541161Y-53919418D01*
X21869375Y-54410625D01*
X22360582Y-54738839D01*
X22793744Y-54825000D01*
X23086256Y-54825000D01*
X23519418Y-54738839D01*
X24010625Y-54410625D01*
X24210000Y-54112239D01*
X24409375Y-54410625D01*
X24900582Y-54738839D01*
X25333744Y-54825000D01*
X25626256Y-54825000D01*
X26059418Y-54738839D01*
X26550625Y-54410625D01*
X26750000Y-54112239D01*
X26949375Y-54410625D01*
X27440582Y-54738839D01*
X27873744Y-54825000D01*
X28166256Y-54825000D01*
X28599418Y-54738839D01*
X29090625Y-54410625D01*
X29303843Y-54091522D01*
X29364817Y-54221358D01*
X29793076Y-54611645D01*
X30203110Y-54781476D01*
X30433000Y-54660155D01*
X30433000Y-53467000D01*
X30413000Y-53467000D01*
X30413000Y-53213000D01*
X30433000Y-53213000D01*
X30433000Y-53193000D01*
X30687000Y-53193000D01*
X30687000Y-53213000D01*
X30707000Y-53213000D01*
X30707000Y-53467000D01*
X30687000Y-53467000D01*
X30687000Y-54660155D01*
X30916890Y-54781476D01*
X31326924Y-54611645D01*
X31755183Y-54221358D01*
X31816157Y-54091522D01*
X32029375Y-54410625D01*
X32520582Y-54738839D01*
X32953744Y-54825000D01*
X33246256Y-54825000D01*
X33679418Y-54738839D01*
X34170625Y-54410625D01*
X34383843Y-54091522D01*
X34444817Y-54221358D01*
X34873076Y-54611645D01*
X35283110Y-54781476D01*
X35513000Y-54660155D01*
X35513000Y-53467000D01*
X35493000Y-53467000D01*
X35493000Y-53213000D01*
X35513000Y-53213000D01*
X35513000Y-53193000D01*
X35767000Y-53193000D01*
X35767000Y-53213000D01*
X35787000Y-53213000D01*
X35787000Y-53467000D01*
X35767000Y-53467000D01*
X35767000Y-54660155D01*
X35996890Y-54781476D01*
X36406924Y-54611645D01*
X36835183Y-54221358D01*
X36896157Y-54091522D01*
X37109375Y-54410625D01*
X37600582Y-54738839D01*
X38033744Y-54825000D01*
X38326256Y-54825000D01*
X38759418Y-54738839D01*
X39250625Y-54410625D01*
X39450000Y-54112239D01*
X39649375Y-54410625D01*
X40140582Y-54738839D01*
X40573744Y-54825000D01*
X40866256Y-54825000D01*
X41299418Y-54738839D01*
X41790625Y-54410625D01*
X41990000Y-54112239D01*
X42189375Y-54410625D01*
X42680582Y-54738839D01*
X43113744Y-54825000D01*
X43406256Y-54825000D01*
X43839418Y-54738839D01*
X44330625Y-54410625D01*
X44530000Y-54112239D01*
X44729375Y-54410625D01*
X45220582Y-54738839D01*
X45653744Y-54825000D01*
X45946256Y-54825000D01*
X46379418Y-54738839D01*
X46870625Y-54410625D01*
X47083843Y-54091522D01*
X47144817Y-54221358D01*
X47573076Y-54611645D01*
X47983110Y-54781476D01*
X48213000Y-54660155D01*
X48213000Y-53467000D01*
X48193000Y-53467000D01*
X48193000Y-53213000D01*
X48213000Y-53213000D01*
X48213000Y-53193000D01*
X48467000Y-53193000D01*
X48467000Y-53213000D01*
X48487000Y-53213000D01*
X48487000Y-53467000D01*
X48467000Y-53467000D01*
X48467000Y-54660155D01*
X48696890Y-54781476D01*
X49106924Y-54611645D01*
X49535183Y-54221358D01*
X49596157Y-54091522D01*
X49809375Y-54410625D01*
X50300582Y-54738839D01*
X50733744Y-54825000D01*
X51026256Y-54825000D01*
X51459418Y-54738839D01*
X51950625Y-54410625D01*
X52150000Y-54112239D01*
X52349375Y-54410625D01*
X52840582Y-54738839D01*
X53273744Y-54825000D01*
X53566256Y-54825000D01*
X53999418Y-54738839D01*
X54490625Y-54410625D01*
X54703843Y-54091522D01*
X54764817Y-54221358D01*
X55193076Y-54611645D01*
X55603110Y-54781476D01*
X55833000Y-54660155D01*
X55833000Y-53467000D01*
X55813000Y-53467000D01*
X55813000Y-53213000D01*
X55833000Y-53213000D01*
X55833000Y-53193000D01*
X56087000Y-53193000D01*
X56087000Y-53213000D01*
X56107000Y-53213000D01*
X56107000Y-53467000D01*
X56087000Y-53467000D01*
X56087000Y-54660155D01*
X56316890Y-54781476D01*
X56726924Y-54611645D01*
X57155183Y-54221358D01*
X57216157Y-54091522D01*
X57429375Y-54410625D01*
X57920582Y-54738839D01*
X58353744Y-54825000D01*
X58646256Y-54825000D01*
X59079418Y-54738839D01*
X59101821Y-54723870D01*
X59104999Y-54739846D01*
X59104999Y-54739850D01*
X59149095Y-54961535D01*
X59317070Y-55212928D01*
X59380529Y-55255330D01*
X59609669Y-55484470D01*
X59652071Y-55547929D01*
X59903463Y-55715904D01*
X60125148Y-55760000D01*
X60125153Y-55760000D01*
X60200000Y-55774888D01*
X60274847Y-55760000D01*
X61925153Y-55760000D01*
X62000000Y-55774888D01*
X62074847Y-55760000D01*
X62074852Y-55760000D01*
X62296537Y-55715904D01*
X62547929Y-55547929D01*
X62590331Y-55484471D01*
X63214476Y-54860327D01*
X63277930Y-54817928D01*
X63292038Y-54796813D01*
X63433744Y-54825000D01*
X63726256Y-54825000D01*
X64159418Y-54738839D01*
X64650625Y-54410625D01*
X64863843Y-54091522D01*
X64924817Y-54221358D01*
X65353076Y-54611645D01*
X65763110Y-54781476D01*
X65993000Y-54660155D01*
X65993000Y-53467000D01*
X65973000Y-53467000D01*
X65973000Y-53213000D01*
X65993000Y-53213000D01*
X65993000Y-53193000D01*
X66247000Y-53193000D01*
X66247000Y-53213000D01*
X66267000Y-53213000D01*
X66267000Y-53467000D01*
X66247000Y-53467000D01*
X66247000Y-54660155D01*
X66476890Y-54781476D01*
X66886924Y-54611645D01*
X67315183Y-54221358D01*
X67376157Y-54091522D01*
X67589375Y-54410625D01*
X68080582Y-54738839D01*
X68513744Y-54825000D01*
X68806256Y-54825000D01*
X69239418Y-54738839D01*
X69730625Y-54410625D01*
X69930000Y-54112239D01*
X70129375Y-54410625D01*
X70620582Y-54738839D01*
X71053744Y-54825000D01*
X71346256Y-54825000D01*
X71779418Y-54738839D01*
X72270625Y-54410625D01*
X72598839Y-53919418D01*
X72714092Y-53340000D01*
X72598839Y-52760582D01*
X72270625Y-52269375D01*
X72252381Y-52257184D01*
X72297765Y-52248157D01*
X72507809Y-52107809D01*
X72623277Y-51935000D01*
X73288217Y-51935000D01*
X73400000Y-51957235D01*
X73511783Y-51935000D01*
X73842855Y-51869146D01*
X74218289Y-51618289D01*
X74281613Y-51523518D01*
X75385729Y-50419402D01*
X75387727Y-50419005D01*
X75668739Y-50231239D01*
X75856505Y-49950227D01*
X75922440Y-49618750D01*
X75922440Y-49574927D01*
X75957235Y-49400000D01*
X75922440Y-49225073D01*
X75922440Y-49181250D01*
X75856505Y-48849773D01*
X75697964Y-48612500D01*
X75856505Y-48375227D01*
X75922440Y-48043750D01*
X75922440Y-47606250D01*
X75856505Y-47274773D01*
X75668739Y-46993761D01*
X75387727Y-46805995D01*
X75056250Y-46740060D01*
X74543750Y-46740060D01*
X74212273Y-46805995D01*
X73931261Y-46993761D01*
X73900365Y-47040000D01*
X66514802Y-47040000D01*
X65560000Y-46085199D01*
X65560000Y-45313026D01*
X65685302Y-45438327D01*
X65918691Y-45535000D01*
X66534250Y-45535000D01*
X66693000Y-45376250D01*
X66693000Y-44377000D01*
X66947000Y-44377000D01*
X66947000Y-45376250D01*
X67105750Y-45535000D01*
X67721309Y-45535000D01*
X67954698Y-45438327D01*
X68133327Y-45259699D01*
X68230000Y-45026310D01*
X68230000Y-44535750D01*
X73370000Y-44535750D01*
X73370000Y-45026310D01*
X73466673Y-45259699D01*
X73645302Y-45438327D01*
X73878691Y-45535000D01*
X74494250Y-45535000D01*
X74653000Y-45376250D01*
X74653000Y-44377000D01*
X74907000Y-44377000D01*
X74907000Y-45376250D01*
X75065750Y-45535000D01*
X75681309Y-45535000D01*
X75914698Y-45438327D01*
X76093327Y-45259699D01*
X76190000Y-45026310D01*
X76190000Y-44535750D01*
X76031250Y-44377000D01*
X74907000Y-44377000D01*
X74653000Y-44377000D01*
X73528750Y-44377000D01*
X73370000Y-44535750D01*
X68230000Y-44535750D01*
X68071250Y-44377000D01*
X66947000Y-44377000D01*
X66693000Y-44377000D01*
X66673000Y-44377000D01*
X66673000Y-44123000D01*
X66693000Y-44123000D01*
X66693000Y-43123750D01*
X66947000Y-43123750D01*
X66947000Y-44123000D01*
X68071250Y-44123000D01*
X68230000Y-43964250D01*
X68230000Y-43473690D01*
X73370000Y-43473690D01*
X73370000Y-43964250D01*
X73528750Y-44123000D01*
X74653000Y-44123000D01*
X74653000Y-43123750D01*
X74907000Y-43123750D01*
X74907000Y-44123000D01*
X76031250Y-44123000D01*
X76190000Y-43964250D01*
X76190000Y-43473690D01*
X76093327Y-43240301D01*
X75914698Y-43061673D01*
X75681309Y-42965000D01*
X75065750Y-42965000D01*
X74907000Y-43123750D01*
X74653000Y-43123750D01*
X74494250Y-42965000D01*
X73878691Y-42965000D01*
X73645302Y-43061673D01*
X73466673Y-43240301D01*
X73370000Y-43473690D01*
X68230000Y-43473690D01*
X68133327Y-43240301D01*
X67954698Y-43061673D01*
X67721309Y-42965000D01*
X67105750Y-42965000D01*
X66947000Y-43123750D01*
X66693000Y-43123750D01*
X66534250Y-42965000D01*
X65918691Y-42965000D01*
X65685302Y-43061673D01*
X65560000Y-43186974D01*
X65560000Y-42984801D01*
X67304476Y-41240327D01*
X67367929Y-41197929D01*
X67410327Y-41134476D01*
X67410329Y-41134474D01*
X67468483Y-41047440D01*
X67595000Y-41047440D01*
X67842765Y-40998157D01*
X68052809Y-40857809D01*
X68193157Y-40647765D01*
X68220560Y-40510000D01*
X73379440Y-40510000D01*
X73406843Y-40647765D01*
X73547191Y-40857809D01*
X73757235Y-40998157D01*
X74005000Y-41047440D01*
X75555000Y-41047440D01*
X75802765Y-40998157D01*
X76012809Y-40857809D01*
X76153157Y-40647765D01*
X76202440Y-40400000D01*
X76202440Y-39100000D01*
X76153157Y-38852235D01*
X76012809Y-38642191D01*
X75802765Y-38501843D01*
X75555000Y-38452560D01*
X74005000Y-38452560D01*
X73757235Y-38501843D01*
X73547191Y-38642191D01*
X73406843Y-38852235D01*
X73379440Y-38990000D01*
X68220560Y-38990000D01*
X68193157Y-38852235D01*
X68052809Y-38642191D01*
X67842765Y-38501843D01*
X67595000Y-38452560D01*
X67580000Y-38452560D01*
X67580000Y-36036611D01*
X67712531Y-35948057D01*
X67777802Y-36013327D01*
X68011191Y-36110000D01*
X68289250Y-36110000D01*
X68448000Y-35951250D01*
X68448000Y-35127000D01*
X68702000Y-35127000D01*
X68702000Y-35951250D01*
X68860750Y-36110000D01*
X69138809Y-36110000D01*
X69372198Y-36013327D01*
X69550827Y-35834699D01*
X69647500Y-35601310D01*
X69647500Y-35285750D01*
X69488750Y-35127000D01*
X68702000Y-35127000D01*
X68448000Y-35127000D01*
X68428000Y-35127000D01*
X68428000Y-34873000D01*
X68448000Y-34873000D01*
X68448000Y-34048750D01*
X68702000Y-34048750D01*
X68702000Y-34873000D01*
X69488750Y-34873000D01*
X69647500Y-34714250D01*
X69647500Y-34398690D01*
X69550827Y-34165301D01*
X69372198Y-33986673D01*
X69138809Y-33890000D01*
X68860750Y-33890000D01*
X68702000Y-34048750D01*
X68448000Y-34048750D01*
X68289250Y-33890000D01*
X68011191Y-33890000D01*
X67777802Y-33986673D01*
X67712531Y-34051943D01*
X67550227Y-33943495D01*
X67218750Y-33877560D01*
X66952362Y-33877560D01*
X65290331Y-32215530D01*
X65247929Y-32152071D01*
X64996537Y-31984096D01*
X64774852Y-31940000D01*
X64774847Y-31940000D01*
X64700000Y-31925112D01*
X64625153Y-31940000D01*
X63439982Y-31940000D01*
X63307809Y-31742191D01*
X63244666Y-31700000D01*
X63307809Y-31657809D01*
X63439982Y-31460000D01*
X66041786Y-31460000D01*
X66181261Y-31668739D01*
X66462273Y-31856505D01*
X66793750Y-31922440D01*
X67231250Y-31922440D01*
X67562727Y-31856505D01*
X67800000Y-31697964D01*
X68037273Y-31856505D01*
X68368750Y-31922440D01*
X68806250Y-31922440D01*
X69137727Y-31856505D01*
X69418739Y-31668739D01*
X69491396Y-31560000D01*
X71908604Y-31560000D01*
X71981261Y-31668739D01*
X72262273Y-31856505D01*
X72593750Y-31922440D01*
X73031250Y-31922440D01*
X73362727Y-31856505D01*
X73525031Y-31748057D01*
X73590302Y-31813327D01*
X73823691Y-31910000D01*
X74101750Y-31910000D01*
X74260500Y-31751250D01*
X74260500Y-30927000D01*
X74514500Y-30927000D01*
X74514500Y-31751250D01*
X74673250Y-31910000D01*
X74951309Y-31910000D01*
X75184698Y-31813327D01*
X75363327Y-31634699D01*
X75460000Y-31401310D01*
X75460000Y-31085750D01*
X75301250Y-30927000D01*
X74514500Y-30927000D01*
X74260500Y-30927000D01*
X74240500Y-30927000D01*
X74240500Y-30673000D01*
X74260500Y-30673000D01*
X74260500Y-29848750D01*
X74514500Y-29848750D01*
X74514500Y-30673000D01*
X75301250Y-30673000D01*
X75460000Y-30514250D01*
X75460000Y-30198690D01*
X75363327Y-29965301D01*
X75184698Y-29786673D01*
X74951309Y-29690000D01*
X74673250Y-29690000D01*
X74514500Y-29848750D01*
X74260500Y-29848750D01*
X74101750Y-29690000D01*
X73823691Y-29690000D01*
X73590302Y-29786673D01*
X73525031Y-29851943D01*
X73362727Y-29743495D01*
X73031250Y-29677560D01*
X72593750Y-29677560D01*
X72262273Y-29743495D01*
X71981261Y-29931261D01*
X71908604Y-30040000D01*
X69491396Y-30040000D01*
X69418739Y-29931261D01*
X69137727Y-29743495D01*
X68806250Y-29677560D01*
X68368750Y-29677560D01*
X68037273Y-29743495D01*
X67800000Y-29902036D01*
X67562727Y-29743495D01*
X67231250Y-29677560D01*
X66793750Y-29677560D01*
X66462273Y-29743495D01*
X66181261Y-29931261D01*
X66175422Y-29940000D01*
X63439982Y-29940000D01*
X63307809Y-29742191D01*
X63244666Y-29700000D01*
X63307809Y-29657809D01*
X63448157Y-29447765D01*
X63497440Y-29200000D01*
X63497440Y-28627362D01*
X64764803Y-27360000D01*
X66108604Y-27360000D01*
X66181261Y-27468739D01*
X66462273Y-27656505D01*
X66793750Y-27722440D01*
X67231250Y-27722440D01*
X67562727Y-27656505D01*
X67800000Y-27497964D01*
X68037273Y-27656505D01*
X68368750Y-27722440D01*
X68806250Y-27722440D01*
X69137727Y-27656505D01*
X69418739Y-27468739D01*
X69491396Y-27360000D01*
X71908604Y-27360000D01*
X71981261Y-27468739D01*
X72262273Y-27656505D01*
X72593750Y-27722440D01*
X73031250Y-27722440D01*
X73362727Y-27656505D01*
X73525031Y-27548057D01*
X73590302Y-27613327D01*
X73823691Y-27710000D01*
X74101750Y-27710000D01*
X74260500Y-27551250D01*
X74260500Y-26727000D01*
X74514500Y-26727000D01*
X74514500Y-27551250D01*
X74673250Y-27710000D01*
X74951309Y-27710000D01*
X75184698Y-27613327D01*
X75363327Y-27434699D01*
X75460000Y-27201310D01*
X75460000Y-26885750D01*
X75301250Y-26727000D01*
X74514500Y-26727000D01*
X74260500Y-26727000D01*
X74240500Y-26727000D01*
X74240500Y-26473000D01*
X74260500Y-26473000D01*
X74260500Y-25648750D01*
X74514500Y-25648750D01*
X74514500Y-26473000D01*
X75301250Y-26473000D01*
X75460000Y-26314250D01*
X75460000Y-25998690D01*
X75363327Y-25765301D01*
X75184698Y-25586673D01*
X74951309Y-25490000D01*
X74673250Y-25490000D01*
X74514500Y-25648750D01*
X74260500Y-25648750D01*
X74101750Y-25490000D01*
X73823691Y-25490000D01*
X73590302Y-25586673D01*
X73525031Y-25651943D01*
X73362727Y-25543495D01*
X73031250Y-25477560D01*
X72593750Y-25477560D01*
X72262273Y-25543495D01*
X71981261Y-25731261D01*
X71908604Y-25840000D01*
X69491396Y-25840000D01*
X69418739Y-25731261D01*
X69137727Y-25543495D01*
X68806250Y-25477560D01*
X68368750Y-25477560D01*
X68037273Y-25543495D01*
X67800000Y-25702036D01*
X67562727Y-25543495D01*
X67231250Y-25477560D01*
X66793750Y-25477560D01*
X66462273Y-25543495D01*
X66181261Y-25731261D01*
X66108604Y-25840000D01*
X64524846Y-25840000D01*
X64449999Y-25825112D01*
X64375152Y-25840000D01*
X64375148Y-25840000D01*
X64153463Y-25884096D01*
X64153461Y-25884097D01*
X64153462Y-25884097D01*
X63965526Y-26009671D01*
X63965524Y-26009673D01*
X63902071Y-26052071D01*
X63859673Y-26115524D01*
X63497440Y-26477757D01*
X63497440Y-26200000D01*
X63448157Y-25952235D01*
X63307809Y-25742191D01*
X63246680Y-25701345D01*
X63388327Y-25559699D01*
X63485000Y-25326310D01*
X63485000Y-24985750D01*
X63326250Y-24827000D01*
X61977000Y-24827000D01*
X61977000Y-24847000D01*
X61723000Y-24847000D01*
X61723000Y-24827000D01*
X60373750Y-24827000D01*
X60215000Y-24985750D01*
X60215000Y-25326310D01*
X60311673Y-25559699D01*
X60453320Y-25701345D01*
X60392191Y-25742191D01*
X60251843Y-25952235D01*
X60202560Y-26200000D01*
X60202560Y-27200000D01*
X60251843Y-27447765D01*
X60392191Y-27657809D01*
X60455334Y-27700000D01*
X60392191Y-27742191D01*
X60251843Y-27952235D01*
X60202560Y-28200000D01*
X60202560Y-29200000D01*
X60251843Y-29447765D01*
X60392191Y-29657809D01*
X60455334Y-29700000D01*
X60392191Y-29742191D01*
X60251843Y-29952235D01*
X60202560Y-30200000D01*
X60202560Y-31200000D01*
X60251843Y-31447765D01*
X60392191Y-31657809D01*
X60455334Y-31700000D01*
X60392191Y-31742191D01*
X60251843Y-31952235D01*
X60202560Y-32200000D01*
X60202560Y-33200000D01*
X60251843Y-33447765D01*
X60392191Y-33657809D01*
X60602235Y-33798157D01*
X60850000Y-33847440D01*
X62850000Y-33847440D01*
X63097765Y-33798157D01*
X63307809Y-33657809D01*
X63439982Y-33460000D01*
X64385199Y-33460000D01*
X65915060Y-34989862D01*
X65915060Y-35256250D01*
X65980995Y-35587727D01*
X66060001Y-35705968D01*
X66060000Y-38452560D01*
X66045000Y-38452560D01*
X65797235Y-38501843D01*
X65587191Y-38642191D01*
X65446843Y-38852235D01*
X65397560Y-39100000D01*
X65397560Y-40400000D01*
X65446843Y-40647765D01*
X65567243Y-40827955D01*
X64315528Y-42079671D01*
X64252072Y-42122071D01*
X64209672Y-42185527D01*
X64209671Y-42185528D01*
X64084097Y-42373463D01*
X64025112Y-42670000D01*
X64040001Y-42744852D01*
X64040000Y-46325153D01*
X64025112Y-46400000D01*
X64040000Y-46474847D01*
X64040000Y-46474851D01*
X64084096Y-46696536D01*
X64252071Y-46947929D01*
X64315530Y-46990331D01*
X65609670Y-48284472D01*
X65652071Y-48347929D01*
X65903463Y-48515904D01*
X66125148Y-48560000D01*
X66125153Y-48560000D01*
X66200000Y-48574888D01*
X66274847Y-48560000D01*
X73866956Y-48560000D01*
X73902036Y-48612500D01*
X73743495Y-48849773D01*
X73743098Y-48851771D01*
X72929869Y-49665000D01*
X72623277Y-49665000D01*
X72507809Y-49492191D01*
X72297765Y-49351843D01*
X72050000Y-49302560D01*
X70350000Y-49302560D01*
X70102235Y-49351843D01*
X69892191Y-49492191D01*
X69751843Y-49702235D01*
X69742816Y-49747619D01*
X69730625Y-49729375D01*
X69239418Y-49401161D01*
X68806256Y-49315000D01*
X68513744Y-49315000D01*
X68080582Y-49401161D01*
X67589375Y-49729375D01*
X67390000Y-50027761D01*
X67190625Y-49729375D01*
X66699418Y-49401161D01*
X66266256Y-49315000D01*
X65973744Y-49315000D01*
X65540582Y-49401161D01*
X65049375Y-49729375D01*
X64850000Y-50027761D01*
X64650625Y-49729375D01*
X64159418Y-49401161D01*
X63726256Y-49315000D01*
X63433744Y-49315000D01*
X63000582Y-49401161D01*
X62975001Y-49418254D01*
X62975001Y-48224849D01*
X62989889Y-48150002D01*
X62975001Y-48075155D01*
X62975001Y-48075151D01*
X62930905Y-47853466D01*
X62838738Y-47715528D01*
X62805330Y-47665529D01*
X62805328Y-47665527D01*
X62762930Y-47602074D01*
X62699477Y-47559676D01*
X61987240Y-46847440D01*
X62850000Y-46847440D01*
X63097765Y-46798157D01*
X63307809Y-46657809D01*
X63448157Y-46447765D01*
X63497440Y-46200000D01*
X63497440Y-45200000D01*
X63448157Y-44952235D01*
X63307809Y-44742191D01*
X63244666Y-44700000D01*
X63307809Y-44657809D01*
X63448157Y-44447765D01*
X63497440Y-44200000D01*
X63497440Y-43200000D01*
X63448157Y-42952235D01*
X63307809Y-42742191D01*
X63244666Y-42700000D01*
X63307809Y-42657809D01*
X63448157Y-42447765D01*
X63497440Y-42200000D01*
X63497440Y-41200000D01*
X63448157Y-40952235D01*
X63307809Y-40742191D01*
X63244666Y-40700000D01*
X63307809Y-40657809D01*
X63448157Y-40447765D01*
X63497440Y-40200000D01*
X63497440Y-39200000D01*
X63448157Y-38952235D01*
X63307809Y-38742191D01*
X63244666Y-38700000D01*
X63307809Y-38657809D01*
X63448157Y-38447765D01*
X63497440Y-38200000D01*
X63497440Y-37200000D01*
X63448157Y-36952235D01*
X63307809Y-36742191D01*
X63244666Y-36700000D01*
X63307809Y-36657809D01*
X63448157Y-36447765D01*
X63497440Y-36200000D01*
X63497440Y-35200000D01*
X63448157Y-34952235D01*
X63307809Y-34742191D01*
X63097765Y-34601843D01*
X62850000Y-34552560D01*
X60850000Y-34552560D01*
X60602235Y-34601843D01*
X60392191Y-34742191D01*
X60251843Y-34952235D01*
X60202560Y-35200000D01*
X60202560Y-36200000D01*
X60251843Y-36447765D01*
X60392191Y-36657809D01*
X60455334Y-36700000D01*
X60392191Y-36742191D01*
X60251843Y-36952235D01*
X60202560Y-37200000D01*
X60202560Y-38200000D01*
X60251843Y-38447765D01*
X60392191Y-38657809D01*
X60455334Y-38700000D01*
X60392191Y-38742191D01*
X60251843Y-38952235D01*
X60202560Y-39200000D01*
X60202560Y-40200000D01*
X60251843Y-40447765D01*
X60392191Y-40657809D01*
X60455334Y-40700000D01*
X60392191Y-40742191D01*
X60251843Y-40952235D01*
X60202560Y-41200000D01*
X60202560Y-41977758D01*
X46997440Y-28772639D01*
X46997440Y-28200000D01*
X46948157Y-27952235D01*
X46807809Y-27742191D01*
X46744666Y-27700000D01*
X46807809Y-27657809D01*
X46948157Y-27447765D01*
X46997440Y-27200000D01*
X46997440Y-26200000D01*
X46948157Y-25952235D01*
X46807809Y-25742191D01*
X46746680Y-25701345D01*
X46888327Y-25559699D01*
X46985000Y-25326310D01*
X46985000Y-24985750D01*
X46826250Y-24827000D01*
X45477000Y-24827000D01*
X45477000Y-24847000D01*
X45223000Y-24847000D01*
X45223000Y-24827000D01*
X43873750Y-24827000D01*
X43715000Y-24985750D01*
X43715000Y-25326310D01*
X43811673Y-25559699D01*
X43816974Y-25565000D01*
X42674282Y-25565000D01*
X42562499Y-25542765D01*
X42119645Y-25630854D01*
X41744211Y-25881711D01*
X41680889Y-25976479D01*
X40304809Y-27352560D01*
X39674999Y-27352560D01*
X39331564Y-27420873D01*
X39171986Y-27527500D01*
X36025992Y-27527500D01*
X35600000Y-27442765D01*
X35157146Y-27530854D01*
X35111705Y-27561217D01*
X35012273Y-27580995D01*
X34731261Y-27768761D01*
X34543495Y-28049773D01*
X34477560Y-28381250D01*
X34477560Y-28425073D01*
X34442765Y-28600000D01*
X34477560Y-28774927D01*
X34477560Y-28818750D01*
X34543495Y-29150227D01*
X34702036Y-29387500D01*
X34543495Y-29624773D01*
X34477560Y-29956250D01*
X34477560Y-30393750D01*
X34543495Y-30725227D01*
X34731261Y-31006239D01*
X34840000Y-31078896D01*
X34840001Y-33716956D01*
X34743761Y-33781261D01*
X34555995Y-34062273D01*
X34490060Y-34393750D01*
X34490060Y-34831250D01*
X34555995Y-35162727D01*
X34664443Y-35325031D01*
X34599173Y-35390302D01*
X34502500Y-35623691D01*
X34502500Y-35901750D01*
X34661250Y-36060500D01*
X35485500Y-36060500D01*
X35485500Y-36040500D01*
X35739500Y-36040500D01*
X35739500Y-36060500D01*
X36563750Y-36060500D01*
X36722500Y-35901750D01*
X36722500Y-35623691D01*
X36625827Y-35390302D01*
X36560557Y-35325031D01*
X36669005Y-35162727D01*
X36734940Y-34831250D01*
X36734940Y-34393750D01*
X36669005Y-34062273D01*
X36481239Y-33781261D01*
X36360000Y-33700252D01*
X36360000Y-32023250D01*
X38790000Y-32023250D01*
X38790000Y-32526309D01*
X38886673Y-32759698D01*
X39065301Y-32938327D01*
X39298690Y-33035000D01*
X40314250Y-33035000D01*
X40473000Y-32876250D01*
X40473000Y-31864500D01*
X38948750Y-31864500D01*
X38790000Y-32023250D01*
X36360000Y-32023250D01*
X36360000Y-31078896D01*
X36468739Y-31006239D01*
X36507191Y-30948691D01*
X38790000Y-30948691D01*
X38790000Y-31451750D01*
X38948750Y-31610500D01*
X40473000Y-31610500D01*
X40473000Y-30598750D01*
X40314250Y-30440000D01*
X39298690Y-30440000D01*
X39065301Y-30536673D01*
X38886673Y-30715302D01*
X38790000Y-30948691D01*
X36507191Y-30948691D01*
X36656505Y-30725227D01*
X36722440Y-30393750D01*
X36722440Y-29956250D01*
X36690863Y-29797500D01*
X39171986Y-29797500D01*
X39331564Y-29904127D01*
X39674999Y-29972440D01*
X41525001Y-29972440D01*
X41868436Y-29904127D01*
X42028014Y-29797500D01*
X42065001Y-29797500D01*
X42065001Y-30507803D01*
X41901310Y-30440000D01*
X40885750Y-30440000D01*
X40727000Y-30598750D01*
X40727000Y-31610500D01*
X40747000Y-31610500D01*
X40747000Y-31864500D01*
X40727000Y-31864500D01*
X40727000Y-32876250D01*
X40885750Y-33035000D01*
X41901310Y-33035000D01*
X42065000Y-32967197D01*
X42065000Y-33088217D01*
X42042765Y-33200000D01*
X42107921Y-33527560D01*
X42130854Y-33642854D01*
X42381711Y-34018289D01*
X42476481Y-34081612D01*
X43318391Y-34923523D01*
X43381711Y-35018289D01*
X43476476Y-35081609D01*
X43702560Y-35232673D01*
X43702560Y-35772638D01*
X32035199Y-47440000D01*
X30874848Y-47440000D01*
X30800000Y-47425112D01*
X30725152Y-47440000D01*
X30725148Y-47440000D01*
X30503463Y-47484096D01*
X30252071Y-47652071D01*
X30209671Y-47715527D01*
X28900529Y-49024670D01*
X28837070Y-49067072D01*
X28669095Y-49318465D01*
X28646401Y-49432554D01*
X28599418Y-49401161D01*
X28166256Y-49315000D01*
X27873744Y-49315000D01*
X27440582Y-49401161D01*
X26949375Y-49729375D01*
X26750000Y-50027761D01*
X26550625Y-49729375D01*
X26059418Y-49401161D01*
X25626256Y-49315000D01*
X25333744Y-49315000D01*
X24900582Y-49401161D01*
X24409375Y-49729375D01*
X24196157Y-50048478D01*
X24135183Y-49918642D01*
X23706924Y-49528355D01*
X23296890Y-49358524D01*
X23067000Y-49479845D01*
X23067000Y-50673000D01*
X23087000Y-50673000D01*
X23087000Y-50927000D01*
X23067000Y-50927000D01*
X23067000Y-50947000D01*
X22813000Y-50947000D01*
X22813000Y-50927000D01*
X21619181Y-50927000D01*
X21498514Y-51156892D01*
X21744817Y-51681358D01*
X22169786Y-52068647D01*
X21869375Y-52269375D01*
X21541161Y-52760582D01*
X21425908Y-53340000D01*
X17710000Y-53340000D01*
X17710000Y-50443108D01*
X21498514Y-50443108D01*
X21619181Y-50673000D01*
X22813000Y-50673000D01*
X22813000Y-49479845D01*
X22583110Y-49358524D01*
X22173076Y-49528355D01*
X21744817Y-49918642D01*
X21498514Y-50443108D01*
X17710000Y-50443108D01*
X17710000Y-41849940D01*
X20002500Y-41849940D01*
X20002500Y-45350060D01*
X20051783Y-45597825D01*
X20192131Y-45807869D01*
X20402175Y-45948217D01*
X20649940Y-45997500D01*
X24150060Y-45997500D01*
X24397825Y-45948217D01*
X24607869Y-45807869D01*
X24748217Y-45597825D01*
X24797500Y-45350060D01*
X24797500Y-41849940D01*
X24748217Y-41602175D01*
X24607869Y-41392131D01*
X24397825Y-41251783D01*
X24150060Y-41202500D01*
X20649940Y-41202500D01*
X20402175Y-41251783D01*
X20192131Y-41392131D01*
X20051783Y-41602175D01*
X20002500Y-41849940D01*
X17710000Y-41849940D01*
X17710000Y-40214571D01*
X20885034Y-40214571D01*
X21075328Y-40559319D01*
X21956576Y-40911015D01*
X22905332Y-40898701D01*
X23724672Y-40559319D01*
X23914966Y-40214571D01*
X22400000Y-38699605D01*
X20885034Y-40214571D01*
X17710000Y-40214571D01*
X17710000Y-38076576D01*
X20008985Y-38076576D01*
X20021299Y-39025332D01*
X20360681Y-39844672D01*
X20705429Y-40034966D01*
X22220395Y-38520000D01*
X22579605Y-38520000D01*
X24094571Y-40034966D01*
X24439319Y-39844672D01*
X24791015Y-38963424D01*
X24778701Y-38014668D01*
X24439319Y-37195328D01*
X24094571Y-37005034D01*
X22579605Y-38520000D01*
X22220395Y-38520000D01*
X20705429Y-37005034D01*
X20360681Y-37195328D01*
X20008985Y-38076576D01*
X17710000Y-38076576D01*
X17710000Y-36825429D01*
X20885034Y-36825429D01*
X22400000Y-38340395D01*
X23914966Y-36825429D01*
X23724672Y-36480681D01*
X23706053Y-36473250D01*
X34502500Y-36473250D01*
X34502500Y-36751309D01*
X34599173Y-36984698D01*
X34777801Y-37163327D01*
X35011190Y-37260000D01*
X35326750Y-37260000D01*
X35485500Y-37101250D01*
X35485500Y-36314500D01*
X35739500Y-36314500D01*
X35739500Y-37101250D01*
X35898250Y-37260000D01*
X36213810Y-37260000D01*
X36447199Y-37163327D01*
X36625827Y-36984698D01*
X36722500Y-36751309D01*
X36722500Y-36473250D01*
X36563750Y-36314500D01*
X35739500Y-36314500D01*
X35485500Y-36314500D01*
X34661250Y-36314500D01*
X34502500Y-36473250D01*
X23706053Y-36473250D01*
X22843424Y-36128985D01*
X21894668Y-36141299D01*
X21075328Y-36480681D01*
X20885034Y-36825429D01*
X17710000Y-36825429D01*
X17710000Y-24360750D01*
X22790000Y-24360750D01*
X22790000Y-24726310D01*
X22886673Y-24959699D01*
X23065302Y-25138327D01*
X23298691Y-25235000D01*
X24239250Y-25235000D01*
X24398000Y-25076250D01*
X24398000Y-24202000D01*
X24652000Y-24202000D01*
X24652000Y-25076250D01*
X24810750Y-25235000D01*
X25751309Y-25235000D01*
X25984698Y-25138327D01*
X26163327Y-24959699D01*
X26260000Y-24726310D01*
X26260000Y-24485750D01*
X40140000Y-24485750D01*
X40140000Y-24763809D01*
X40236673Y-24997198D01*
X40415301Y-25175827D01*
X40648690Y-25272500D01*
X40964250Y-25272500D01*
X41123000Y-25113750D01*
X41123000Y-24327000D01*
X41377000Y-24327000D01*
X41377000Y-25113750D01*
X41535750Y-25272500D01*
X41851310Y-25272500D01*
X42084699Y-25175827D01*
X42263327Y-24997198D01*
X42360000Y-24763809D01*
X42360000Y-24485750D01*
X42201250Y-24327000D01*
X41377000Y-24327000D01*
X41123000Y-24327000D01*
X40298750Y-24327000D01*
X40140000Y-24485750D01*
X26260000Y-24485750D01*
X26260000Y-24360750D01*
X26101250Y-24202000D01*
X24652000Y-24202000D01*
X24398000Y-24202000D01*
X22948750Y-24202000D01*
X22790000Y-24360750D01*
X17710000Y-24360750D01*
X17710000Y-23423690D01*
X22790000Y-23423690D01*
X22790000Y-23789250D01*
X22948750Y-23948000D01*
X24398000Y-23948000D01*
X24398000Y-23073750D01*
X24239250Y-22915000D01*
X23298691Y-22915000D01*
X23065302Y-23011673D01*
X22886673Y-23190301D01*
X22790000Y-23423690D01*
X17710000Y-23423690D01*
X17710000Y-21410750D01*
X22790000Y-21410750D01*
X22790000Y-21776310D01*
X22886673Y-22009699D01*
X23065302Y-22188327D01*
X23298691Y-22285000D01*
X24239250Y-22285000D01*
X24398000Y-22126250D01*
X24398000Y-21252000D01*
X24652000Y-21252000D01*
X24652000Y-22126250D01*
X24810750Y-22285000D01*
X24877560Y-22285000D01*
X24877560Y-22915000D01*
X24810750Y-22915000D01*
X24652000Y-23073750D01*
X24652000Y-23948000D01*
X26101250Y-23948000D01*
X26260000Y-23789250D01*
X26260000Y-23747440D01*
X26264342Y-23747440D01*
X26781564Y-24093036D01*
X27243897Y-24185000D01*
X32956103Y-24185000D01*
X33418436Y-24093036D01*
X33942721Y-23742721D01*
X33979733Y-23687329D01*
X34156250Y-23722440D01*
X34593750Y-23722440D01*
X34925227Y-23656505D01*
X34994827Y-23610000D01*
X36392673Y-23610000D01*
X36462273Y-23656505D01*
X36793750Y-23722440D01*
X37231250Y-23722440D01*
X37562727Y-23656505D01*
X37800000Y-23497964D01*
X38037273Y-23656505D01*
X38368750Y-23722440D01*
X38806250Y-23722440D01*
X39137727Y-23656505D01*
X39207327Y-23610000D01*
X40150849Y-23610000D01*
X40140000Y-23636191D01*
X40140000Y-23914250D01*
X40298750Y-24073000D01*
X41123000Y-24073000D01*
X41123000Y-24053000D01*
X41377000Y-24053000D01*
X41377000Y-24073000D01*
X42201250Y-24073000D01*
X42360000Y-23914250D01*
X42360000Y-23710000D01*
X43941975Y-23710000D01*
X43811673Y-23840301D01*
X43715000Y-24073690D01*
X43715000Y-24414250D01*
X43873750Y-24573000D01*
X45223000Y-24573000D01*
X45223000Y-24553000D01*
X45477000Y-24553000D01*
X45477000Y-24573000D01*
X46826250Y-24573000D01*
X46985000Y-24414250D01*
X46985000Y-24073690D01*
X60215000Y-24073690D01*
X60215000Y-24414250D01*
X60373750Y-24573000D01*
X61723000Y-24573000D01*
X61723000Y-23723750D01*
X61977000Y-23723750D01*
X61977000Y-24573000D01*
X63326250Y-24573000D01*
X63485000Y-24414250D01*
X63485000Y-24073690D01*
X63388327Y-23840301D01*
X63209698Y-23661673D01*
X62976309Y-23565000D01*
X62135750Y-23565000D01*
X61977000Y-23723750D01*
X61723000Y-23723750D01*
X61564250Y-23565000D01*
X60723691Y-23565000D01*
X60490302Y-23661673D01*
X60311673Y-23840301D01*
X60215000Y-24073690D01*
X46985000Y-24073690D01*
X46888327Y-23840301D01*
X46746680Y-23698655D01*
X46807809Y-23657809D01*
X46948157Y-23447765D01*
X46997440Y-23200000D01*
X46997440Y-22200000D01*
X46948157Y-21952235D01*
X46807809Y-21742191D01*
X46597765Y-21601843D01*
X46350000Y-21552560D01*
X44350000Y-21552560D01*
X44102235Y-21601843D01*
X43970300Y-21690000D01*
X41963450Y-21690000D01*
X41837727Y-21605995D01*
X41506250Y-21540060D01*
X40993750Y-21540060D01*
X40742685Y-21590000D01*
X39207327Y-21590000D01*
X39137727Y-21543495D01*
X38806250Y-21477560D01*
X38368750Y-21477560D01*
X38037273Y-21543495D01*
X37800000Y-21702036D01*
X37562727Y-21543495D01*
X37231250Y-21477560D01*
X36793750Y-21477560D01*
X36462273Y-21543495D01*
X36392673Y-21590000D01*
X34994827Y-21590000D01*
X34925227Y-21543495D01*
X34593750Y-21477560D01*
X34156250Y-21477560D01*
X33979733Y-21512671D01*
X33942721Y-21457279D01*
X33418436Y-21106964D01*
X32956103Y-21015000D01*
X27243897Y-21015000D01*
X26781564Y-21106964D01*
X26264342Y-21452560D01*
X26260000Y-21452560D01*
X26260000Y-21410750D01*
X26101250Y-21252000D01*
X24652000Y-21252000D01*
X24398000Y-21252000D01*
X22948750Y-21252000D01*
X22790000Y-21410750D01*
X17710000Y-21410750D01*
X17710000Y-20473690D01*
X22790000Y-20473690D01*
X22790000Y-20839250D01*
X22948750Y-20998000D01*
X24398000Y-20998000D01*
X24398000Y-20123750D01*
X24652000Y-20123750D01*
X24652000Y-20998000D01*
X26101250Y-20998000D01*
X26260000Y-20839250D01*
X26260000Y-20473690D01*
X26163327Y-20240301D01*
X25984698Y-20061673D01*
X25751309Y-19965000D01*
X24810750Y-19965000D01*
X24652000Y-20123750D01*
X24398000Y-20123750D01*
X24239250Y-19965000D01*
X23298691Y-19965000D01*
X23065302Y-20061673D01*
X22886673Y-20240301D01*
X22790000Y-20473690D01*
X17710000Y-20473690D01*
X17710000Y-17710000D01*
X76290000Y-17710000D01*
X76290001Y-56290000D01*
X76290001Y-56290000D01*
G37*
X76290001Y-56290000D02*
X17710000Y-56290000D01*
X17710000Y-53340000D01*
X21425908Y-53340000D01*
X21541161Y-53919418D01*
X21869375Y-54410625D01*
X22360582Y-54738839D01*
X22793744Y-54825000D01*
X23086256Y-54825000D01*
X23519418Y-54738839D01*
X24010625Y-54410625D01*
X24210000Y-54112239D01*
X24409375Y-54410625D01*
X24900582Y-54738839D01*
X25333744Y-54825000D01*
X25626256Y-54825000D01*
X26059418Y-54738839D01*
X26550625Y-54410625D01*
X26750000Y-54112239D01*
X26949375Y-54410625D01*
X27440582Y-54738839D01*
X27873744Y-54825000D01*
X28166256Y-54825000D01*
X28599418Y-54738839D01*
X29090625Y-54410625D01*
X29303843Y-54091522D01*
X29364817Y-54221358D01*
X29793076Y-54611645D01*
X30203110Y-54781476D01*
X30433000Y-54660155D01*
X30433000Y-53467000D01*
X30413000Y-53467000D01*
X30413000Y-53213000D01*
X30433000Y-53213000D01*
X30433000Y-53193000D01*
X30687000Y-53193000D01*
X30687000Y-53213000D01*
X30707000Y-53213000D01*
X30707000Y-53467000D01*
X30687000Y-53467000D01*
X30687000Y-54660155D01*
X30916890Y-54781476D01*
X31326924Y-54611645D01*
X31755183Y-54221358D01*
X31816157Y-54091522D01*
X32029375Y-54410625D01*
X32520582Y-54738839D01*
X32953744Y-54825000D01*
X33246256Y-54825000D01*
X33679418Y-54738839D01*
X34170625Y-54410625D01*
X34383843Y-54091522D01*
X34444817Y-54221358D01*
X34873076Y-54611645D01*
X35283110Y-54781476D01*
X35513000Y-54660155D01*
X35513000Y-53467000D01*
X35493000Y-53467000D01*
X35493000Y-53213000D01*
X35513000Y-53213000D01*
X35513000Y-53193000D01*
X35767000Y-53193000D01*
X35767000Y-53213000D01*
X35787000Y-53213000D01*
X35787000Y-53467000D01*
X35767000Y-53467000D01*
X35767000Y-54660155D01*
X35996890Y-54781476D01*
X36406924Y-54611645D01*
X36835183Y-54221358D01*
X36896157Y-54091522D01*
X37109375Y-54410625D01*
X37600582Y-54738839D01*
X38033744Y-54825000D01*
X38326256Y-54825000D01*
X38759418Y-54738839D01*
X39250625Y-54410625D01*
X39450000Y-54112239D01*
X39649375Y-54410625D01*
X40140582Y-54738839D01*
X40573744Y-54825000D01*
X40866256Y-54825000D01*
X41299418Y-54738839D01*
X41790625Y-54410625D01*
X41990000Y-54112239D01*
X42189375Y-54410625D01*
X42680582Y-54738839D01*
X43113744Y-54825000D01*
X43406256Y-54825000D01*
X43839418Y-54738839D01*
X44330625Y-54410625D01*
X44530000Y-54112239D01*
X44729375Y-54410625D01*
X45220582Y-54738839D01*
X45653744Y-54825000D01*
X45946256Y-54825000D01*
X46379418Y-54738839D01*
X46870625Y-54410625D01*
X47083843Y-54091522D01*
X47144817Y-54221358D01*
X47573076Y-54611645D01*
X47983110Y-54781476D01*
X48213000Y-54660155D01*
X48213000Y-53467000D01*
X48193000Y-53467000D01*
X48193000Y-53213000D01*
X48213000Y-53213000D01*
X48213000Y-53193000D01*
X48467000Y-53193000D01*
X48467000Y-53213000D01*
X48487000Y-53213000D01*
X48487000Y-53467000D01*
X48467000Y-53467000D01*
X48467000Y-54660155D01*
X48696890Y-54781476D01*
X49106924Y-54611645D01*
X49535183Y-54221358D01*
X49596157Y-54091522D01*
X49809375Y-54410625D01*
X50300582Y-54738839D01*
X50733744Y-54825000D01*
X51026256Y-54825000D01*
X51459418Y-54738839D01*
X51950625Y-54410625D01*
X52150000Y-54112239D01*
X52349375Y-54410625D01*
X52840582Y-54738839D01*
X53273744Y-54825000D01*
X53566256Y-54825000D01*
X53999418Y-54738839D01*
X54490625Y-54410625D01*
X54703843Y-54091522D01*
X54764817Y-54221358D01*
X55193076Y-54611645D01*
X55603110Y-54781476D01*
X55833000Y-54660155D01*
X55833000Y-53467000D01*
X55813000Y-53467000D01*
X55813000Y-53213000D01*
X55833000Y-53213000D01*
X55833000Y-53193000D01*
X56087000Y-53193000D01*
X56087000Y-53213000D01*
X56107000Y-53213000D01*
X56107000Y-53467000D01*
X56087000Y-53467000D01*
X56087000Y-54660155D01*
X56316890Y-54781476D01*
X56726924Y-54611645D01*
X57155183Y-54221358D01*
X57216157Y-54091522D01*
X57429375Y-54410625D01*
X57920582Y-54738839D01*
X58353744Y-54825000D01*
X58646256Y-54825000D01*
X59079418Y-54738839D01*
X59101821Y-54723870D01*
X59104999Y-54739846D01*
X59104999Y-54739850D01*
X59149095Y-54961535D01*
X59317070Y-55212928D01*
X59380529Y-55255330D01*
X59609669Y-55484470D01*
X59652071Y-55547929D01*
X59903463Y-55715904D01*
X60125148Y-55760000D01*
X60125153Y-55760000D01*
X60200000Y-55774888D01*
X60274847Y-55760000D01*
X61925153Y-55760000D01*
X62000000Y-55774888D01*
X62074847Y-55760000D01*
X62074852Y-55760000D01*
X62296537Y-55715904D01*
X62547929Y-55547929D01*
X62590331Y-55484471D01*
X63214476Y-54860327D01*
X63277930Y-54817928D01*
X63292038Y-54796813D01*
X63433744Y-54825000D01*
X63726256Y-54825000D01*
X64159418Y-54738839D01*
X64650625Y-54410625D01*
X64863843Y-54091522D01*
X64924817Y-54221358D01*
X65353076Y-54611645D01*
X65763110Y-54781476D01*
X65993000Y-54660155D01*
X65993000Y-53467000D01*
X65973000Y-53467000D01*
X65973000Y-53213000D01*
X65993000Y-53213000D01*
X65993000Y-53193000D01*
X66247000Y-53193000D01*
X66247000Y-53213000D01*
X66267000Y-53213000D01*
X66267000Y-53467000D01*
X66247000Y-53467000D01*
X66247000Y-54660155D01*
X66476890Y-54781476D01*
X66886924Y-54611645D01*
X67315183Y-54221358D01*
X67376157Y-54091522D01*
X67589375Y-54410625D01*
X68080582Y-54738839D01*
X68513744Y-54825000D01*
X68806256Y-54825000D01*
X69239418Y-54738839D01*
X69730625Y-54410625D01*
X69930000Y-54112239D01*
X70129375Y-54410625D01*
X70620582Y-54738839D01*
X71053744Y-54825000D01*
X71346256Y-54825000D01*
X71779418Y-54738839D01*
X72270625Y-54410625D01*
X72598839Y-53919418D01*
X72714092Y-53340000D01*
X72598839Y-52760582D01*
X72270625Y-52269375D01*
X72252381Y-52257184D01*
X72297765Y-52248157D01*
X72507809Y-52107809D01*
X72623277Y-51935000D01*
X73288217Y-51935000D01*
X73400000Y-51957235D01*
X73511783Y-51935000D01*
X73842855Y-51869146D01*
X74218289Y-51618289D01*
X74281613Y-51523518D01*
X75385729Y-50419402D01*
X75387727Y-50419005D01*
X75668739Y-50231239D01*
X75856505Y-49950227D01*
X75922440Y-49618750D01*
X75922440Y-49574927D01*
X75957235Y-49400000D01*
X75922440Y-49225073D01*
X75922440Y-49181250D01*
X75856505Y-48849773D01*
X75697964Y-48612500D01*
X75856505Y-48375227D01*
X75922440Y-48043750D01*
X75922440Y-47606250D01*
X75856505Y-47274773D01*
X75668739Y-46993761D01*
X75387727Y-46805995D01*
X75056250Y-46740060D01*
X74543750Y-46740060D01*
X74212273Y-46805995D01*
X73931261Y-46993761D01*
X73900365Y-47040000D01*
X66514802Y-47040000D01*
X65560000Y-46085199D01*
X65560000Y-45313026D01*
X65685302Y-45438327D01*
X65918691Y-45535000D01*
X66534250Y-45535000D01*
X66693000Y-45376250D01*
X66693000Y-44377000D01*
X66947000Y-44377000D01*
X66947000Y-45376250D01*
X67105750Y-45535000D01*
X67721309Y-45535000D01*
X67954698Y-45438327D01*
X68133327Y-45259699D01*
X68230000Y-45026310D01*
X68230000Y-44535750D01*
X73370000Y-44535750D01*
X73370000Y-45026310D01*
X73466673Y-45259699D01*
X73645302Y-45438327D01*
X73878691Y-45535000D01*
X74494250Y-45535000D01*
X74653000Y-45376250D01*
X74653000Y-44377000D01*
X74907000Y-44377000D01*
X74907000Y-45376250D01*
X75065750Y-45535000D01*
X75681309Y-45535000D01*
X75914698Y-45438327D01*
X76093327Y-45259699D01*
X76190000Y-45026310D01*
X76190000Y-44535750D01*
X76031250Y-44377000D01*
X74907000Y-44377000D01*
X74653000Y-44377000D01*
X73528750Y-44377000D01*
X73370000Y-44535750D01*
X68230000Y-44535750D01*
X68071250Y-44377000D01*
X66947000Y-44377000D01*
X66693000Y-44377000D01*
X66673000Y-44377000D01*
X66673000Y-44123000D01*
X66693000Y-44123000D01*
X66693000Y-43123750D01*
X66947000Y-43123750D01*
X66947000Y-44123000D01*
X68071250Y-44123000D01*
X68230000Y-43964250D01*
X68230000Y-43473690D01*
X73370000Y-43473690D01*
X73370000Y-43964250D01*
X73528750Y-44123000D01*
X74653000Y-44123000D01*
X74653000Y-43123750D01*
X74907000Y-43123750D01*
X74907000Y-44123000D01*
X76031250Y-44123000D01*
X76190000Y-43964250D01*
X76190000Y-43473690D01*
X76093327Y-43240301D01*
X75914698Y-43061673D01*
X75681309Y-42965000D01*
X75065750Y-42965000D01*
X74907000Y-43123750D01*
X74653000Y-43123750D01*
X74494250Y-42965000D01*
X73878691Y-42965000D01*
X73645302Y-43061673D01*
X73466673Y-43240301D01*
X73370000Y-43473690D01*
X68230000Y-43473690D01*
X68133327Y-43240301D01*
X67954698Y-43061673D01*
X67721309Y-42965000D01*
X67105750Y-42965000D01*
X66947000Y-43123750D01*
X66693000Y-43123750D01*
X66534250Y-42965000D01*
X65918691Y-42965000D01*
X65685302Y-43061673D01*
X65560000Y-43186974D01*
X65560000Y-42984801D01*
X67304476Y-41240327D01*
X67367929Y-41197929D01*
X67410327Y-41134476D01*
X67410329Y-41134474D01*
X67468483Y-41047440D01*
X67595000Y-41047440D01*
X67842765Y-40998157D01*
X68052809Y-40857809D01*
X68193157Y-40647765D01*
X68220560Y-40510000D01*
X73379440Y-40510000D01*
X73406843Y-40647765D01*
X73547191Y-40857809D01*
X73757235Y-40998157D01*
X74005000Y-41047440D01*
X75555000Y-41047440D01*
X75802765Y-40998157D01*
X76012809Y-40857809D01*
X76153157Y-40647765D01*
X76202440Y-40400000D01*
X76202440Y-39100000D01*
X76153157Y-38852235D01*
X76012809Y-38642191D01*
X75802765Y-38501843D01*
X75555000Y-38452560D01*
X74005000Y-38452560D01*
X73757235Y-38501843D01*
X73547191Y-38642191D01*
X73406843Y-38852235D01*
X73379440Y-38990000D01*
X68220560Y-38990000D01*
X68193157Y-38852235D01*
X68052809Y-38642191D01*
X67842765Y-38501843D01*
X67595000Y-38452560D01*
X67580000Y-38452560D01*
X67580000Y-36036611D01*
X67712531Y-35948057D01*
X67777802Y-36013327D01*
X68011191Y-36110000D01*
X68289250Y-36110000D01*
X68448000Y-35951250D01*
X68448000Y-35127000D01*
X68702000Y-35127000D01*
X68702000Y-35951250D01*
X68860750Y-36110000D01*
X69138809Y-36110000D01*
X69372198Y-36013327D01*
X69550827Y-35834699D01*
X69647500Y-35601310D01*
X69647500Y-35285750D01*
X69488750Y-35127000D01*
X68702000Y-35127000D01*
X68448000Y-35127000D01*
X68428000Y-35127000D01*
X68428000Y-34873000D01*
X68448000Y-34873000D01*
X68448000Y-34048750D01*
X68702000Y-34048750D01*
X68702000Y-34873000D01*
X69488750Y-34873000D01*
X69647500Y-34714250D01*
X69647500Y-34398690D01*
X69550827Y-34165301D01*
X69372198Y-33986673D01*
X69138809Y-33890000D01*
X68860750Y-33890000D01*
X68702000Y-34048750D01*
X68448000Y-34048750D01*
X68289250Y-33890000D01*
X68011191Y-33890000D01*
X67777802Y-33986673D01*
X67712531Y-34051943D01*
X67550227Y-33943495D01*
X67218750Y-33877560D01*
X66952362Y-33877560D01*
X65290331Y-32215530D01*
X65247929Y-32152071D01*
X64996537Y-31984096D01*
X64774852Y-31940000D01*
X64774847Y-31940000D01*
X64700000Y-31925112D01*
X64625153Y-31940000D01*
X63439982Y-31940000D01*
X63307809Y-31742191D01*
X63244666Y-31700000D01*
X63307809Y-31657809D01*
X63439982Y-31460000D01*
X66041786Y-31460000D01*
X66181261Y-31668739D01*
X66462273Y-31856505D01*
X66793750Y-31922440D01*
X67231250Y-31922440D01*
X67562727Y-31856505D01*
X67800000Y-31697964D01*
X68037273Y-31856505D01*
X68368750Y-31922440D01*
X68806250Y-31922440D01*
X69137727Y-31856505D01*
X69418739Y-31668739D01*
X69491396Y-31560000D01*
X71908604Y-31560000D01*
X71981261Y-31668739D01*
X72262273Y-31856505D01*
X72593750Y-31922440D01*
X73031250Y-31922440D01*
X73362727Y-31856505D01*
X73525031Y-31748057D01*
X73590302Y-31813327D01*
X73823691Y-31910000D01*
X74101750Y-31910000D01*
X74260500Y-31751250D01*
X74260500Y-30927000D01*
X74514500Y-30927000D01*
X74514500Y-31751250D01*
X74673250Y-31910000D01*
X74951309Y-31910000D01*
X75184698Y-31813327D01*
X75363327Y-31634699D01*
X75460000Y-31401310D01*
X75460000Y-31085750D01*
X75301250Y-30927000D01*
X74514500Y-30927000D01*
X74260500Y-30927000D01*
X74240500Y-30927000D01*
X74240500Y-30673000D01*
X74260500Y-30673000D01*
X74260500Y-29848750D01*
X74514500Y-29848750D01*
X74514500Y-30673000D01*
X75301250Y-30673000D01*
X75460000Y-30514250D01*
X75460000Y-30198690D01*
X75363327Y-29965301D01*
X75184698Y-29786673D01*
X74951309Y-29690000D01*
X74673250Y-29690000D01*
X74514500Y-29848750D01*
X74260500Y-29848750D01*
X74101750Y-29690000D01*
X73823691Y-29690000D01*
X73590302Y-29786673D01*
X73525031Y-29851943D01*
X73362727Y-29743495D01*
X73031250Y-29677560D01*
X72593750Y-29677560D01*
X72262273Y-29743495D01*
X71981261Y-29931261D01*
X71908604Y-30040000D01*
X69491396Y-30040000D01*
X69418739Y-29931261D01*
X69137727Y-29743495D01*
X68806250Y-29677560D01*
X68368750Y-29677560D01*
X68037273Y-29743495D01*
X67800000Y-29902036D01*
X67562727Y-29743495D01*
X67231250Y-29677560D01*
X66793750Y-29677560D01*
X66462273Y-29743495D01*
X66181261Y-29931261D01*
X66175422Y-29940000D01*
X63439982Y-29940000D01*
X63307809Y-29742191D01*
X63244666Y-29700000D01*
X63307809Y-29657809D01*
X63448157Y-29447765D01*
X63497440Y-29200000D01*
X63497440Y-28627362D01*
X64764803Y-27360000D01*
X66108604Y-27360000D01*
X66181261Y-27468739D01*
X66462273Y-27656505D01*
X66793750Y-27722440D01*
X67231250Y-27722440D01*
X67562727Y-27656505D01*
X67800000Y-27497964D01*
X68037273Y-27656505D01*
X68368750Y-27722440D01*
X68806250Y-27722440D01*
X69137727Y-27656505D01*
X69418739Y-27468739D01*
X69491396Y-27360000D01*
X71908604Y-27360000D01*
X71981261Y-27468739D01*
X72262273Y-27656505D01*
X72593750Y-27722440D01*
X73031250Y-27722440D01*
X73362727Y-27656505D01*
X73525031Y-27548057D01*
X73590302Y-27613327D01*
X73823691Y-27710000D01*
X74101750Y-27710000D01*
X74260500Y-27551250D01*
X74260500Y-26727000D01*
X74514500Y-26727000D01*
X74514500Y-27551250D01*
X74673250Y-27710000D01*
X74951309Y-27710000D01*
X75184698Y-27613327D01*
X75363327Y-27434699D01*
X75460000Y-27201310D01*
X75460000Y-26885750D01*
X75301250Y-26727000D01*
X74514500Y-26727000D01*
X74260500Y-26727000D01*
X74240500Y-26727000D01*
X74240500Y-26473000D01*
X74260500Y-26473000D01*
X74260500Y-25648750D01*
X74514500Y-25648750D01*
X74514500Y-26473000D01*
X75301250Y-26473000D01*
X75460000Y-26314250D01*
X75460000Y-25998690D01*
X75363327Y-25765301D01*
X75184698Y-25586673D01*
X74951309Y-25490000D01*
X74673250Y-25490000D01*
X74514500Y-25648750D01*
X74260500Y-25648750D01*
X74101750Y-25490000D01*
X73823691Y-25490000D01*
X73590302Y-25586673D01*
X73525031Y-25651943D01*
X73362727Y-25543495D01*
X73031250Y-25477560D01*
X72593750Y-25477560D01*
X72262273Y-25543495D01*
X71981261Y-25731261D01*
X71908604Y-25840000D01*
X69491396Y-25840000D01*
X69418739Y-25731261D01*
X69137727Y-25543495D01*
X68806250Y-25477560D01*
X68368750Y-25477560D01*
X68037273Y-25543495D01*
X67800000Y-25702036D01*
X67562727Y-25543495D01*
X67231250Y-25477560D01*
X66793750Y-25477560D01*
X66462273Y-25543495D01*
X66181261Y-25731261D01*
X66108604Y-25840000D01*
X64524846Y-25840000D01*
X64449999Y-25825112D01*
X64375152Y-25840000D01*
X64375148Y-25840000D01*
X64153463Y-25884096D01*
X64153461Y-25884097D01*
X64153462Y-25884097D01*
X63965526Y-26009671D01*
X63965524Y-26009673D01*
X63902071Y-26052071D01*
X63859673Y-26115524D01*
X63497440Y-26477757D01*
X63497440Y-26200000D01*
X63448157Y-25952235D01*
X63307809Y-25742191D01*
X63246680Y-25701345D01*
X63388327Y-25559699D01*
X63485000Y-25326310D01*
X63485000Y-24985750D01*
X63326250Y-24827000D01*
X61977000Y-24827000D01*
X61977000Y-24847000D01*
X61723000Y-24847000D01*
X61723000Y-24827000D01*
X60373750Y-24827000D01*
X60215000Y-24985750D01*
X60215000Y-25326310D01*
X60311673Y-25559699D01*
X60453320Y-25701345D01*
X60392191Y-25742191D01*
X60251843Y-25952235D01*
X60202560Y-26200000D01*
X60202560Y-27200000D01*
X60251843Y-27447765D01*
X60392191Y-27657809D01*
X60455334Y-27700000D01*
X60392191Y-27742191D01*
X60251843Y-27952235D01*
X60202560Y-28200000D01*
X60202560Y-29200000D01*
X60251843Y-29447765D01*
X60392191Y-29657809D01*
X60455334Y-29700000D01*
X60392191Y-29742191D01*
X60251843Y-29952235D01*
X60202560Y-30200000D01*
X60202560Y-31200000D01*
X60251843Y-31447765D01*
X60392191Y-31657809D01*
X60455334Y-31700000D01*
X60392191Y-31742191D01*
X60251843Y-31952235D01*
X60202560Y-32200000D01*
X60202560Y-33200000D01*
X60251843Y-33447765D01*
X60392191Y-33657809D01*
X60602235Y-33798157D01*
X60850000Y-33847440D01*
X62850000Y-33847440D01*
X63097765Y-33798157D01*
X63307809Y-33657809D01*
X63439982Y-33460000D01*
X64385199Y-33460000D01*
X65915060Y-34989862D01*
X65915060Y-35256250D01*
X65980995Y-35587727D01*
X66060001Y-35705968D01*
X66060000Y-38452560D01*
X66045000Y-38452560D01*
X65797235Y-38501843D01*
X65587191Y-38642191D01*
X65446843Y-38852235D01*
X65397560Y-39100000D01*
X65397560Y-40400000D01*
X65446843Y-40647765D01*
X65567243Y-40827955D01*
X64315528Y-42079671D01*
X64252072Y-42122071D01*
X64209672Y-42185527D01*
X64209671Y-42185528D01*
X64084097Y-42373463D01*
X64025112Y-42670000D01*
X64040001Y-42744852D01*
X64040000Y-46325153D01*
X64025112Y-46400000D01*
X64040000Y-46474847D01*
X64040000Y-46474851D01*
X64084096Y-46696536D01*
X64252071Y-46947929D01*
X64315530Y-46990331D01*
X65609670Y-48284472D01*
X65652071Y-48347929D01*
X65903463Y-48515904D01*
X66125148Y-48560000D01*
X66125153Y-48560000D01*
X66200000Y-48574888D01*
X66274847Y-48560000D01*
X73866956Y-48560000D01*
X73902036Y-48612500D01*
X73743495Y-48849773D01*
X73743098Y-48851771D01*
X72929869Y-49665000D01*
X72623277Y-49665000D01*
X72507809Y-49492191D01*
X72297765Y-49351843D01*
X72050000Y-49302560D01*
X70350000Y-49302560D01*
X70102235Y-49351843D01*
X69892191Y-49492191D01*
X69751843Y-49702235D01*
X69742816Y-49747619D01*
X69730625Y-49729375D01*
X69239418Y-49401161D01*
X68806256Y-49315000D01*
X68513744Y-49315000D01*
X68080582Y-49401161D01*
X67589375Y-49729375D01*
X67390000Y-50027761D01*
X67190625Y-49729375D01*
X66699418Y-49401161D01*
X66266256Y-49315000D01*
X65973744Y-49315000D01*
X65540582Y-49401161D01*
X65049375Y-49729375D01*
X64850000Y-50027761D01*
X64650625Y-49729375D01*
X64159418Y-49401161D01*
X63726256Y-49315000D01*
X63433744Y-49315000D01*
X63000582Y-49401161D01*
X62975001Y-49418254D01*
X62975001Y-48224849D01*
X62989889Y-48150002D01*
X62975001Y-48075155D01*
X62975001Y-48075151D01*
X62930905Y-47853466D01*
X62838738Y-47715528D01*
X62805330Y-47665529D01*
X62805328Y-47665527D01*
X62762930Y-47602074D01*
X62699477Y-47559676D01*
X61987240Y-46847440D01*
X62850000Y-46847440D01*
X63097765Y-46798157D01*
X63307809Y-46657809D01*
X63448157Y-46447765D01*
X63497440Y-46200000D01*
X63497440Y-45200000D01*
X63448157Y-44952235D01*
X63307809Y-44742191D01*
X63244666Y-44700000D01*
X63307809Y-44657809D01*
X63448157Y-44447765D01*
X63497440Y-44200000D01*
X63497440Y-43200000D01*
X63448157Y-42952235D01*
X63307809Y-42742191D01*
X63244666Y-42700000D01*
X63307809Y-42657809D01*
X63448157Y-42447765D01*
X63497440Y-42200000D01*
X63497440Y-41200000D01*
X63448157Y-40952235D01*
X63307809Y-40742191D01*
X63244666Y-40700000D01*
X63307809Y-40657809D01*
X63448157Y-40447765D01*
X63497440Y-40200000D01*
X63497440Y-39200000D01*
X63448157Y-38952235D01*
X63307809Y-38742191D01*
X63244666Y-38700000D01*
X63307809Y-38657809D01*
X63448157Y-38447765D01*
X63497440Y-38200000D01*
X63497440Y-37200000D01*
X63448157Y-36952235D01*
X63307809Y-36742191D01*
X63244666Y-36700000D01*
X63307809Y-36657809D01*
X63448157Y-36447765D01*
X63497440Y-36200000D01*
X63497440Y-35200000D01*
X63448157Y-34952235D01*
X63307809Y-34742191D01*
X63097765Y-34601843D01*
X62850000Y-34552560D01*
X60850000Y-34552560D01*
X60602235Y-34601843D01*
X60392191Y-34742191D01*
X60251843Y-34952235D01*
X60202560Y-35200000D01*
X60202560Y-36200000D01*
X60251843Y-36447765D01*
X60392191Y-36657809D01*
X60455334Y-36700000D01*
X60392191Y-36742191D01*
X60251843Y-36952235D01*
X60202560Y-37200000D01*
X60202560Y-38200000D01*
X60251843Y-38447765D01*
X60392191Y-38657809D01*
X60455334Y-38700000D01*
X60392191Y-38742191D01*
X60251843Y-38952235D01*
X60202560Y-39200000D01*
X60202560Y-40200000D01*
X60251843Y-40447765D01*
X60392191Y-40657809D01*
X60455334Y-40700000D01*
X60392191Y-40742191D01*
X60251843Y-40952235D01*
X60202560Y-41200000D01*
X60202560Y-41977758D01*
X46997440Y-28772639D01*
X46997440Y-28200000D01*
X46948157Y-27952235D01*
X46807809Y-27742191D01*
X46744666Y-27700000D01*
X46807809Y-27657809D01*
X46948157Y-27447765D01*
X46997440Y-27200000D01*
X46997440Y-26200000D01*
X46948157Y-25952235D01*
X46807809Y-25742191D01*
X46746680Y-25701345D01*
X46888327Y-25559699D01*
X46985000Y-25326310D01*
X46985000Y-24985750D01*
X46826250Y-24827000D01*
X45477000Y-24827000D01*
X45477000Y-24847000D01*
X45223000Y-24847000D01*
X45223000Y-24827000D01*
X43873750Y-24827000D01*
X43715000Y-24985750D01*
X43715000Y-25326310D01*
X43811673Y-25559699D01*
X43816974Y-25565000D01*
X42674282Y-25565000D01*
X42562499Y-25542765D01*
X42119645Y-25630854D01*
X41744211Y-25881711D01*
X41680889Y-25976479D01*
X40304809Y-27352560D01*
X39674999Y-27352560D01*
X39331564Y-27420873D01*
X39171986Y-27527500D01*
X36025992Y-27527500D01*
X35600000Y-27442765D01*
X35157146Y-27530854D01*
X35111705Y-27561217D01*
X35012273Y-27580995D01*
X34731261Y-27768761D01*
X34543495Y-28049773D01*
X34477560Y-28381250D01*
X34477560Y-28425073D01*
X34442765Y-28600000D01*
X34477560Y-28774927D01*
X34477560Y-28818750D01*
X34543495Y-29150227D01*
X34702036Y-29387500D01*
X34543495Y-29624773D01*
X34477560Y-29956250D01*
X34477560Y-30393750D01*
X34543495Y-30725227D01*
X34731261Y-31006239D01*
X34840000Y-31078896D01*
X34840001Y-33716956D01*
X34743761Y-33781261D01*
X34555995Y-34062273D01*
X34490060Y-34393750D01*
X34490060Y-34831250D01*
X34555995Y-35162727D01*
X34664443Y-35325031D01*
X34599173Y-35390302D01*
X34502500Y-35623691D01*
X34502500Y-35901750D01*
X34661250Y-36060500D01*
X35485500Y-36060500D01*
X35485500Y-36040500D01*
X35739500Y-36040500D01*
X35739500Y-36060500D01*
X36563750Y-36060500D01*
X36722500Y-35901750D01*
X36722500Y-35623691D01*
X36625827Y-35390302D01*
X36560557Y-35325031D01*
X36669005Y-35162727D01*
X36734940Y-34831250D01*
X36734940Y-34393750D01*
X36669005Y-34062273D01*
X36481239Y-33781261D01*
X36360000Y-33700252D01*
X36360000Y-32023250D01*
X38790000Y-32023250D01*
X38790000Y-32526309D01*
X38886673Y-32759698D01*
X39065301Y-32938327D01*
X39298690Y-33035000D01*
X40314250Y-33035000D01*
X40473000Y-32876250D01*
X40473000Y-31864500D01*
X38948750Y-31864500D01*
X38790000Y-32023250D01*
X36360000Y-32023250D01*
X36360000Y-31078896D01*
X36468739Y-31006239D01*
X36507191Y-30948691D01*
X38790000Y-30948691D01*
X38790000Y-31451750D01*
X38948750Y-31610500D01*
X40473000Y-31610500D01*
X40473000Y-30598750D01*
X40314250Y-30440000D01*
X39298690Y-30440000D01*
X39065301Y-30536673D01*
X38886673Y-30715302D01*
X38790000Y-30948691D01*
X36507191Y-30948691D01*
X36656505Y-30725227D01*
X36722440Y-30393750D01*
X36722440Y-29956250D01*
X36690863Y-29797500D01*
X39171986Y-29797500D01*
X39331564Y-29904127D01*
X39674999Y-29972440D01*
X41525001Y-29972440D01*
X41868436Y-29904127D01*
X42028014Y-29797500D01*
X42065001Y-29797500D01*
X42065001Y-30507803D01*
X41901310Y-30440000D01*
X40885750Y-30440000D01*
X40727000Y-30598750D01*
X40727000Y-31610500D01*
X40747000Y-31610500D01*
X40747000Y-31864500D01*
X40727000Y-31864500D01*
X40727000Y-32876250D01*
X40885750Y-33035000D01*
X41901310Y-33035000D01*
X42065000Y-32967197D01*
X42065000Y-33088217D01*
X42042765Y-33200000D01*
X42107921Y-33527560D01*
X42130854Y-33642854D01*
X42381711Y-34018289D01*
X42476481Y-34081612D01*
X43318391Y-34923523D01*
X43381711Y-35018289D01*
X43476476Y-35081609D01*
X43702560Y-35232673D01*
X43702560Y-35772638D01*
X32035199Y-47440000D01*
X30874848Y-47440000D01*
X30800000Y-47425112D01*
X30725152Y-47440000D01*
X30725148Y-47440000D01*
X30503463Y-47484096D01*
X30252071Y-47652071D01*
X30209671Y-47715527D01*
X28900529Y-49024670D01*
X28837070Y-49067072D01*
X28669095Y-49318465D01*
X28646401Y-49432554D01*
X28599418Y-49401161D01*
X28166256Y-49315000D01*
X27873744Y-49315000D01*
X27440582Y-49401161D01*
X26949375Y-49729375D01*
X26750000Y-50027761D01*
X26550625Y-49729375D01*
X26059418Y-49401161D01*
X25626256Y-49315000D01*
X25333744Y-49315000D01*
X24900582Y-49401161D01*
X24409375Y-49729375D01*
X24196157Y-50048478D01*
X24135183Y-49918642D01*
X23706924Y-49528355D01*
X23296890Y-49358524D01*
X23067000Y-49479845D01*
X23067000Y-50673000D01*
X23087000Y-50673000D01*
X23087000Y-50927000D01*
X23067000Y-50927000D01*
X23067000Y-50947000D01*
X22813000Y-50947000D01*
X22813000Y-50927000D01*
X21619181Y-50927000D01*
X21498514Y-51156892D01*
X21744817Y-51681358D01*
X22169786Y-52068647D01*
X21869375Y-52269375D01*
X21541161Y-52760582D01*
X21425908Y-53340000D01*
X17710000Y-53340000D01*
X17710000Y-50443108D01*
X21498514Y-50443108D01*
X21619181Y-50673000D01*
X22813000Y-50673000D01*
X22813000Y-49479845D01*
X22583110Y-49358524D01*
X22173076Y-49528355D01*
X21744817Y-49918642D01*
X21498514Y-50443108D01*
X17710000Y-50443108D01*
X17710000Y-41849940D01*
X20002500Y-41849940D01*
X20002500Y-45350060D01*
X20051783Y-45597825D01*
X20192131Y-45807869D01*
X20402175Y-45948217D01*
X20649940Y-45997500D01*
X24150060Y-45997500D01*
X24397825Y-45948217D01*
X24607869Y-45807869D01*
X24748217Y-45597825D01*
X24797500Y-45350060D01*
X24797500Y-41849940D01*
X24748217Y-41602175D01*
X24607869Y-41392131D01*
X24397825Y-41251783D01*
X24150060Y-41202500D01*
X20649940Y-41202500D01*
X20402175Y-41251783D01*
X20192131Y-41392131D01*
X20051783Y-41602175D01*
X20002500Y-41849940D01*
X17710000Y-41849940D01*
X17710000Y-40214571D01*
X20885034Y-40214571D01*
X21075328Y-40559319D01*
X21956576Y-40911015D01*
X22905332Y-40898701D01*
X23724672Y-40559319D01*
X23914966Y-40214571D01*
X22400000Y-38699605D01*
X20885034Y-40214571D01*
X17710000Y-40214571D01*
X17710000Y-38076576D01*
X20008985Y-38076576D01*
X20021299Y-39025332D01*
X20360681Y-39844672D01*
X20705429Y-40034966D01*
X22220395Y-38520000D01*
X22579605Y-38520000D01*
X24094571Y-40034966D01*
X24439319Y-39844672D01*
X24791015Y-38963424D01*
X24778701Y-38014668D01*
X24439319Y-37195328D01*
X24094571Y-37005034D01*
X22579605Y-38520000D01*
X22220395Y-38520000D01*
X20705429Y-37005034D01*
X20360681Y-37195328D01*
X20008985Y-38076576D01*
X17710000Y-38076576D01*
X17710000Y-36825429D01*
X20885034Y-36825429D01*
X22400000Y-38340395D01*
X23914966Y-36825429D01*
X23724672Y-36480681D01*
X23706053Y-36473250D01*
X34502500Y-36473250D01*
X34502500Y-36751309D01*
X34599173Y-36984698D01*
X34777801Y-37163327D01*
X35011190Y-37260000D01*
X35326750Y-37260000D01*
X35485500Y-37101250D01*
X35485500Y-36314500D01*
X35739500Y-36314500D01*
X35739500Y-37101250D01*
X35898250Y-37260000D01*
X36213810Y-37260000D01*
X36447199Y-37163327D01*
X36625827Y-36984698D01*
X36722500Y-36751309D01*
X36722500Y-36473250D01*
X36563750Y-36314500D01*
X35739500Y-36314500D01*
X35485500Y-36314500D01*
X34661250Y-36314500D01*
X34502500Y-36473250D01*
X23706053Y-36473250D01*
X22843424Y-36128985D01*
X21894668Y-36141299D01*
X21075328Y-36480681D01*
X20885034Y-36825429D01*
X17710000Y-36825429D01*
X17710000Y-24360750D01*
X22790000Y-24360750D01*
X22790000Y-24726310D01*
X22886673Y-24959699D01*
X23065302Y-25138327D01*
X23298691Y-25235000D01*
X24239250Y-25235000D01*
X24398000Y-25076250D01*
X24398000Y-24202000D01*
X24652000Y-24202000D01*
X24652000Y-25076250D01*
X24810750Y-25235000D01*
X25751309Y-25235000D01*
X25984698Y-25138327D01*
X26163327Y-24959699D01*
X26260000Y-24726310D01*
X26260000Y-24485750D01*
X40140000Y-24485750D01*
X40140000Y-24763809D01*
X40236673Y-24997198D01*
X40415301Y-25175827D01*
X40648690Y-25272500D01*
X40964250Y-25272500D01*
X41123000Y-25113750D01*
X41123000Y-24327000D01*
X41377000Y-24327000D01*
X41377000Y-25113750D01*
X41535750Y-25272500D01*
X41851310Y-25272500D01*
X42084699Y-25175827D01*
X42263327Y-24997198D01*
X42360000Y-24763809D01*
X42360000Y-24485750D01*
X42201250Y-24327000D01*
X41377000Y-24327000D01*
X41123000Y-24327000D01*
X40298750Y-24327000D01*
X40140000Y-24485750D01*
X26260000Y-24485750D01*
X26260000Y-24360750D01*
X26101250Y-24202000D01*
X24652000Y-24202000D01*
X24398000Y-24202000D01*
X22948750Y-24202000D01*
X22790000Y-24360750D01*
X17710000Y-24360750D01*
X17710000Y-23423690D01*
X22790000Y-23423690D01*
X22790000Y-23789250D01*
X22948750Y-23948000D01*
X24398000Y-23948000D01*
X24398000Y-23073750D01*
X24239250Y-22915000D01*
X23298691Y-22915000D01*
X23065302Y-23011673D01*
X22886673Y-23190301D01*
X22790000Y-23423690D01*
X17710000Y-23423690D01*
X17710000Y-21410750D01*
X22790000Y-21410750D01*
X22790000Y-21776310D01*
X22886673Y-22009699D01*
X23065302Y-22188327D01*
X23298691Y-22285000D01*
X24239250Y-22285000D01*
X24398000Y-22126250D01*
X24398000Y-21252000D01*
X24652000Y-21252000D01*
X24652000Y-22126250D01*
X24810750Y-22285000D01*
X24877560Y-22285000D01*
X24877560Y-22915000D01*
X24810750Y-22915000D01*
X24652000Y-23073750D01*
X24652000Y-23948000D01*
X26101250Y-23948000D01*
X26260000Y-23789250D01*
X26260000Y-23747440D01*
X26264342Y-23747440D01*
X26781564Y-24093036D01*
X27243897Y-24185000D01*
X32956103Y-24185000D01*
X33418436Y-24093036D01*
X33942721Y-23742721D01*
X33979733Y-23687329D01*
X34156250Y-23722440D01*
X34593750Y-23722440D01*
X34925227Y-23656505D01*
X34994827Y-23610000D01*
X36392673Y-23610000D01*
X36462273Y-23656505D01*
X36793750Y-23722440D01*
X37231250Y-23722440D01*
X37562727Y-23656505D01*
X37800000Y-23497964D01*
X38037273Y-23656505D01*
X38368750Y-23722440D01*
X38806250Y-23722440D01*
X39137727Y-23656505D01*
X39207327Y-23610000D01*
X40150849Y-23610000D01*
X40140000Y-23636191D01*
X40140000Y-23914250D01*
X40298750Y-24073000D01*
X41123000Y-24073000D01*
X41123000Y-24053000D01*
X41377000Y-24053000D01*
X41377000Y-24073000D01*
X42201250Y-24073000D01*
X42360000Y-23914250D01*
X42360000Y-23710000D01*
X43941975Y-23710000D01*
X43811673Y-23840301D01*
X43715000Y-24073690D01*
X43715000Y-24414250D01*
X43873750Y-24573000D01*
X45223000Y-24573000D01*
X45223000Y-24553000D01*
X45477000Y-24553000D01*
X45477000Y-24573000D01*
X46826250Y-24573000D01*
X46985000Y-24414250D01*
X46985000Y-24073690D01*
X60215000Y-24073690D01*
X60215000Y-24414250D01*
X60373750Y-24573000D01*
X61723000Y-24573000D01*
X61723000Y-23723750D01*
X61977000Y-23723750D01*
X61977000Y-24573000D01*
X63326250Y-24573000D01*
X63485000Y-24414250D01*
X63485000Y-24073690D01*
X63388327Y-23840301D01*
X63209698Y-23661673D01*
X62976309Y-23565000D01*
X62135750Y-23565000D01*
X61977000Y-23723750D01*
X61723000Y-23723750D01*
X61564250Y-23565000D01*
X60723691Y-23565000D01*
X60490302Y-23661673D01*
X60311673Y-23840301D01*
X60215000Y-24073690D01*
X46985000Y-24073690D01*
X46888327Y-23840301D01*
X46746680Y-23698655D01*
X46807809Y-23657809D01*
X46948157Y-23447765D01*
X46997440Y-23200000D01*
X46997440Y-22200000D01*
X46948157Y-21952235D01*
X46807809Y-21742191D01*
X46597765Y-21601843D01*
X46350000Y-21552560D01*
X44350000Y-21552560D01*
X44102235Y-21601843D01*
X43970300Y-21690000D01*
X41963450Y-21690000D01*
X41837727Y-21605995D01*
X41506250Y-21540060D01*
X40993750Y-21540060D01*
X40742685Y-21590000D01*
X39207327Y-21590000D01*
X39137727Y-21543495D01*
X38806250Y-21477560D01*
X38368750Y-21477560D01*
X38037273Y-21543495D01*
X37800000Y-21702036D01*
X37562727Y-21543495D01*
X37231250Y-21477560D01*
X36793750Y-21477560D01*
X36462273Y-21543495D01*
X36392673Y-21590000D01*
X34994827Y-21590000D01*
X34925227Y-21543495D01*
X34593750Y-21477560D01*
X34156250Y-21477560D01*
X33979733Y-21512671D01*
X33942721Y-21457279D01*
X33418436Y-21106964D01*
X32956103Y-21015000D01*
X27243897Y-21015000D01*
X26781564Y-21106964D01*
X26264342Y-21452560D01*
X26260000Y-21452560D01*
X26260000Y-21410750D01*
X26101250Y-21252000D01*
X24652000Y-21252000D01*
X24398000Y-21252000D01*
X22948750Y-21252000D01*
X22790000Y-21410750D01*
X17710000Y-21410750D01*
X17710000Y-20473690D01*
X22790000Y-20473690D01*
X22790000Y-20839250D01*
X22948750Y-20998000D01*
X24398000Y-20998000D01*
X24398000Y-20123750D01*
X24652000Y-20123750D01*
X24652000Y-20998000D01*
X26101250Y-20998000D01*
X26260000Y-20839250D01*
X26260000Y-20473690D01*
X26163327Y-20240301D01*
X25984698Y-20061673D01*
X25751309Y-19965000D01*
X24810750Y-19965000D01*
X24652000Y-20123750D01*
X24398000Y-20123750D01*
X24239250Y-19965000D01*
X23298691Y-19965000D01*
X23065302Y-20061673D01*
X22886673Y-20240301D01*
X22790000Y-20473690D01*
X17710000Y-20473690D01*
X17710000Y-17710000D01*
X76290000Y-17710000D01*
X76290001Y-56290000D01*
G36*
X61455002Y-48464807D02*
X61455002Y-49382593D01*
X61396890Y-49358524D01*
X61167000Y-49479845D01*
X61167000Y-50673000D01*
X61187000Y-50673000D01*
X61187000Y-50927000D01*
X61167000Y-50927000D01*
X61167000Y-50947000D01*
X60913000Y-50947000D01*
X60913000Y-50927000D01*
X60893000Y-50927000D01*
X60893000Y-50673000D01*
X60913000Y-50673000D01*
X60913000Y-49479845D01*
X60683110Y-49358524D01*
X60624999Y-49382593D01*
X60624999Y-47634803D01*
X61455002Y-48464807D01*
X61455002Y-48464807D01*
G37*
X61455002Y-48464807D02*
X61455002Y-49382593D01*
X61396890Y-49358524D01*
X61167000Y-49479845D01*
X61167000Y-50673000D01*
X61187000Y-50673000D01*
X61187000Y-50927000D01*
X61167000Y-50927000D01*
X61167000Y-50947000D01*
X60913000Y-50947000D01*
X60913000Y-50927000D01*
X60893000Y-50927000D01*
X60893000Y-50673000D01*
X60913000Y-50673000D01*
X60913000Y-49479845D01*
X60683110Y-49358524D01*
X60624999Y-49382593D01*
X60624999Y-47634803D01*
X61455002Y-48464807D01*
G36*
X47665001Y-35870133D02*
X47665000Y-47406136D01*
X47642765Y-47517919D01*
X47682072Y-47715528D01*
X47730854Y-47960773D01*
X47981711Y-48336208D01*
X48076482Y-48399532D01*
X49397664Y-49720715D01*
X48919418Y-49401161D01*
X48486256Y-49315000D01*
X48193744Y-49315000D01*
X47760582Y-49401161D01*
X47269375Y-49729375D01*
X47070000Y-50027761D01*
X46870625Y-49729375D01*
X46379418Y-49401161D01*
X45946256Y-49315000D01*
X45653744Y-49315000D01*
X45220582Y-49401161D01*
X44729375Y-49729375D01*
X44530000Y-50027761D01*
X44330625Y-49729375D01*
X43839418Y-49401161D01*
X43406256Y-49315000D01*
X43113744Y-49315000D01*
X42680582Y-49401161D01*
X42189375Y-49729375D01*
X41976157Y-50048478D01*
X41915183Y-49918642D01*
X41486924Y-49528355D01*
X41076890Y-49358524D01*
X40847000Y-49479845D01*
X40847000Y-50673000D01*
X40867000Y-50673000D01*
X40867000Y-50927000D01*
X40847000Y-50927000D01*
X40847000Y-50947000D01*
X40593000Y-50947000D01*
X40593000Y-50927000D01*
X40573000Y-50927000D01*
X40573000Y-50673000D01*
X40593000Y-50673000D01*
X40593000Y-49479845D01*
X40363110Y-49358524D01*
X39953076Y-49528355D01*
X39524817Y-49918642D01*
X39463843Y-50048478D01*
X39250625Y-49729375D01*
X38759418Y-49401161D01*
X38326256Y-49315000D01*
X38033744Y-49315000D01*
X37600582Y-49401161D01*
X37109375Y-49729375D01*
X36910000Y-50027761D01*
X36710625Y-49729375D01*
X36219418Y-49401161D01*
X35786256Y-49315000D01*
X35493744Y-49315000D01*
X35060582Y-49401161D01*
X34569375Y-49729375D01*
X34370000Y-50027761D01*
X34170625Y-49729375D01*
X33679418Y-49401161D01*
X33246256Y-49315000D01*
X32953744Y-49315000D01*
X32520582Y-49401161D01*
X32029375Y-49729375D01*
X31830000Y-50027761D01*
X31630625Y-49729375D01*
X31139418Y-49401161D01*
X30750918Y-49323884D01*
X31114802Y-48960000D01*
X32275153Y-48960000D01*
X32350000Y-48974888D01*
X32424847Y-48960000D01*
X32424852Y-48960000D01*
X32646537Y-48915904D01*
X32897929Y-48747929D01*
X32940331Y-48684470D01*
X43702560Y-37922242D01*
X43702560Y-38200000D01*
X43751843Y-38447765D01*
X43892191Y-38657809D01*
X43955334Y-38700000D01*
X43892191Y-38742191D01*
X43751843Y-38952235D01*
X43702560Y-39200000D01*
X43702560Y-40200000D01*
X43751843Y-40447765D01*
X43892191Y-40657809D01*
X43955334Y-40700000D01*
X43892191Y-40742191D01*
X43751843Y-40952235D01*
X43702560Y-41200000D01*
X43702560Y-42200000D01*
X43751843Y-42447765D01*
X43892191Y-42657809D01*
X43955334Y-42700000D01*
X43892191Y-42742191D01*
X43751843Y-42952235D01*
X43702560Y-43200000D01*
X43702560Y-44200000D01*
X43751843Y-44447765D01*
X43892191Y-44657809D01*
X43955334Y-44700000D01*
X43892191Y-44742191D01*
X43751843Y-44952235D01*
X43702560Y-45200000D01*
X43702560Y-46200000D01*
X43751843Y-46447765D01*
X43892191Y-46657809D01*
X44102235Y-46798157D01*
X44350000Y-46847440D01*
X46350000Y-46847440D01*
X46597765Y-46798157D01*
X46807809Y-46657809D01*
X46948157Y-46447765D01*
X46997440Y-46200000D01*
X46997440Y-45200000D01*
X46948157Y-44952235D01*
X46807809Y-44742191D01*
X46744666Y-44700000D01*
X46807809Y-44657809D01*
X46948157Y-44447765D01*
X46997440Y-44200000D01*
X46997440Y-43200000D01*
X46948157Y-42952235D01*
X46807809Y-42742191D01*
X46744666Y-42700000D01*
X46807809Y-42657809D01*
X46948157Y-42447765D01*
X46997440Y-42200000D01*
X46997440Y-41200000D01*
X46948157Y-40952235D01*
X46807809Y-40742191D01*
X46744666Y-40700000D01*
X46807809Y-40657809D01*
X46948157Y-40447765D01*
X46997440Y-40200000D01*
X46997440Y-39200000D01*
X46948157Y-38952235D01*
X46807809Y-38742191D01*
X46744666Y-38700000D01*
X46807809Y-38657809D01*
X46948157Y-38447765D01*
X46997440Y-38200000D01*
X46997440Y-37200000D01*
X46948157Y-36952235D01*
X46807809Y-36742191D01*
X46744666Y-36700000D01*
X46807809Y-36657809D01*
X46948157Y-36447765D01*
X46997440Y-36200000D01*
X46997440Y-35335000D01*
X47129869Y-35335000D01*
X47665001Y-35870133D01*
X47665001Y-35870133D01*
G37*
X47665001Y-35870133D02*
X47665000Y-47406136D01*
X47642765Y-47517919D01*
X47682072Y-47715528D01*
X47730854Y-47960773D01*
X47981711Y-48336208D01*
X48076482Y-48399532D01*
X49397664Y-49720715D01*
X48919418Y-49401161D01*
X48486256Y-49315000D01*
X48193744Y-49315000D01*
X47760582Y-49401161D01*
X47269375Y-49729375D01*
X47070000Y-50027761D01*
X46870625Y-49729375D01*
X46379418Y-49401161D01*
X45946256Y-49315000D01*
X45653744Y-49315000D01*
X45220582Y-49401161D01*
X44729375Y-49729375D01*
X44530000Y-50027761D01*
X44330625Y-49729375D01*
X43839418Y-49401161D01*
X43406256Y-49315000D01*
X43113744Y-49315000D01*
X42680582Y-49401161D01*
X42189375Y-49729375D01*
X41976157Y-50048478D01*
X41915183Y-49918642D01*
X41486924Y-49528355D01*
X41076890Y-49358524D01*
X40847000Y-49479845D01*
X40847000Y-50673000D01*
X40867000Y-50673000D01*
X40867000Y-50927000D01*
X40847000Y-50927000D01*
X40847000Y-50947000D01*
X40593000Y-50947000D01*
X40593000Y-50927000D01*
X40573000Y-50927000D01*
X40573000Y-50673000D01*
X40593000Y-50673000D01*
X40593000Y-49479845D01*
X40363110Y-49358524D01*
X39953076Y-49528355D01*
X39524817Y-49918642D01*
X39463843Y-50048478D01*
X39250625Y-49729375D01*
X38759418Y-49401161D01*
X38326256Y-49315000D01*
X38033744Y-49315000D01*
X37600582Y-49401161D01*
X37109375Y-49729375D01*
X36910000Y-50027761D01*
X36710625Y-49729375D01*
X36219418Y-49401161D01*
X35786256Y-49315000D01*
X35493744Y-49315000D01*
X35060582Y-49401161D01*
X34569375Y-49729375D01*
X34370000Y-50027761D01*
X34170625Y-49729375D01*
X33679418Y-49401161D01*
X33246256Y-49315000D01*
X32953744Y-49315000D01*
X32520582Y-49401161D01*
X32029375Y-49729375D01*
X31830000Y-50027761D01*
X31630625Y-49729375D01*
X31139418Y-49401161D01*
X30750918Y-49323884D01*
X31114802Y-48960000D01*
X32275153Y-48960000D01*
X32350000Y-48974888D01*
X32424847Y-48960000D01*
X32424852Y-48960000D01*
X32646537Y-48915904D01*
X32897929Y-48747929D01*
X32940331Y-48684470D01*
X43702560Y-37922242D01*
X43702560Y-38200000D01*
X43751843Y-38447765D01*
X43892191Y-38657809D01*
X43955334Y-38700000D01*
X43892191Y-38742191D01*
X43751843Y-38952235D01*
X43702560Y-39200000D01*
X43702560Y-40200000D01*
X43751843Y-40447765D01*
X43892191Y-40657809D01*
X43955334Y-40700000D01*
X43892191Y-40742191D01*
X43751843Y-40952235D01*
X43702560Y-41200000D01*
X43702560Y-42200000D01*
X43751843Y-42447765D01*
X43892191Y-42657809D01*
X43955334Y-42700000D01*
X43892191Y-42742191D01*
X43751843Y-42952235D01*
X43702560Y-43200000D01*
X43702560Y-44200000D01*
X43751843Y-44447765D01*
X43892191Y-44657809D01*
X43955334Y-44700000D01*
X43892191Y-44742191D01*
X43751843Y-44952235D01*
X43702560Y-45200000D01*
X43702560Y-46200000D01*
X43751843Y-46447765D01*
X43892191Y-46657809D01*
X44102235Y-46798157D01*
X44350000Y-46847440D01*
X46350000Y-46847440D01*
X46597765Y-46798157D01*
X46807809Y-46657809D01*
X46948157Y-46447765D01*
X46997440Y-46200000D01*
X46997440Y-45200000D01*
X46948157Y-44952235D01*
X46807809Y-44742191D01*
X46744666Y-44700000D01*
X46807809Y-44657809D01*
X46948157Y-44447765D01*
X46997440Y-44200000D01*
X46997440Y-43200000D01*
X46948157Y-42952235D01*
X46807809Y-42742191D01*
X46744666Y-42700000D01*
X46807809Y-42657809D01*
X46948157Y-42447765D01*
X46997440Y-42200000D01*
X46997440Y-41200000D01*
X46948157Y-40952235D01*
X46807809Y-40742191D01*
X46744666Y-40700000D01*
X46807809Y-40657809D01*
X46948157Y-40447765D01*
X46997440Y-40200000D01*
X46997440Y-39200000D01*
X46948157Y-38952235D01*
X46807809Y-38742191D01*
X46744666Y-38700000D01*
X46807809Y-38657809D01*
X46948157Y-38447765D01*
X46997440Y-38200000D01*
X46997440Y-37200000D01*
X46948157Y-36952235D01*
X46807809Y-36742191D01*
X46744666Y-36700000D01*
X46807809Y-36657809D01*
X46948157Y-36447765D01*
X46997440Y-36200000D01*
X46997440Y-35335000D01*
X47129869Y-35335000D01*
X47665001Y-35870133D01*
G04 #@! TD*
M02*
