G04 #@! TF.GenerationSoftware,KiCad,Pcbnew,(5.0.1-3-g963ef8bb5)*
G04 #@! TF.CreationDate,2018-11-19T18:06:17+01:00*
G04 #@! TF.ProjectId,wmbus_pihat,776D6275735F70696861742E6B696361,0.1*
G04 #@! TF.SameCoordinates,Original*
G04 #@! TF.FileFunction,Legend,Top*
G04 #@! TF.FilePolarity,Positive*
%FSLAX46Y46*%
G04 Gerber Fmt 4.6, Leading zero omitted, Abs format (unit mm)*
G04 Created by KiCad (PCBNEW (5.0.1-3-g963ef8bb5)) date Monday 19 November 2018 at 18:06:17*
%MOMM*%
%LPD*%
G01*
G04 APERTURE LIST*
%ADD10C,0.150000*%
%ADD11C,0.120000*%
G04 APERTURE END LIST*
D10*
G04 #@! TO.C,U1*
X53600000Y-20700000D02*
X62100000Y-20700000D01*
X62100000Y-20700000D02*
X62100000Y-47700000D01*
X62100000Y-47700000D02*
X45100000Y-47700000D01*
X45100000Y-47700000D02*
X45100000Y-20700000D01*
X45100000Y-20700000D02*
X53600000Y-20700000D01*
D11*
G04 #@! TO.C,C1*
X33750279Y-22090000D02*
X33424721Y-22090000D01*
X33750279Y-23110000D02*
X33424721Y-23110000D01*
G04 #@! TO.C,C2*
X42110000Y-31950000D02*
X42110000Y-27740000D01*
X42110000Y-27740000D02*
X39090000Y-27740000D01*
X39090000Y-27740000D02*
X39090000Y-31950000D01*
G04 #@! TO.C,C3*
X41760000Y-23249721D02*
X41760000Y-23575279D01*
X40740000Y-23249721D02*
X40740000Y-23575279D01*
G04 #@! TO.C,C4*
X67624721Y-35510000D02*
X67950279Y-35510000D01*
X67624721Y-34490000D02*
X67950279Y-34490000D01*
G04 #@! TO.C,D1*
X35090000Y-29550279D02*
X35090000Y-29224721D01*
X36110000Y-29550279D02*
X36110000Y-29224721D01*
G04 #@! TO.C,D2*
X67962779Y-27110000D02*
X67637221Y-27110000D01*
X67962779Y-26090000D02*
X67637221Y-26090000D01*
G04 #@! TO.C,D3*
X67962779Y-30290000D02*
X67637221Y-30290000D01*
X67962779Y-31310000D02*
X67637221Y-31310000D01*
G04 #@! TO.C,J1*
X23165000Y-23950000D02*
X23165000Y-21250000D01*
X25885000Y-23360000D02*
X26515000Y-23360000D01*
X25885000Y-21200000D02*
X25885000Y-21840000D01*
X25885000Y-24000000D02*
X25885000Y-23360000D01*
G04 #@! TO.C,L1*
X37962779Y-23110000D02*
X37637221Y-23110000D01*
X37962779Y-22090000D02*
X37637221Y-22090000D01*
G04 #@! TO.C,R1*
X36122500Y-35237221D02*
X36122500Y-35562779D01*
X35102500Y-35237221D02*
X35102500Y-35562779D01*
G04 #@! TO.C,R2*
X73437221Y-26090000D02*
X73762779Y-26090000D01*
X73437221Y-27110000D02*
X73762779Y-27110000D01*
G04 #@! TO.C,R3*
X73437221Y-31310000D02*
X73762779Y-31310000D01*
X73437221Y-30290000D02*
X73762779Y-30290000D01*
G04 #@! TO.C,R4*
X75310000Y-48775279D02*
X75310000Y-48449721D01*
X74290000Y-48775279D02*
X74290000Y-48449721D01*
G04 #@! TO.C,SW1*
X74030000Y-38770000D02*
X74030000Y-38800000D01*
X74030000Y-45230000D02*
X74030000Y-45200000D01*
X67570000Y-45230000D02*
X67570000Y-45200000D01*
X67570000Y-38800000D02*
X67570000Y-38770000D01*
X74030000Y-40700000D02*
X74030000Y-43300000D01*
X67570000Y-38770000D02*
X74030000Y-38770000D01*
X67570000Y-40700000D02*
X67570000Y-43300000D01*
X67570000Y-45230000D02*
X74030000Y-45230000D01*
G04 #@! TO.C,J3*
X21610000Y-49470000D02*
X21610000Y-54670000D01*
X69930000Y-49470000D02*
X21610000Y-49470000D01*
X72530000Y-54670000D02*
X21610000Y-54670000D01*
X69930000Y-49470000D02*
X69930000Y-52070000D01*
X69930000Y-52070000D02*
X72530000Y-52070000D01*
X72530000Y-52070000D02*
X72530000Y-54670000D01*
X71200000Y-49470000D02*
X72530000Y-49470000D01*
X72530000Y-49470000D02*
X72530000Y-50800000D01*
G04 #@! TO.C,U1*
D10*
X52838095Y-48152380D02*
X52838095Y-48961904D01*
X52885714Y-49057142D01*
X52933333Y-49104761D01*
X53028571Y-49152380D01*
X53219047Y-49152380D01*
X53314285Y-49104761D01*
X53361904Y-49057142D01*
X53409523Y-48961904D01*
X53409523Y-48152380D01*
X54409523Y-49152380D02*
X53838095Y-49152380D01*
X54123809Y-49152380D02*
X54123809Y-48152380D01*
X54028571Y-48295238D01*
X53933333Y-48390476D01*
X53838095Y-48438095D01*
G04 #@! TO.C,C1*
X33420833Y-24387142D02*
X33373214Y-24434761D01*
X33230357Y-24482380D01*
X33135119Y-24482380D01*
X32992261Y-24434761D01*
X32897023Y-24339523D01*
X32849404Y-24244285D01*
X32801785Y-24053809D01*
X32801785Y-23910952D01*
X32849404Y-23720476D01*
X32897023Y-23625238D01*
X32992261Y-23530000D01*
X33135119Y-23482380D01*
X33230357Y-23482380D01*
X33373214Y-23530000D01*
X33420833Y-23577619D01*
X34373214Y-24482380D02*
X33801785Y-24482380D01*
X34087500Y-24482380D02*
X34087500Y-23482380D01*
X33992261Y-23625238D01*
X33897023Y-23720476D01*
X33801785Y-23768095D01*
G04 #@! TO.C,C2*
X40433333Y-33894642D02*
X40385714Y-33942261D01*
X40242857Y-33989880D01*
X40147619Y-33989880D01*
X40004761Y-33942261D01*
X39909523Y-33847023D01*
X39861904Y-33751785D01*
X39814285Y-33561309D01*
X39814285Y-33418452D01*
X39861904Y-33227976D01*
X39909523Y-33132738D01*
X40004761Y-33037500D01*
X40147619Y-32989880D01*
X40242857Y-32989880D01*
X40385714Y-33037500D01*
X40433333Y-33085119D01*
X40814285Y-33085119D02*
X40861904Y-33037500D01*
X40957142Y-32989880D01*
X41195238Y-32989880D01*
X41290476Y-33037500D01*
X41338095Y-33085119D01*
X41385714Y-33180357D01*
X41385714Y-33275595D01*
X41338095Y-33418452D01*
X40766666Y-33989880D01*
X41385714Y-33989880D01*
G04 #@! TO.C,C3*
X41033333Y-21357142D02*
X40985714Y-21404761D01*
X40842857Y-21452380D01*
X40747619Y-21452380D01*
X40604761Y-21404761D01*
X40509523Y-21309523D01*
X40461904Y-21214285D01*
X40414285Y-21023809D01*
X40414285Y-20880952D01*
X40461904Y-20690476D01*
X40509523Y-20595238D01*
X40604761Y-20500000D01*
X40747619Y-20452380D01*
X40842857Y-20452380D01*
X40985714Y-20500000D01*
X41033333Y-20547619D01*
X41366666Y-20452380D02*
X41985714Y-20452380D01*
X41652380Y-20833333D01*
X41795238Y-20833333D01*
X41890476Y-20880952D01*
X41938095Y-20928571D01*
X41985714Y-21023809D01*
X41985714Y-21261904D01*
X41938095Y-21357142D01*
X41890476Y-21404761D01*
X41795238Y-21452380D01*
X41509523Y-21452380D01*
X41414285Y-21404761D01*
X41366666Y-21357142D01*
G04 #@! TO.C,C4*
X67620833Y-33927142D02*
X67573214Y-33974761D01*
X67430357Y-34022380D01*
X67335119Y-34022380D01*
X67192261Y-33974761D01*
X67097023Y-33879523D01*
X67049404Y-33784285D01*
X67001785Y-33593809D01*
X67001785Y-33450952D01*
X67049404Y-33260476D01*
X67097023Y-33165238D01*
X67192261Y-33070000D01*
X67335119Y-33022380D01*
X67430357Y-33022380D01*
X67573214Y-33070000D01*
X67620833Y-33117619D01*
X68477976Y-33355714D02*
X68477976Y-34022380D01*
X68239880Y-32974761D02*
X68001785Y-33689047D01*
X68620833Y-33689047D01*
G04 #@! TO.C,D1*
X34861904Y-27452380D02*
X34861904Y-26452380D01*
X35100000Y-26452380D01*
X35242857Y-26500000D01*
X35338095Y-26595238D01*
X35385714Y-26690476D01*
X35433333Y-26880952D01*
X35433333Y-27023809D01*
X35385714Y-27214285D01*
X35338095Y-27309523D01*
X35242857Y-27404761D01*
X35100000Y-27452380D01*
X34861904Y-27452380D01*
X36385714Y-27452380D02*
X35814285Y-27452380D01*
X36100000Y-27452380D02*
X36100000Y-26452380D01*
X36004761Y-26595238D01*
X35909523Y-26690476D01*
X35814285Y-26738095D01*
G04 #@! TO.C,D2*
X67061904Y-28482380D02*
X67061904Y-27482380D01*
X67300000Y-27482380D01*
X67442857Y-27530000D01*
X67538095Y-27625238D01*
X67585714Y-27720476D01*
X67633333Y-27910952D01*
X67633333Y-28053809D01*
X67585714Y-28244285D01*
X67538095Y-28339523D01*
X67442857Y-28434761D01*
X67300000Y-28482380D01*
X67061904Y-28482380D01*
X68014285Y-27577619D02*
X68061904Y-27530000D01*
X68157142Y-27482380D01*
X68395238Y-27482380D01*
X68490476Y-27530000D01*
X68538095Y-27577619D01*
X68585714Y-27672857D01*
X68585714Y-27768095D01*
X68538095Y-27910952D01*
X67966666Y-28482380D01*
X68585714Y-28482380D01*
G04 #@! TO.C,D3*
X67061904Y-32682380D02*
X67061904Y-31682380D01*
X67300000Y-31682380D01*
X67442857Y-31730000D01*
X67538095Y-31825238D01*
X67585714Y-31920476D01*
X67633333Y-32110952D01*
X67633333Y-32253809D01*
X67585714Y-32444285D01*
X67538095Y-32539523D01*
X67442857Y-32634761D01*
X67300000Y-32682380D01*
X67061904Y-32682380D01*
X67966666Y-31682380D02*
X68585714Y-31682380D01*
X68252380Y-32063333D01*
X68395238Y-32063333D01*
X68490476Y-32110952D01*
X68538095Y-32158571D01*
X68585714Y-32253809D01*
X68585714Y-32491904D01*
X68538095Y-32587142D01*
X68490476Y-32634761D01*
X68395238Y-32682380D01*
X68109523Y-32682380D01*
X68014285Y-32634761D01*
X67966666Y-32587142D01*
G04 #@! TO.C,J1*
X24266666Y-18852380D02*
X24266666Y-19566666D01*
X24219047Y-19709523D01*
X24123809Y-19804761D01*
X23980952Y-19852380D01*
X23885714Y-19852380D01*
X25266666Y-19852380D02*
X24695238Y-19852380D01*
X24980952Y-19852380D02*
X24980952Y-18852380D01*
X24885714Y-18995238D01*
X24790476Y-19090476D01*
X24695238Y-19138095D01*
G04 #@! TO.C,L1*
X37633333Y-24482380D02*
X37157142Y-24482380D01*
X37157142Y-23482380D01*
X38490476Y-24482380D02*
X37919047Y-24482380D01*
X38204761Y-24482380D02*
X38204761Y-23482380D01*
X38109523Y-23625238D01*
X38014285Y-23720476D01*
X37919047Y-23768095D01*
G04 #@! TO.C,R1*
X35433333Y-38252380D02*
X35100000Y-37776190D01*
X34861904Y-38252380D02*
X34861904Y-37252380D01*
X35242857Y-37252380D01*
X35338095Y-37300000D01*
X35385714Y-37347619D01*
X35433333Y-37442857D01*
X35433333Y-37585714D01*
X35385714Y-37680952D01*
X35338095Y-37728571D01*
X35242857Y-37776190D01*
X34861904Y-37776190D01*
X36385714Y-38252380D02*
X35814285Y-38252380D01*
X36100000Y-38252380D02*
X36100000Y-37252380D01*
X36004761Y-37395238D01*
X35909523Y-37490476D01*
X35814285Y-37538095D01*
G04 #@! TO.C,R2*
X73433333Y-25622380D02*
X73100000Y-25146190D01*
X72861904Y-25622380D02*
X72861904Y-24622380D01*
X73242857Y-24622380D01*
X73338095Y-24670000D01*
X73385714Y-24717619D01*
X73433333Y-24812857D01*
X73433333Y-24955714D01*
X73385714Y-25050952D01*
X73338095Y-25098571D01*
X73242857Y-25146190D01*
X72861904Y-25146190D01*
X73814285Y-24717619D02*
X73861904Y-24670000D01*
X73957142Y-24622380D01*
X74195238Y-24622380D01*
X74290476Y-24670000D01*
X74338095Y-24717619D01*
X74385714Y-24812857D01*
X74385714Y-24908095D01*
X74338095Y-25050952D01*
X73766666Y-25622380D01*
X74385714Y-25622380D01*
G04 #@! TO.C,R3*
X73433333Y-29822380D02*
X73100000Y-29346190D01*
X72861904Y-29822380D02*
X72861904Y-28822380D01*
X73242857Y-28822380D01*
X73338095Y-28870000D01*
X73385714Y-28917619D01*
X73433333Y-29012857D01*
X73433333Y-29155714D01*
X73385714Y-29250952D01*
X73338095Y-29298571D01*
X73242857Y-29346190D01*
X72861904Y-29346190D01*
X73766666Y-28822380D02*
X74385714Y-28822380D01*
X74052380Y-29203333D01*
X74195238Y-29203333D01*
X74290476Y-29250952D01*
X74338095Y-29298571D01*
X74385714Y-29393809D01*
X74385714Y-29631904D01*
X74338095Y-29727142D01*
X74290476Y-29774761D01*
X74195238Y-29822380D01*
X73909523Y-29822380D01*
X73814285Y-29774761D01*
X73766666Y-29727142D01*
G04 #@! TO.C,R4*
X74633333Y-46852380D02*
X74300000Y-46376190D01*
X74061904Y-46852380D02*
X74061904Y-45852380D01*
X74442857Y-45852380D01*
X74538095Y-45900000D01*
X74585714Y-45947619D01*
X74633333Y-46042857D01*
X74633333Y-46185714D01*
X74585714Y-46280952D01*
X74538095Y-46328571D01*
X74442857Y-46376190D01*
X74061904Y-46376190D01*
X75490476Y-46185714D02*
X75490476Y-46852380D01*
X75252380Y-45804761D02*
X75014285Y-46519047D01*
X75633333Y-46519047D01*
G04 #@! TO.C,SW1*
X69466666Y-38354761D02*
X69609523Y-38402380D01*
X69847619Y-38402380D01*
X69942857Y-38354761D01*
X69990476Y-38307142D01*
X70038095Y-38211904D01*
X70038095Y-38116666D01*
X69990476Y-38021428D01*
X69942857Y-37973809D01*
X69847619Y-37926190D01*
X69657142Y-37878571D01*
X69561904Y-37830952D01*
X69514285Y-37783333D01*
X69466666Y-37688095D01*
X69466666Y-37592857D01*
X69514285Y-37497619D01*
X69561904Y-37450000D01*
X69657142Y-37402380D01*
X69895238Y-37402380D01*
X70038095Y-37450000D01*
X70371428Y-37402380D02*
X70609523Y-38402380D01*
X70800000Y-37688095D01*
X70990476Y-38402380D01*
X71228571Y-37402380D01*
X72133333Y-38402380D02*
X71561904Y-38402380D01*
X71847619Y-38402380D02*
X71847619Y-37402380D01*
X71752380Y-37545238D01*
X71657142Y-37640476D01*
X71561904Y-37688095D01*
G04 #@! TO.C,J2*
X18042380Y-41393333D02*
X18756666Y-41393333D01*
X18899523Y-41440952D01*
X18994761Y-41536190D01*
X19042380Y-41679047D01*
X19042380Y-41774285D01*
X18137619Y-40964761D02*
X18090000Y-40917142D01*
X18042380Y-40821904D01*
X18042380Y-40583809D01*
X18090000Y-40488571D01*
X18137619Y-40440952D01*
X18232857Y-40393333D01*
X18328095Y-40393333D01*
X18470952Y-40440952D01*
X19042380Y-41012380D01*
X19042380Y-40393333D01*
G04 #@! TO.C,J3*
X73666666Y-51522380D02*
X73666666Y-52236666D01*
X73619047Y-52379523D01*
X73523809Y-52474761D01*
X73380952Y-52522380D01*
X73285714Y-52522380D01*
X74047619Y-51522380D02*
X74666666Y-51522380D01*
X74333333Y-51903333D01*
X74476190Y-51903333D01*
X74571428Y-51950952D01*
X74619047Y-51998571D01*
X74666666Y-52093809D01*
X74666666Y-52331904D01*
X74619047Y-52427142D01*
X74571428Y-52474761D01*
X74476190Y-52522380D01*
X74190476Y-52522380D01*
X74095238Y-52474761D01*
X74047619Y-52427142D01*
G04 #@! TD*
M02*
