M48
;DRILL file {KiCad 5.0.2+dfsg1-1~bpo9+1} date Thu 21 Mar 2019 14:18:51 CET
;FORMAT={-:-/ absolute / inch / decimal}
FMAT,2
INCH,TZ
T1C0.0394
T2C0.0591
%
G90
G05
T1
X0.9031Y-2.
X0.9031Y-2.1
X1.0031Y-2.
X1.0031Y-2.1
X1.1031Y-2.
X1.1031Y-2.1
X1.2031Y-2.
X1.2031Y-2.1
X1.3031Y-2.
X1.3031Y-2.1
X1.4031Y-2.
X1.4031Y-2.1
X1.5031Y-2.
X1.5031Y-2.1
X1.6031Y-2.
X1.6031Y-2.1
X1.7031Y-2.
X1.7031Y-2.1
X1.8031Y-2.
X1.8031Y-2.1
X1.9031Y-2.
X1.9031Y-2.1
X2.0031Y-2.
X2.0031Y-2.1
X2.1031Y-2.
X2.1031Y-2.1
X2.2031Y-2.
X2.2031Y-2.1
X2.3031Y-2.
X2.3031Y-2.1
X2.4031Y-2.
X2.4031Y-2.1
X2.5031Y-2.
X2.5031Y-2.1
X2.6031Y-2.
X2.6031Y-2.1
X2.7031Y-2.
X2.7031Y-2.1
X2.8031Y-2.
X2.8031Y-2.1
T2
X0.8819Y-1.5165
X0.8819Y-1.7165
T0
M30
