G04 #@! TF.GenerationSoftware,KiCad,Pcbnew,(5.0.1-3-g963ef8bb5)*
G04 #@! TF.CreationDate,2018-11-19T18:06:17+01:00*
G04 #@! TF.ProjectId,wmbus_pihat,776D6275735F70696861742E6B696361,0.1*
G04 #@! TF.SameCoordinates,Original*
G04 #@! TF.FileFunction,Soldermask,Bot*
G04 #@! TF.FilePolarity,Negative*
%FSLAX46Y46*%
G04 Gerber Fmt 4.6, Leading zero omitted, Abs format (unit mm)*
G04 Created by KiCad (PCBNEW (5.0.1-3-g963ef8bb5)) date Monday 19 November 2018 at 18:06:17*
%MOMM*%
%LPD*%
G01*
G04 APERTURE LIST*
%ADD10C,0.100000*%
G04 APERTURE END LIST*
D10*
G36*
X71310443Y-52445519D02*
X71376627Y-52452037D01*
X71489853Y-52486384D01*
X71546467Y-52503557D01*
X71685087Y-52577652D01*
X71702991Y-52587222D01*
X71738729Y-52616552D01*
X71840186Y-52699814D01*
X71923448Y-52801271D01*
X71952778Y-52837009D01*
X71952779Y-52837011D01*
X72036443Y-52993533D01*
X72036443Y-52993534D01*
X72087963Y-53163373D01*
X72105359Y-53340000D01*
X72087963Y-53516627D01*
X72053616Y-53629853D01*
X72036443Y-53686467D01*
X71962348Y-53825087D01*
X71952778Y-53842991D01*
X71923448Y-53878729D01*
X71840186Y-53980186D01*
X71738729Y-54063448D01*
X71702991Y-54092778D01*
X71702989Y-54092779D01*
X71546467Y-54176443D01*
X71489853Y-54193616D01*
X71376627Y-54227963D01*
X71310442Y-54234482D01*
X71244260Y-54241000D01*
X71155740Y-54241000D01*
X71089558Y-54234482D01*
X71023373Y-54227963D01*
X70910147Y-54193616D01*
X70853533Y-54176443D01*
X70697011Y-54092779D01*
X70697009Y-54092778D01*
X70661271Y-54063448D01*
X70559814Y-53980186D01*
X70476552Y-53878729D01*
X70447222Y-53842991D01*
X70437652Y-53825087D01*
X70363557Y-53686467D01*
X70346384Y-53629853D01*
X70312037Y-53516627D01*
X70294641Y-53340000D01*
X70312037Y-53163373D01*
X70363557Y-52993534D01*
X70363557Y-52993533D01*
X70447221Y-52837011D01*
X70447222Y-52837009D01*
X70476552Y-52801271D01*
X70559814Y-52699814D01*
X70661271Y-52616552D01*
X70697009Y-52587222D01*
X70714913Y-52577652D01*
X70853533Y-52503557D01*
X70910147Y-52486384D01*
X71023373Y-52452037D01*
X71089558Y-52445518D01*
X71155740Y-52439000D01*
X71244260Y-52439000D01*
X71310443Y-52445519D01*
X71310443Y-52445519D01*
G37*
G36*
X68770443Y-52445519D02*
X68836627Y-52452037D01*
X68949853Y-52486384D01*
X69006467Y-52503557D01*
X69145087Y-52577652D01*
X69162991Y-52587222D01*
X69198729Y-52616552D01*
X69300186Y-52699814D01*
X69383448Y-52801271D01*
X69412778Y-52837009D01*
X69412779Y-52837011D01*
X69496443Y-52993533D01*
X69496443Y-52993534D01*
X69547963Y-53163373D01*
X69565359Y-53340000D01*
X69547963Y-53516627D01*
X69513616Y-53629853D01*
X69496443Y-53686467D01*
X69422348Y-53825087D01*
X69412778Y-53842991D01*
X69383448Y-53878729D01*
X69300186Y-53980186D01*
X69198729Y-54063448D01*
X69162991Y-54092778D01*
X69162989Y-54092779D01*
X69006467Y-54176443D01*
X68949853Y-54193616D01*
X68836627Y-54227963D01*
X68770442Y-54234482D01*
X68704260Y-54241000D01*
X68615740Y-54241000D01*
X68549558Y-54234482D01*
X68483373Y-54227963D01*
X68370147Y-54193616D01*
X68313533Y-54176443D01*
X68157011Y-54092779D01*
X68157009Y-54092778D01*
X68121271Y-54063448D01*
X68019814Y-53980186D01*
X67936552Y-53878729D01*
X67907222Y-53842991D01*
X67897652Y-53825087D01*
X67823557Y-53686467D01*
X67806384Y-53629853D01*
X67772037Y-53516627D01*
X67754641Y-53340000D01*
X67772037Y-53163373D01*
X67823557Y-52993534D01*
X67823557Y-52993533D01*
X67907221Y-52837011D01*
X67907222Y-52837009D01*
X67936552Y-52801271D01*
X68019814Y-52699814D01*
X68121271Y-52616552D01*
X68157009Y-52587222D01*
X68174913Y-52577652D01*
X68313533Y-52503557D01*
X68370147Y-52486384D01*
X68483373Y-52452037D01*
X68549558Y-52445518D01*
X68615740Y-52439000D01*
X68704260Y-52439000D01*
X68770443Y-52445519D01*
X68770443Y-52445519D01*
G37*
G36*
X66230443Y-52445519D02*
X66296627Y-52452037D01*
X66409853Y-52486384D01*
X66466467Y-52503557D01*
X66605087Y-52577652D01*
X66622991Y-52587222D01*
X66658729Y-52616552D01*
X66760186Y-52699814D01*
X66843448Y-52801271D01*
X66872778Y-52837009D01*
X66872779Y-52837011D01*
X66956443Y-52993533D01*
X66956443Y-52993534D01*
X67007963Y-53163373D01*
X67025359Y-53340000D01*
X67007963Y-53516627D01*
X66973616Y-53629853D01*
X66956443Y-53686467D01*
X66882348Y-53825087D01*
X66872778Y-53842991D01*
X66843448Y-53878729D01*
X66760186Y-53980186D01*
X66658729Y-54063448D01*
X66622991Y-54092778D01*
X66622989Y-54092779D01*
X66466467Y-54176443D01*
X66409853Y-54193616D01*
X66296627Y-54227963D01*
X66230442Y-54234482D01*
X66164260Y-54241000D01*
X66075740Y-54241000D01*
X66009558Y-54234482D01*
X65943373Y-54227963D01*
X65830147Y-54193616D01*
X65773533Y-54176443D01*
X65617011Y-54092779D01*
X65617009Y-54092778D01*
X65581271Y-54063448D01*
X65479814Y-53980186D01*
X65396552Y-53878729D01*
X65367222Y-53842991D01*
X65357652Y-53825087D01*
X65283557Y-53686467D01*
X65266384Y-53629853D01*
X65232037Y-53516627D01*
X65214641Y-53340000D01*
X65232037Y-53163373D01*
X65283557Y-52993534D01*
X65283557Y-52993533D01*
X65367221Y-52837011D01*
X65367222Y-52837009D01*
X65396552Y-52801271D01*
X65479814Y-52699814D01*
X65581271Y-52616552D01*
X65617009Y-52587222D01*
X65634913Y-52577652D01*
X65773533Y-52503557D01*
X65830147Y-52486384D01*
X65943373Y-52452037D01*
X66009558Y-52445518D01*
X66075740Y-52439000D01*
X66164260Y-52439000D01*
X66230443Y-52445519D01*
X66230443Y-52445519D01*
G37*
G36*
X63690443Y-52445519D02*
X63756627Y-52452037D01*
X63869853Y-52486384D01*
X63926467Y-52503557D01*
X64065087Y-52577652D01*
X64082991Y-52587222D01*
X64118729Y-52616552D01*
X64220186Y-52699814D01*
X64303448Y-52801271D01*
X64332778Y-52837009D01*
X64332779Y-52837011D01*
X64416443Y-52993533D01*
X64416443Y-52993534D01*
X64467963Y-53163373D01*
X64485359Y-53340000D01*
X64467963Y-53516627D01*
X64433616Y-53629853D01*
X64416443Y-53686467D01*
X64342348Y-53825087D01*
X64332778Y-53842991D01*
X64303448Y-53878729D01*
X64220186Y-53980186D01*
X64118729Y-54063448D01*
X64082991Y-54092778D01*
X64082989Y-54092779D01*
X63926467Y-54176443D01*
X63869853Y-54193616D01*
X63756627Y-54227963D01*
X63690442Y-54234482D01*
X63624260Y-54241000D01*
X63535740Y-54241000D01*
X63469558Y-54234482D01*
X63403373Y-54227963D01*
X63290147Y-54193616D01*
X63233533Y-54176443D01*
X63077011Y-54092779D01*
X63077009Y-54092778D01*
X63041271Y-54063448D01*
X62939814Y-53980186D01*
X62856552Y-53878729D01*
X62827222Y-53842991D01*
X62817652Y-53825087D01*
X62743557Y-53686467D01*
X62726384Y-53629853D01*
X62692037Y-53516627D01*
X62674641Y-53340000D01*
X62692037Y-53163373D01*
X62743557Y-52993534D01*
X62743557Y-52993533D01*
X62827221Y-52837011D01*
X62827222Y-52837009D01*
X62856552Y-52801271D01*
X62939814Y-52699814D01*
X63041271Y-52616552D01*
X63077009Y-52587222D01*
X63094913Y-52577652D01*
X63233533Y-52503557D01*
X63290147Y-52486384D01*
X63403373Y-52452037D01*
X63469558Y-52445518D01*
X63535740Y-52439000D01*
X63624260Y-52439000D01*
X63690443Y-52445519D01*
X63690443Y-52445519D01*
G37*
G36*
X61150443Y-52445519D02*
X61216627Y-52452037D01*
X61329853Y-52486384D01*
X61386467Y-52503557D01*
X61525087Y-52577652D01*
X61542991Y-52587222D01*
X61578729Y-52616552D01*
X61680186Y-52699814D01*
X61763448Y-52801271D01*
X61792778Y-52837009D01*
X61792779Y-52837011D01*
X61876443Y-52993533D01*
X61876443Y-52993534D01*
X61927963Y-53163373D01*
X61945359Y-53340000D01*
X61927963Y-53516627D01*
X61893616Y-53629853D01*
X61876443Y-53686467D01*
X61802348Y-53825087D01*
X61792778Y-53842991D01*
X61763448Y-53878729D01*
X61680186Y-53980186D01*
X61578729Y-54063448D01*
X61542991Y-54092778D01*
X61542989Y-54092779D01*
X61386467Y-54176443D01*
X61329853Y-54193616D01*
X61216627Y-54227963D01*
X61150442Y-54234482D01*
X61084260Y-54241000D01*
X60995740Y-54241000D01*
X60929558Y-54234482D01*
X60863373Y-54227963D01*
X60750147Y-54193616D01*
X60693533Y-54176443D01*
X60537011Y-54092779D01*
X60537009Y-54092778D01*
X60501271Y-54063448D01*
X60399814Y-53980186D01*
X60316552Y-53878729D01*
X60287222Y-53842991D01*
X60277652Y-53825087D01*
X60203557Y-53686467D01*
X60186384Y-53629853D01*
X60152037Y-53516627D01*
X60134641Y-53340000D01*
X60152037Y-53163373D01*
X60203557Y-52993534D01*
X60203557Y-52993533D01*
X60287221Y-52837011D01*
X60287222Y-52837009D01*
X60316552Y-52801271D01*
X60399814Y-52699814D01*
X60501271Y-52616552D01*
X60537009Y-52587222D01*
X60554913Y-52577652D01*
X60693533Y-52503557D01*
X60750147Y-52486384D01*
X60863373Y-52452037D01*
X60929558Y-52445518D01*
X60995740Y-52439000D01*
X61084260Y-52439000D01*
X61150443Y-52445519D01*
X61150443Y-52445519D01*
G37*
G36*
X58610443Y-52445519D02*
X58676627Y-52452037D01*
X58789853Y-52486384D01*
X58846467Y-52503557D01*
X58985087Y-52577652D01*
X59002991Y-52587222D01*
X59038729Y-52616552D01*
X59140186Y-52699814D01*
X59223448Y-52801271D01*
X59252778Y-52837009D01*
X59252779Y-52837011D01*
X59336443Y-52993533D01*
X59336443Y-52993534D01*
X59387963Y-53163373D01*
X59405359Y-53340000D01*
X59387963Y-53516627D01*
X59353616Y-53629853D01*
X59336443Y-53686467D01*
X59262348Y-53825087D01*
X59252778Y-53842991D01*
X59223448Y-53878729D01*
X59140186Y-53980186D01*
X59038729Y-54063448D01*
X59002991Y-54092778D01*
X59002989Y-54092779D01*
X58846467Y-54176443D01*
X58789853Y-54193616D01*
X58676627Y-54227963D01*
X58610442Y-54234482D01*
X58544260Y-54241000D01*
X58455740Y-54241000D01*
X58389558Y-54234482D01*
X58323373Y-54227963D01*
X58210147Y-54193616D01*
X58153533Y-54176443D01*
X57997011Y-54092779D01*
X57997009Y-54092778D01*
X57961271Y-54063448D01*
X57859814Y-53980186D01*
X57776552Y-53878729D01*
X57747222Y-53842991D01*
X57737652Y-53825087D01*
X57663557Y-53686467D01*
X57646384Y-53629853D01*
X57612037Y-53516627D01*
X57594641Y-53340000D01*
X57612037Y-53163373D01*
X57663557Y-52993534D01*
X57663557Y-52993533D01*
X57747221Y-52837011D01*
X57747222Y-52837009D01*
X57776552Y-52801271D01*
X57859814Y-52699814D01*
X57961271Y-52616552D01*
X57997009Y-52587222D01*
X58014913Y-52577652D01*
X58153533Y-52503557D01*
X58210147Y-52486384D01*
X58323373Y-52452037D01*
X58389558Y-52445518D01*
X58455740Y-52439000D01*
X58544260Y-52439000D01*
X58610443Y-52445519D01*
X58610443Y-52445519D01*
G37*
G36*
X56070443Y-52445519D02*
X56136627Y-52452037D01*
X56249853Y-52486384D01*
X56306467Y-52503557D01*
X56445087Y-52577652D01*
X56462991Y-52587222D01*
X56498729Y-52616552D01*
X56600186Y-52699814D01*
X56683448Y-52801271D01*
X56712778Y-52837009D01*
X56712779Y-52837011D01*
X56796443Y-52993533D01*
X56796443Y-52993534D01*
X56847963Y-53163373D01*
X56865359Y-53340000D01*
X56847963Y-53516627D01*
X56813616Y-53629853D01*
X56796443Y-53686467D01*
X56722348Y-53825087D01*
X56712778Y-53842991D01*
X56683448Y-53878729D01*
X56600186Y-53980186D01*
X56498729Y-54063448D01*
X56462991Y-54092778D01*
X56462989Y-54092779D01*
X56306467Y-54176443D01*
X56249853Y-54193616D01*
X56136627Y-54227963D01*
X56070442Y-54234482D01*
X56004260Y-54241000D01*
X55915740Y-54241000D01*
X55849558Y-54234482D01*
X55783373Y-54227963D01*
X55670147Y-54193616D01*
X55613533Y-54176443D01*
X55457011Y-54092779D01*
X55457009Y-54092778D01*
X55421271Y-54063448D01*
X55319814Y-53980186D01*
X55236552Y-53878729D01*
X55207222Y-53842991D01*
X55197652Y-53825087D01*
X55123557Y-53686467D01*
X55106384Y-53629853D01*
X55072037Y-53516627D01*
X55054641Y-53340000D01*
X55072037Y-53163373D01*
X55123557Y-52993534D01*
X55123557Y-52993533D01*
X55207221Y-52837011D01*
X55207222Y-52837009D01*
X55236552Y-52801271D01*
X55319814Y-52699814D01*
X55421271Y-52616552D01*
X55457009Y-52587222D01*
X55474913Y-52577652D01*
X55613533Y-52503557D01*
X55670147Y-52486384D01*
X55783373Y-52452037D01*
X55849558Y-52445518D01*
X55915740Y-52439000D01*
X56004260Y-52439000D01*
X56070443Y-52445519D01*
X56070443Y-52445519D01*
G37*
G36*
X53530443Y-52445519D02*
X53596627Y-52452037D01*
X53709853Y-52486384D01*
X53766467Y-52503557D01*
X53905087Y-52577652D01*
X53922991Y-52587222D01*
X53958729Y-52616552D01*
X54060186Y-52699814D01*
X54143448Y-52801271D01*
X54172778Y-52837009D01*
X54172779Y-52837011D01*
X54256443Y-52993533D01*
X54256443Y-52993534D01*
X54307963Y-53163373D01*
X54325359Y-53340000D01*
X54307963Y-53516627D01*
X54273616Y-53629853D01*
X54256443Y-53686467D01*
X54182348Y-53825087D01*
X54172778Y-53842991D01*
X54143448Y-53878729D01*
X54060186Y-53980186D01*
X53958729Y-54063448D01*
X53922991Y-54092778D01*
X53922989Y-54092779D01*
X53766467Y-54176443D01*
X53709853Y-54193616D01*
X53596627Y-54227963D01*
X53530442Y-54234482D01*
X53464260Y-54241000D01*
X53375740Y-54241000D01*
X53309558Y-54234482D01*
X53243373Y-54227963D01*
X53130147Y-54193616D01*
X53073533Y-54176443D01*
X52917011Y-54092779D01*
X52917009Y-54092778D01*
X52881271Y-54063448D01*
X52779814Y-53980186D01*
X52696552Y-53878729D01*
X52667222Y-53842991D01*
X52657652Y-53825087D01*
X52583557Y-53686467D01*
X52566384Y-53629853D01*
X52532037Y-53516627D01*
X52514641Y-53340000D01*
X52532037Y-53163373D01*
X52583557Y-52993534D01*
X52583557Y-52993533D01*
X52667221Y-52837011D01*
X52667222Y-52837009D01*
X52696552Y-52801271D01*
X52779814Y-52699814D01*
X52881271Y-52616552D01*
X52917009Y-52587222D01*
X52934913Y-52577652D01*
X53073533Y-52503557D01*
X53130147Y-52486384D01*
X53243373Y-52452037D01*
X53309558Y-52445518D01*
X53375740Y-52439000D01*
X53464260Y-52439000D01*
X53530443Y-52445519D01*
X53530443Y-52445519D01*
G37*
G36*
X50990443Y-52445519D02*
X51056627Y-52452037D01*
X51169853Y-52486384D01*
X51226467Y-52503557D01*
X51365087Y-52577652D01*
X51382991Y-52587222D01*
X51418729Y-52616552D01*
X51520186Y-52699814D01*
X51603448Y-52801271D01*
X51632778Y-52837009D01*
X51632779Y-52837011D01*
X51716443Y-52993533D01*
X51716443Y-52993534D01*
X51767963Y-53163373D01*
X51785359Y-53340000D01*
X51767963Y-53516627D01*
X51733616Y-53629853D01*
X51716443Y-53686467D01*
X51642348Y-53825087D01*
X51632778Y-53842991D01*
X51603448Y-53878729D01*
X51520186Y-53980186D01*
X51418729Y-54063448D01*
X51382991Y-54092778D01*
X51382989Y-54092779D01*
X51226467Y-54176443D01*
X51169853Y-54193616D01*
X51056627Y-54227963D01*
X50990442Y-54234482D01*
X50924260Y-54241000D01*
X50835740Y-54241000D01*
X50769558Y-54234482D01*
X50703373Y-54227963D01*
X50590147Y-54193616D01*
X50533533Y-54176443D01*
X50377011Y-54092779D01*
X50377009Y-54092778D01*
X50341271Y-54063448D01*
X50239814Y-53980186D01*
X50156552Y-53878729D01*
X50127222Y-53842991D01*
X50117652Y-53825087D01*
X50043557Y-53686467D01*
X50026384Y-53629853D01*
X49992037Y-53516627D01*
X49974641Y-53340000D01*
X49992037Y-53163373D01*
X50043557Y-52993534D01*
X50043557Y-52993533D01*
X50127221Y-52837011D01*
X50127222Y-52837009D01*
X50156552Y-52801271D01*
X50239814Y-52699814D01*
X50341271Y-52616552D01*
X50377009Y-52587222D01*
X50394913Y-52577652D01*
X50533533Y-52503557D01*
X50590147Y-52486384D01*
X50703373Y-52452037D01*
X50769558Y-52445518D01*
X50835740Y-52439000D01*
X50924260Y-52439000D01*
X50990443Y-52445519D01*
X50990443Y-52445519D01*
G37*
G36*
X48450443Y-52445519D02*
X48516627Y-52452037D01*
X48629853Y-52486384D01*
X48686467Y-52503557D01*
X48825087Y-52577652D01*
X48842991Y-52587222D01*
X48878729Y-52616552D01*
X48980186Y-52699814D01*
X49063448Y-52801271D01*
X49092778Y-52837009D01*
X49092779Y-52837011D01*
X49176443Y-52993533D01*
X49176443Y-52993534D01*
X49227963Y-53163373D01*
X49245359Y-53340000D01*
X49227963Y-53516627D01*
X49193616Y-53629853D01*
X49176443Y-53686467D01*
X49102348Y-53825087D01*
X49092778Y-53842991D01*
X49063448Y-53878729D01*
X48980186Y-53980186D01*
X48878729Y-54063448D01*
X48842991Y-54092778D01*
X48842989Y-54092779D01*
X48686467Y-54176443D01*
X48629853Y-54193616D01*
X48516627Y-54227963D01*
X48450442Y-54234482D01*
X48384260Y-54241000D01*
X48295740Y-54241000D01*
X48229558Y-54234482D01*
X48163373Y-54227963D01*
X48050147Y-54193616D01*
X47993533Y-54176443D01*
X47837011Y-54092779D01*
X47837009Y-54092778D01*
X47801271Y-54063448D01*
X47699814Y-53980186D01*
X47616552Y-53878729D01*
X47587222Y-53842991D01*
X47577652Y-53825087D01*
X47503557Y-53686467D01*
X47486384Y-53629853D01*
X47452037Y-53516627D01*
X47434641Y-53340000D01*
X47452037Y-53163373D01*
X47503557Y-52993534D01*
X47503557Y-52993533D01*
X47587221Y-52837011D01*
X47587222Y-52837009D01*
X47616552Y-52801271D01*
X47699814Y-52699814D01*
X47801271Y-52616552D01*
X47837009Y-52587222D01*
X47854913Y-52577652D01*
X47993533Y-52503557D01*
X48050147Y-52486384D01*
X48163373Y-52452037D01*
X48229558Y-52445518D01*
X48295740Y-52439000D01*
X48384260Y-52439000D01*
X48450443Y-52445519D01*
X48450443Y-52445519D01*
G37*
G36*
X45910443Y-52445519D02*
X45976627Y-52452037D01*
X46089853Y-52486384D01*
X46146467Y-52503557D01*
X46285087Y-52577652D01*
X46302991Y-52587222D01*
X46338729Y-52616552D01*
X46440186Y-52699814D01*
X46523448Y-52801271D01*
X46552778Y-52837009D01*
X46552779Y-52837011D01*
X46636443Y-52993533D01*
X46636443Y-52993534D01*
X46687963Y-53163373D01*
X46705359Y-53340000D01*
X46687963Y-53516627D01*
X46653616Y-53629853D01*
X46636443Y-53686467D01*
X46562348Y-53825087D01*
X46552778Y-53842991D01*
X46523448Y-53878729D01*
X46440186Y-53980186D01*
X46338729Y-54063448D01*
X46302991Y-54092778D01*
X46302989Y-54092779D01*
X46146467Y-54176443D01*
X46089853Y-54193616D01*
X45976627Y-54227963D01*
X45910442Y-54234482D01*
X45844260Y-54241000D01*
X45755740Y-54241000D01*
X45689558Y-54234482D01*
X45623373Y-54227963D01*
X45510147Y-54193616D01*
X45453533Y-54176443D01*
X45297011Y-54092779D01*
X45297009Y-54092778D01*
X45261271Y-54063448D01*
X45159814Y-53980186D01*
X45076552Y-53878729D01*
X45047222Y-53842991D01*
X45037652Y-53825087D01*
X44963557Y-53686467D01*
X44946384Y-53629853D01*
X44912037Y-53516627D01*
X44894641Y-53340000D01*
X44912037Y-53163373D01*
X44963557Y-52993534D01*
X44963557Y-52993533D01*
X45047221Y-52837011D01*
X45047222Y-52837009D01*
X45076552Y-52801271D01*
X45159814Y-52699814D01*
X45261271Y-52616552D01*
X45297009Y-52587222D01*
X45314913Y-52577652D01*
X45453533Y-52503557D01*
X45510147Y-52486384D01*
X45623373Y-52452037D01*
X45689558Y-52445518D01*
X45755740Y-52439000D01*
X45844260Y-52439000D01*
X45910443Y-52445519D01*
X45910443Y-52445519D01*
G37*
G36*
X43370443Y-52445519D02*
X43436627Y-52452037D01*
X43549853Y-52486384D01*
X43606467Y-52503557D01*
X43745087Y-52577652D01*
X43762991Y-52587222D01*
X43798729Y-52616552D01*
X43900186Y-52699814D01*
X43983448Y-52801271D01*
X44012778Y-52837009D01*
X44012779Y-52837011D01*
X44096443Y-52993533D01*
X44096443Y-52993534D01*
X44147963Y-53163373D01*
X44165359Y-53340000D01*
X44147963Y-53516627D01*
X44113616Y-53629853D01*
X44096443Y-53686467D01*
X44022348Y-53825087D01*
X44012778Y-53842991D01*
X43983448Y-53878729D01*
X43900186Y-53980186D01*
X43798729Y-54063448D01*
X43762991Y-54092778D01*
X43762989Y-54092779D01*
X43606467Y-54176443D01*
X43549853Y-54193616D01*
X43436627Y-54227963D01*
X43370442Y-54234482D01*
X43304260Y-54241000D01*
X43215740Y-54241000D01*
X43149558Y-54234482D01*
X43083373Y-54227963D01*
X42970147Y-54193616D01*
X42913533Y-54176443D01*
X42757011Y-54092779D01*
X42757009Y-54092778D01*
X42721271Y-54063448D01*
X42619814Y-53980186D01*
X42536552Y-53878729D01*
X42507222Y-53842991D01*
X42497652Y-53825087D01*
X42423557Y-53686467D01*
X42406384Y-53629853D01*
X42372037Y-53516627D01*
X42354641Y-53340000D01*
X42372037Y-53163373D01*
X42423557Y-52993534D01*
X42423557Y-52993533D01*
X42507221Y-52837011D01*
X42507222Y-52837009D01*
X42536552Y-52801271D01*
X42619814Y-52699814D01*
X42721271Y-52616552D01*
X42757009Y-52587222D01*
X42774913Y-52577652D01*
X42913533Y-52503557D01*
X42970147Y-52486384D01*
X43083373Y-52452037D01*
X43149558Y-52445518D01*
X43215740Y-52439000D01*
X43304260Y-52439000D01*
X43370443Y-52445519D01*
X43370443Y-52445519D01*
G37*
G36*
X40830443Y-52445519D02*
X40896627Y-52452037D01*
X41009853Y-52486384D01*
X41066467Y-52503557D01*
X41205087Y-52577652D01*
X41222991Y-52587222D01*
X41258729Y-52616552D01*
X41360186Y-52699814D01*
X41443448Y-52801271D01*
X41472778Y-52837009D01*
X41472779Y-52837011D01*
X41556443Y-52993533D01*
X41556443Y-52993534D01*
X41607963Y-53163373D01*
X41625359Y-53340000D01*
X41607963Y-53516627D01*
X41573616Y-53629853D01*
X41556443Y-53686467D01*
X41482348Y-53825087D01*
X41472778Y-53842991D01*
X41443448Y-53878729D01*
X41360186Y-53980186D01*
X41258729Y-54063448D01*
X41222991Y-54092778D01*
X41222989Y-54092779D01*
X41066467Y-54176443D01*
X41009853Y-54193616D01*
X40896627Y-54227963D01*
X40830442Y-54234482D01*
X40764260Y-54241000D01*
X40675740Y-54241000D01*
X40609558Y-54234482D01*
X40543373Y-54227963D01*
X40430147Y-54193616D01*
X40373533Y-54176443D01*
X40217011Y-54092779D01*
X40217009Y-54092778D01*
X40181271Y-54063448D01*
X40079814Y-53980186D01*
X39996552Y-53878729D01*
X39967222Y-53842991D01*
X39957652Y-53825087D01*
X39883557Y-53686467D01*
X39866384Y-53629853D01*
X39832037Y-53516627D01*
X39814641Y-53340000D01*
X39832037Y-53163373D01*
X39883557Y-52993534D01*
X39883557Y-52993533D01*
X39967221Y-52837011D01*
X39967222Y-52837009D01*
X39996552Y-52801271D01*
X40079814Y-52699814D01*
X40181271Y-52616552D01*
X40217009Y-52587222D01*
X40234913Y-52577652D01*
X40373533Y-52503557D01*
X40430147Y-52486384D01*
X40543373Y-52452037D01*
X40609558Y-52445518D01*
X40675740Y-52439000D01*
X40764260Y-52439000D01*
X40830443Y-52445519D01*
X40830443Y-52445519D01*
G37*
G36*
X38290443Y-52445519D02*
X38356627Y-52452037D01*
X38469853Y-52486384D01*
X38526467Y-52503557D01*
X38665087Y-52577652D01*
X38682991Y-52587222D01*
X38718729Y-52616552D01*
X38820186Y-52699814D01*
X38903448Y-52801271D01*
X38932778Y-52837009D01*
X38932779Y-52837011D01*
X39016443Y-52993533D01*
X39016443Y-52993534D01*
X39067963Y-53163373D01*
X39085359Y-53340000D01*
X39067963Y-53516627D01*
X39033616Y-53629853D01*
X39016443Y-53686467D01*
X38942348Y-53825087D01*
X38932778Y-53842991D01*
X38903448Y-53878729D01*
X38820186Y-53980186D01*
X38718729Y-54063448D01*
X38682991Y-54092778D01*
X38682989Y-54092779D01*
X38526467Y-54176443D01*
X38469853Y-54193616D01*
X38356627Y-54227963D01*
X38290442Y-54234482D01*
X38224260Y-54241000D01*
X38135740Y-54241000D01*
X38069558Y-54234482D01*
X38003373Y-54227963D01*
X37890147Y-54193616D01*
X37833533Y-54176443D01*
X37677011Y-54092779D01*
X37677009Y-54092778D01*
X37641271Y-54063448D01*
X37539814Y-53980186D01*
X37456552Y-53878729D01*
X37427222Y-53842991D01*
X37417652Y-53825087D01*
X37343557Y-53686467D01*
X37326384Y-53629853D01*
X37292037Y-53516627D01*
X37274641Y-53340000D01*
X37292037Y-53163373D01*
X37343557Y-52993534D01*
X37343557Y-52993533D01*
X37427221Y-52837011D01*
X37427222Y-52837009D01*
X37456552Y-52801271D01*
X37539814Y-52699814D01*
X37641271Y-52616552D01*
X37677009Y-52587222D01*
X37694913Y-52577652D01*
X37833533Y-52503557D01*
X37890147Y-52486384D01*
X38003373Y-52452037D01*
X38069558Y-52445518D01*
X38135740Y-52439000D01*
X38224260Y-52439000D01*
X38290443Y-52445519D01*
X38290443Y-52445519D01*
G37*
G36*
X35750443Y-52445519D02*
X35816627Y-52452037D01*
X35929853Y-52486384D01*
X35986467Y-52503557D01*
X36125087Y-52577652D01*
X36142991Y-52587222D01*
X36178729Y-52616552D01*
X36280186Y-52699814D01*
X36363448Y-52801271D01*
X36392778Y-52837009D01*
X36392779Y-52837011D01*
X36476443Y-52993533D01*
X36476443Y-52993534D01*
X36527963Y-53163373D01*
X36545359Y-53340000D01*
X36527963Y-53516627D01*
X36493616Y-53629853D01*
X36476443Y-53686467D01*
X36402348Y-53825087D01*
X36392778Y-53842991D01*
X36363448Y-53878729D01*
X36280186Y-53980186D01*
X36178729Y-54063448D01*
X36142991Y-54092778D01*
X36142989Y-54092779D01*
X35986467Y-54176443D01*
X35929853Y-54193616D01*
X35816627Y-54227963D01*
X35750442Y-54234482D01*
X35684260Y-54241000D01*
X35595740Y-54241000D01*
X35529558Y-54234482D01*
X35463373Y-54227963D01*
X35350147Y-54193616D01*
X35293533Y-54176443D01*
X35137011Y-54092779D01*
X35137009Y-54092778D01*
X35101271Y-54063448D01*
X34999814Y-53980186D01*
X34916552Y-53878729D01*
X34887222Y-53842991D01*
X34877652Y-53825087D01*
X34803557Y-53686467D01*
X34786384Y-53629853D01*
X34752037Y-53516627D01*
X34734641Y-53340000D01*
X34752037Y-53163373D01*
X34803557Y-52993534D01*
X34803557Y-52993533D01*
X34887221Y-52837011D01*
X34887222Y-52837009D01*
X34916552Y-52801271D01*
X34999814Y-52699814D01*
X35101271Y-52616552D01*
X35137009Y-52587222D01*
X35154913Y-52577652D01*
X35293533Y-52503557D01*
X35350147Y-52486384D01*
X35463373Y-52452037D01*
X35529558Y-52445518D01*
X35595740Y-52439000D01*
X35684260Y-52439000D01*
X35750443Y-52445519D01*
X35750443Y-52445519D01*
G37*
G36*
X33210443Y-52445519D02*
X33276627Y-52452037D01*
X33389853Y-52486384D01*
X33446467Y-52503557D01*
X33585087Y-52577652D01*
X33602991Y-52587222D01*
X33638729Y-52616552D01*
X33740186Y-52699814D01*
X33823448Y-52801271D01*
X33852778Y-52837009D01*
X33852779Y-52837011D01*
X33936443Y-52993533D01*
X33936443Y-52993534D01*
X33987963Y-53163373D01*
X34005359Y-53340000D01*
X33987963Y-53516627D01*
X33953616Y-53629853D01*
X33936443Y-53686467D01*
X33862348Y-53825087D01*
X33852778Y-53842991D01*
X33823448Y-53878729D01*
X33740186Y-53980186D01*
X33638729Y-54063448D01*
X33602991Y-54092778D01*
X33602989Y-54092779D01*
X33446467Y-54176443D01*
X33389853Y-54193616D01*
X33276627Y-54227963D01*
X33210442Y-54234482D01*
X33144260Y-54241000D01*
X33055740Y-54241000D01*
X32989558Y-54234482D01*
X32923373Y-54227963D01*
X32810147Y-54193616D01*
X32753533Y-54176443D01*
X32597011Y-54092779D01*
X32597009Y-54092778D01*
X32561271Y-54063448D01*
X32459814Y-53980186D01*
X32376552Y-53878729D01*
X32347222Y-53842991D01*
X32337652Y-53825087D01*
X32263557Y-53686467D01*
X32246384Y-53629853D01*
X32212037Y-53516627D01*
X32194641Y-53340000D01*
X32212037Y-53163373D01*
X32263557Y-52993534D01*
X32263557Y-52993533D01*
X32347221Y-52837011D01*
X32347222Y-52837009D01*
X32376552Y-52801271D01*
X32459814Y-52699814D01*
X32561271Y-52616552D01*
X32597009Y-52587222D01*
X32614913Y-52577652D01*
X32753533Y-52503557D01*
X32810147Y-52486384D01*
X32923373Y-52452037D01*
X32989558Y-52445518D01*
X33055740Y-52439000D01*
X33144260Y-52439000D01*
X33210443Y-52445519D01*
X33210443Y-52445519D01*
G37*
G36*
X30670443Y-52445519D02*
X30736627Y-52452037D01*
X30849853Y-52486384D01*
X30906467Y-52503557D01*
X31045087Y-52577652D01*
X31062991Y-52587222D01*
X31098729Y-52616552D01*
X31200186Y-52699814D01*
X31283448Y-52801271D01*
X31312778Y-52837009D01*
X31312779Y-52837011D01*
X31396443Y-52993533D01*
X31396443Y-52993534D01*
X31447963Y-53163373D01*
X31465359Y-53340000D01*
X31447963Y-53516627D01*
X31413616Y-53629853D01*
X31396443Y-53686467D01*
X31322348Y-53825087D01*
X31312778Y-53842991D01*
X31283448Y-53878729D01*
X31200186Y-53980186D01*
X31098729Y-54063448D01*
X31062991Y-54092778D01*
X31062989Y-54092779D01*
X30906467Y-54176443D01*
X30849853Y-54193616D01*
X30736627Y-54227963D01*
X30670442Y-54234482D01*
X30604260Y-54241000D01*
X30515740Y-54241000D01*
X30449558Y-54234482D01*
X30383373Y-54227963D01*
X30270147Y-54193616D01*
X30213533Y-54176443D01*
X30057011Y-54092779D01*
X30057009Y-54092778D01*
X30021271Y-54063448D01*
X29919814Y-53980186D01*
X29836552Y-53878729D01*
X29807222Y-53842991D01*
X29797652Y-53825087D01*
X29723557Y-53686467D01*
X29706384Y-53629853D01*
X29672037Y-53516627D01*
X29654641Y-53340000D01*
X29672037Y-53163373D01*
X29723557Y-52993534D01*
X29723557Y-52993533D01*
X29807221Y-52837011D01*
X29807222Y-52837009D01*
X29836552Y-52801271D01*
X29919814Y-52699814D01*
X30021271Y-52616552D01*
X30057009Y-52587222D01*
X30074913Y-52577652D01*
X30213533Y-52503557D01*
X30270147Y-52486384D01*
X30383373Y-52452037D01*
X30449558Y-52445518D01*
X30515740Y-52439000D01*
X30604260Y-52439000D01*
X30670443Y-52445519D01*
X30670443Y-52445519D01*
G37*
G36*
X28130443Y-52445519D02*
X28196627Y-52452037D01*
X28309853Y-52486384D01*
X28366467Y-52503557D01*
X28505087Y-52577652D01*
X28522991Y-52587222D01*
X28558729Y-52616552D01*
X28660186Y-52699814D01*
X28743448Y-52801271D01*
X28772778Y-52837009D01*
X28772779Y-52837011D01*
X28856443Y-52993533D01*
X28856443Y-52993534D01*
X28907963Y-53163373D01*
X28925359Y-53340000D01*
X28907963Y-53516627D01*
X28873616Y-53629853D01*
X28856443Y-53686467D01*
X28782348Y-53825087D01*
X28772778Y-53842991D01*
X28743448Y-53878729D01*
X28660186Y-53980186D01*
X28558729Y-54063448D01*
X28522991Y-54092778D01*
X28522989Y-54092779D01*
X28366467Y-54176443D01*
X28309853Y-54193616D01*
X28196627Y-54227963D01*
X28130442Y-54234482D01*
X28064260Y-54241000D01*
X27975740Y-54241000D01*
X27909558Y-54234482D01*
X27843373Y-54227963D01*
X27730147Y-54193616D01*
X27673533Y-54176443D01*
X27517011Y-54092779D01*
X27517009Y-54092778D01*
X27481271Y-54063448D01*
X27379814Y-53980186D01*
X27296552Y-53878729D01*
X27267222Y-53842991D01*
X27257652Y-53825087D01*
X27183557Y-53686467D01*
X27166384Y-53629853D01*
X27132037Y-53516627D01*
X27114641Y-53340000D01*
X27132037Y-53163373D01*
X27183557Y-52993534D01*
X27183557Y-52993533D01*
X27267221Y-52837011D01*
X27267222Y-52837009D01*
X27296552Y-52801271D01*
X27379814Y-52699814D01*
X27481271Y-52616552D01*
X27517009Y-52587222D01*
X27534913Y-52577652D01*
X27673533Y-52503557D01*
X27730147Y-52486384D01*
X27843373Y-52452037D01*
X27909558Y-52445518D01*
X27975740Y-52439000D01*
X28064260Y-52439000D01*
X28130443Y-52445519D01*
X28130443Y-52445519D01*
G37*
G36*
X25590443Y-52445519D02*
X25656627Y-52452037D01*
X25769853Y-52486384D01*
X25826467Y-52503557D01*
X25965087Y-52577652D01*
X25982991Y-52587222D01*
X26018729Y-52616552D01*
X26120186Y-52699814D01*
X26203448Y-52801271D01*
X26232778Y-52837009D01*
X26232779Y-52837011D01*
X26316443Y-52993533D01*
X26316443Y-52993534D01*
X26367963Y-53163373D01*
X26385359Y-53340000D01*
X26367963Y-53516627D01*
X26333616Y-53629853D01*
X26316443Y-53686467D01*
X26242348Y-53825087D01*
X26232778Y-53842991D01*
X26203448Y-53878729D01*
X26120186Y-53980186D01*
X26018729Y-54063448D01*
X25982991Y-54092778D01*
X25982989Y-54092779D01*
X25826467Y-54176443D01*
X25769853Y-54193616D01*
X25656627Y-54227963D01*
X25590442Y-54234482D01*
X25524260Y-54241000D01*
X25435740Y-54241000D01*
X25369558Y-54234482D01*
X25303373Y-54227963D01*
X25190147Y-54193616D01*
X25133533Y-54176443D01*
X24977011Y-54092779D01*
X24977009Y-54092778D01*
X24941271Y-54063448D01*
X24839814Y-53980186D01*
X24756552Y-53878729D01*
X24727222Y-53842991D01*
X24717652Y-53825087D01*
X24643557Y-53686467D01*
X24626384Y-53629853D01*
X24592037Y-53516627D01*
X24574641Y-53340000D01*
X24592037Y-53163373D01*
X24643557Y-52993534D01*
X24643557Y-52993533D01*
X24727221Y-52837011D01*
X24727222Y-52837009D01*
X24756552Y-52801271D01*
X24839814Y-52699814D01*
X24941271Y-52616552D01*
X24977009Y-52587222D01*
X24994913Y-52577652D01*
X25133533Y-52503557D01*
X25190147Y-52486384D01*
X25303373Y-52452037D01*
X25369558Y-52445518D01*
X25435740Y-52439000D01*
X25524260Y-52439000D01*
X25590443Y-52445519D01*
X25590443Y-52445519D01*
G37*
G36*
X23050443Y-52445519D02*
X23116627Y-52452037D01*
X23229853Y-52486384D01*
X23286467Y-52503557D01*
X23425087Y-52577652D01*
X23442991Y-52587222D01*
X23478729Y-52616552D01*
X23580186Y-52699814D01*
X23663448Y-52801271D01*
X23692778Y-52837009D01*
X23692779Y-52837011D01*
X23776443Y-52993533D01*
X23776443Y-52993534D01*
X23827963Y-53163373D01*
X23845359Y-53340000D01*
X23827963Y-53516627D01*
X23793616Y-53629853D01*
X23776443Y-53686467D01*
X23702348Y-53825087D01*
X23692778Y-53842991D01*
X23663448Y-53878729D01*
X23580186Y-53980186D01*
X23478729Y-54063448D01*
X23442991Y-54092778D01*
X23442989Y-54092779D01*
X23286467Y-54176443D01*
X23229853Y-54193616D01*
X23116627Y-54227963D01*
X23050442Y-54234482D01*
X22984260Y-54241000D01*
X22895740Y-54241000D01*
X22829558Y-54234482D01*
X22763373Y-54227963D01*
X22650147Y-54193616D01*
X22593533Y-54176443D01*
X22437011Y-54092779D01*
X22437009Y-54092778D01*
X22401271Y-54063448D01*
X22299814Y-53980186D01*
X22216552Y-53878729D01*
X22187222Y-53842991D01*
X22177652Y-53825087D01*
X22103557Y-53686467D01*
X22086384Y-53629853D01*
X22052037Y-53516627D01*
X22034641Y-53340000D01*
X22052037Y-53163373D01*
X22103557Y-52993534D01*
X22103557Y-52993533D01*
X22187221Y-52837011D01*
X22187222Y-52837009D01*
X22216552Y-52801271D01*
X22299814Y-52699814D01*
X22401271Y-52616552D01*
X22437009Y-52587222D01*
X22454913Y-52577652D01*
X22593533Y-52503557D01*
X22650147Y-52486384D01*
X22763373Y-52452037D01*
X22829558Y-52445518D01*
X22895740Y-52439000D01*
X22984260Y-52439000D01*
X23050443Y-52445519D01*
X23050443Y-52445519D01*
G37*
G36*
X48450442Y-49905518D02*
X48516627Y-49912037D01*
X48629853Y-49946384D01*
X48686467Y-49963557D01*
X48825087Y-50037652D01*
X48842991Y-50047222D01*
X48878729Y-50076552D01*
X48980186Y-50159814D01*
X49063448Y-50261271D01*
X49092778Y-50297009D01*
X49092779Y-50297011D01*
X49176443Y-50453533D01*
X49176443Y-50453534D01*
X49227963Y-50623373D01*
X49245359Y-50800000D01*
X49227963Y-50976627D01*
X49193616Y-51089853D01*
X49176443Y-51146467D01*
X49102348Y-51285087D01*
X49092778Y-51302991D01*
X49063448Y-51338729D01*
X48980186Y-51440186D01*
X48878729Y-51523448D01*
X48842991Y-51552778D01*
X48842989Y-51552779D01*
X48686467Y-51636443D01*
X48629853Y-51653616D01*
X48516627Y-51687963D01*
X48450442Y-51694482D01*
X48384260Y-51701000D01*
X48295740Y-51701000D01*
X48229558Y-51694482D01*
X48163373Y-51687963D01*
X48050147Y-51653616D01*
X47993533Y-51636443D01*
X47837011Y-51552779D01*
X47837009Y-51552778D01*
X47801271Y-51523448D01*
X47699814Y-51440186D01*
X47616552Y-51338729D01*
X47587222Y-51302991D01*
X47577652Y-51285087D01*
X47503557Y-51146467D01*
X47486384Y-51089853D01*
X47452037Y-50976627D01*
X47434641Y-50800000D01*
X47452037Y-50623373D01*
X47503557Y-50453534D01*
X47503557Y-50453533D01*
X47587221Y-50297011D01*
X47587222Y-50297009D01*
X47616552Y-50261271D01*
X47699814Y-50159814D01*
X47801271Y-50076552D01*
X47837009Y-50047222D01*
X47854913Y-50037652D01*
X47993533Y-49963557D01*
X48050147Y-49946384D01*
X48163373Y-49912037D01*
X48229557Y-49905519D01*
X48295740Y-49899000D01*
X48384260Y-49899000D01*
X48450442Y-49905518D01*
X48450442Y-49905518D01*
G37*
G36*
X23050442Y-49905518D02*
X23116627Y-49912037D01*
X23229853Y-49946384D01*
X23286467Y-49963557D01*
X23425087Y-50037652D01*
X23442991Y-50047222D01*
X23478729Y-50076552D01*
X23580186Y-50159814D01*
X23663448Y-50261271D01*
X23692778Y-50297009D01*
X23692779Y-50297011D01*
X23776443Y-50453533D01*
X23776443Y-50453534D01*
X23827963Y-50623373D01*
X23845359Y-50800000D01*
X23827963Y-50976627D01*
X23793616Y-51089853D01*
X23776443Y-51146467D01*
X23702348Y-51285087D01*
X23692778Y-51302991D01*
X23663448Y-51338729D01*
X23580186Y-51440186D01*
X23478729Y-51523448D01*
X23442991Y-51552778D01*
X23442989Y-51552779D01*
X23286467Y-51636443D01*
X23229853Y-51653616D01*
X23116627Y-51687963D01*
X23050442Y-51694482D01*
X22984260Y-51701000D01*
X22895740Y-51701000D01*
X22829558Y-51694482D01*
X22763373Y-51687963D01*
X22650147Y-51653616D01*
X22593533Y-51636443D01*
X22437011Y-51552779D01*
X22437009Y-51552778D01*
X22401271Y-51523448D01*
X22299814Y-51440186D01*
X22216552Y-51338729D01*
X22187222Y-51302991D01*
X22177652Y-51285087D01*
X22103557Y-51146467D01*
X22086384Y-51089853D01*
X22052037Y-50976627D01*
X22034641Y-50800000D01*
X22052037Y-50623373D01*
X22103557Y-50453534D01*
X22103557Y-50453533D01*
X22187221Y-50297011D01*
X22187222Y-50297009D01*
X22216552Y-50261271D01*
X22299814Y-50159814D01*
X22401271Y-50076552D01*
X22437009Y-50047222D01*
X22454913Y-50037652D01*
X22593533Y-49963557D01*
X22650147Y-49946384D01*
X22763373Y-49912037D01*
X22829558Y-49905518D01*
X22895740Y-49899000D01*
X22984260Y-49899000D01*
X23050442Y-49905518D01*
X23050442Y-49905518D01*
G37*
G36*
X72101000Y-51701000D02*
X70299000Y-51701000D01*
X70299000Y-49899000D01*
X72101000Y-49899000D01*
X72101000Y-51701000D01*
X72101000Y-51701000D01*
G37*
G36*
X25590442Y-49905518D02*
X25656627Y-49912037D01*
X25769853Y-49946384D01*
X25826467Y-49963557D01*
X25965087Y-50037652D01*
X25982991Y-50047222D01*
X26018729Y-50076552D01*
X26120186Y-50159814D01*
X26203448Y-50261271D01*
X26232778Y-50297009D01*
X26232779Y-50297011D01*
X26316443Y-50453533D01*
X26316443Y-50453534D01*
X26367963Y-50623373D01*
X26385359Y-50800000D01*
X26367963Y-50976627D01*
X26333616Y-51089853D01*
X26316443Y-51146467D01*
X26242348Y-51285087D01*
X26232778Y-51302991D01*
X26203448Y-51338729D01*
X26120186Y-51440186D01*
X26018729Y-51523448D01*
X25982991Y-51552778D01*
X25982989Y-51552779D01*
X25826467Y-51636443D01*
X25769853Y-51653616D01*
X25656627Y-51687963D01*
X25590442Y-51694482D01*
X25524260Y-51701000D01*
X25435740Y-51701000D01*
X25369558Y-51694482D01*
X25303373Y-51687963D01*
X25190147Y-51653616D01*
X25133533Y-51636443D01*
X24977011Y-51552779D01*
X24977009Y-51552778D01*
X24941271Y-51523448D01*
X24839814Y-51440186D01*
X24756552Y-51338729D01*
X24727222Y-51302991D01*
X24717652Y-51285087D01*
X24643557Y-51146467D01*
X24626384Y-51089853D01*
X24592037Y-50976627D01*
X24574641Y-50800000D01*
X24592037Y-50623373D01*
X24643557Y-50453534D01*
X24643557Y-50453533D01*
X24727221Y-50297011D01*
X24727222Y-50297009D01*
X24756552Y-50261271D01*
X24839814Y-50159814D01*
X24941271Y-50076552D01*
X24977009Y-50047222D01*
X24994913Y-50037652D01*
X25133533Y-49963557D01*
X25190147Y-49946384D01*
X25303373Y-49912037D01*
X25369558Y-49905518D01*
X25435740Y-49899000D01*
X25524260Y-49899000D01*
X25590442Y-49905518D01*
X25590442Y-49905518D01*
G37*
G36*
X68770442Y-49905518D02*
X68836627Y-49912037D01*
X68949853Y-49946384D01*
X69006467Y-49963557D01*
X69145087Y-50037652D01*
X69162991Y-50047222D01*
X69198729Y-50076552D01*
X69300186Y-50159814D01*
X69383448Y-50261271D01*
X69412778Y-50297009D01*
X69412779Y-50297011D01*
X69496443Y-50453533D01*
X69496443Y-50453534D01*
X69547963Y-50623373D01*
X69565359Y-50800000D01*
X69547963Y-50976627D01*
X69513616Y-51089853D01*
X69496443Y-51146467D01*
X69422348Y-51285087D01*
X69412778Y-51302991D01*
X69383448Y-51338729D01*
X69300186Y-51440186D01*
X69198729Y-51523448D01*
X69162991Y-51552778D01*
X69162989Y-51552779D01*
X69006467Y-51636443D01*
X68949853Y-51653616D01*
X68836627Y-51687963D01*
X68770442Y-51694482D01*
X68704260Y-51701000D01*
X68615740Y-51701000D01*
X68549558Y-51694482D01*
X68483373Y-51687963D01*
X68370147Y-51653616D01*
X68313533Y-51636443D01*
X68157011Y-51552779D01*
X68157009Y-51552778D01*
X68121271Y-51523448D01*
X68019814Y-51440186D01*
X67936552Y-51338729D01*
X67907222Y-51302991D01*
X67897652Y-51285087D01*
X67823557Y-51146467D01*
X67806384Y-51089853D01*
X67772037Y-50976627D01*
X67754641Y-50800000D01*
X67772037Y-50623373D01*
X67823557Y-50453534D01*
X67823557Y-50453533D01*
X67907221Y-50297011D01*
X67907222Y-50297009D01*
X67936552Y-50261271D01*
X68019814Y-50159814D01*
X68121271Y-50076552D01*
X68157009Y-50047222D01*
X68174913Y-50037652D01*
X68313533Y-49963557D01*
X68370147Y-49946384D01*
X68483373Y-49912037D01*
X68549557Y-49905519D01*
X68615740Y-49899000D01*
X68704260Y-49899000D01*
X68770442Y-49905518D01*
X68770442Y-49905518D01*
G37*
G36*
X28130442Y-49905518D02*
X28196627Y-49912037D01*
X28309853Y-49946384D01*
X28366467Y-49963557D01*
X28505087Y-50037652D01*
X28522991Y-50047222D01*
X28558729Y-50076552D01*
X28660186Y-50159814D01*
X28743448Y-50261271D01*
X28772778Y-50297009D01*
X28772779Y-50297011D01*
X28856443Y-50453533D01*
X28856443Y-50453534D01*
X28907963Y-50623373D01*
X28925359Y-50800000D01*
X28907963Y-50976627D01*
X28873616Y-51089853D01*
X28856443Y-51146467D01*
X28782348Y-51285087D01*
X28772778Y-51302991D01*
X28743448Y-51338729D01*
X28660186Y-51440186D01*
X28558729Y-51523448D01*
X28522991Y-51552778D01*
X28522989Y-51552779D01*
X28366467Y-51636443D01*
X28309853Y-51653616D01*
X28196627Y-51687963D01*
X28130442Y-51694482D01*
X28064260Y-51701000D01*
X27975740Y-51701000D01*
X27909558Y-51694482D01*
X27843373Y-51687963D01*
X27730147Y-51653616D01*
X27673533Y-51636443D01*
X27517011Y-51552779D01*
X27517009Y-51552778D01*
X27481271Y-51523448D01*
X27379814Y-51440186D01*
X27296552Y-51338729D01*
X27267222Y-51302991D01*
X27257652Y-51285087D01*
X27183557Y-51146467D01*
X27166384Y-51089853D01*
X27132037Y-50976627D01*
X27114641Y-50800000D01*
X27132037Y-50623373D01*
X27183557Y-50453534D01*
X27183557Y-50453533D01*
X27267221Y-50297011D01*
X27267222Y-50297009D01*
X27296552Y-50261271D01*
X27379814Y-50159814D01*
X27481271Y-50076552D01*
X27517009Y-50047222D01*
X27534913Y-50037652D01*
X27673533Y-49963557D01*
X27730147Y-49946384D01*
X27843373Y-49912037D01*
X27909558Y-49905518D01*
X27975740Y-49899000D01*
X28064260Y-49899000D01*
X28130442Y-49905518D01*
X28130442Y-49905518D01*
G37*
G36*
X66230442Y-49905518D02*
X66296627Y-49912037D01*
X66409853Y-49946384D01*
X66466467Y-49963557D01*
X66605087Y-50037652D01*
X66622991Y-50047222D01*
X66658729Y-50076552D01*
X66760186Y-50159814D01*
X66843448Y-50261271D01*
X66872778Y-50297009D01*
X66872779Y-50297011D01*
X66956443Y-50453533D01*
X66956443Y-50453534D01*
X67007963Y-50623373D01*
X67025359Y-50800000D01*
X67007963Y-50976627D01*
X66973616Y-51089853D01*
X66956443Y-51146467D01*
X66882348Y-51285087D01*
X66872778Y-51302991D01*
X66843448Y-51338729D01*
X66760186Y-51440186D01*
X66658729Y-51523448D01*
X66622991Y-51552778D01*
X66622989Y-51552779D01*
X66466467Y-51636443D01*
X66409853Y-51653616D01*
X66296627Y-51687963D01*
X66230442Y-51694482D01*
X66164260Y-51701000D01*
X66075740Y-51701000D01*
X66009558Y-51694482D01*
X65943373Y-51687963D01*
X65830147Y-51653616D01*
X65773533Y-51636443D01*
X65617011Y-51552779D01*
X65617009Y-51552778D01*
X65581271Y-51523448D01*
X65479814Y-51440186D01*
X65396552Y-51338729D01*
X65367222Y-51302991D01*
X65357652Y-51285087D01*
X65283557Y-51146467D01*
X65266384Y-51089853D01*
X65232037Y-50976627D01*
X65214641Y-50800000D01*
X65232037Y-50623373D01*
X65283557Y-50453534D01*
X65283557Y-50453533D01*
X65367221Y-50297011D01*
X65367222Y-50297009D01*
X65396552Y-50261271D01*
X65479814Y-50159814D01*
X65581271Y-50076552D01*
X65617009Y-50047222D01*
X65634913Y-50037652D01*
X65773533Y-49963557D01*
X65830147Y-49946384D01*
X65943373Y-49912037D01*
X66009557Y-49905519D01*
X66075740Y-49899000D01*
X66164260Y-49899000D01*
X66230442Y-49905518D01*
X66230442Y-49905518D01*
G37*
G36*
X30670442Y-49905518D02*
X30736627Y-49912037D01*
X30849853Y-49946384D01*
X30906467Y-49963557D01*
X31045087Y-50037652D01*
X31062991Y-50047222D01*
X31098729Y-50076552D01*
X31200186Y-50159814D01*
X31283448Y-50261271D01*
X31312778Y-50297009D01*
X31312779Y-50297011D01*
X31396443Y-50453533D01*
X31396443Y-50453534D01*
X31447963Y-50623373D01*
X31465359Y-50800000D01*
X31447963Y-50976627D01*
X31413616Y-51089853D01*
X31396443Y-51146467D01*
X31322348Y-51285087D01*
X31312778Y-51302991D01*
X31283448Y-51338729D01*
X31200186Y-51440186D01*
X31098729Y-51523448D01*
X31062991Y-51552778D01*
X31062989Y-51552779D01*
X30906467Y-51636443D01*
X30849853Y-51653616D01*
X30736627Y-51687963D01*
X30670442Y-51694482D01*
X30604260Y-51701000D01*
X30515740Y-51701000D01*
X30449558Y-51694482D01*
X30383373Y-51687963D01*
X30270147Y-51653616D01*
X30213533Y-51636443D01*
X30057011Y-51552779D01*
X30057009Y-51552778D01*
X30021271Y-51523448D01*
X29919814Y-51440186D01*
X29836552Y-51338729D01*
X29807222Y-51302991D01*
X29797652Y-51285087D01*
X29723557Y-51146467D01*
X29706384Y-51089853D01*
X29672037Y-50976627D01*
X29654641Y-50800000D01*
X29672037Y-50623373D01*
X29723557Y-50453534D01*
X29723557Y-50453533D01*
X29807221Y-50297011D01*
X29807222Y-50297009D01*
X29836552Y-50261271D01*
X29919814Y-50159814D01*
X30021271Y-50076552D01*
X30057009Y-50047222D01*
X30074913Y-50037652D01*
X30213533Y-49963557D01*
X30270147Y-49946384D01*
X30383373Y-49912037D01*
X30449557Y-49905519D01*
X30515740Y-49899000D01*
X30604260Y-49899000D01*
X30670442Y-49905518D01*
X30670442Y-49905518D01*
G37*
G36*
X63690442Y-49905518D02*
X63756627Y-49912037D01*
X63869853Y-49946384D01*
X63926467Y-49963557D01*
X64065087Y-50037652D01*
X64082991Y-50047222D01*
X64118729Y-50076552D01*
X64220186Y-50159814D01*
X64303448Y-50261271D01*
X64332778Y-50297009D01*
X64332779Y-50297011D01*
X64416443Y-50453533D01*
X64416443Y-50453534D01*
X64467963Y-50623373D01*
X64485359Y-50800000D01*
X64467963Y-50976627D01*
X64433616Y-51089853D01*
X64416443Y-51146467D01*
X64342348Y-51285087D01*
X64332778Y-51302991D01*
X64303448Y-51338729D01*
X64220186Y-51440186D01*
X64118729Y-51523448D01*
X64082991Y-51552778D01*
X64082989Y-51552779D01*
X63926467Y-51636443D01*
X63869853Y-51653616D01*
X63756627Y-51687963D01*
X63690442Y-51694482D01*
X63624260Y-51701000D01*
X63535740Y-51701000D01*
X63469558Y-51694482D01*
X63403373Y-51687963D01*
X63290147Y-51653616D01*
X63233533Y-51636443D01*
X63077011Y-51552779D01*
X63077009Y-51552778D01*
X63041271Y-51523448D01*
X62939814Y-51440186D01*
X62856552Y-51338729D01*
X62827222Y-51302991D01*
X62817652Y-51285087D01*
X62743557Y-51146467D01*
X62726384Y-51089853D01*
X62692037Y-50976627D01*
X62674641Y-50800000D01*
X62692037Y-50623373D01*
X62743557Y-50453534D01*
X62743557Y-50453533D01*
X62827221Y-50297011D01*
X62827222Y-50297009D01*
X62856552Y-50261271D01*
X62939814Y-50159814D01*
X63041271Y-50076552D01*
X63077009Y-50047222D01*
X63094913Y-50037652D01*
X63233533Y-49963557D01*
X63290147Y-49946384D01*
X63403373Y-49912037D01*
X63469557Y-49905519D01*
X63535740Y-49899000D01*
X63624260Y-49899000D01*
X63690442Y-49905518D01*
X63690442Y-49905518D01*
G37*
G36*
X33210442Y-49905518D02*
X33276627Y-49912037D01*
X33389853Y-49946384D01*
X33446467Y-49963557D01*
X33585087Y-50037652D01*
X33602991Y-50047222D01*
X33638729Y-50076552D01*
X33740186Y-50159814D01*
X33823448Y-50261271D01*
X33852778Y-50297009D01*
X33852779Y-50297011D01*
X33936443Y-50453533D01*
X33936443Y-50453534D01*
X33987963Y-50623373D01*
X34005359Y-50800000D01*
X33987963Y-50976627D01*
X33953616Y-51089853D01*
X33936443Y-51146467D01*
X33862348Y-51285087D01*
X33852778Y-51302991D01*
X33823448Y-51338729D01*
X33740186Y-51440186D01*
X33638729Y-51523448D01*
X33602991Y-51552778D01*
X33602989Y-51552779D01*
X33446467Y-51636443D01*
X33389853Y-51653616D01*
X33276627Y-51687963D01*
X33210442Y-51694482D01*
X33144260Y-51701000D01*
X33055740Y-51701000D01*
X32989558Y-51694482D01*
X32923373Y-51687963D01*
X32810147Y-51653616D01*
X32753533Y-51636443D01*
X32597011Y-51552779D01*
X32597009Y-51552778D01*
X32561271Y-51523448D01*
X32459814Y-51440186D01*
X32376552Y-51338729D01*
X32347222Y-51302991D01*
X32337652Y-51285087D01*
X32263557Y-51146467D01*
X32246384Y-51089853D01*
X32212037Y-50976627D01*
X32194641Y-50800000D01*
X32212037Y-50623373D01*
X32263557Y-50453534D01*
X32263557Y-50453533D01*
X32347221Y-50297011D01*
X32347222Y-50297009D01*
X32376552Y-50261271D01*
X32459814Y-50159814D01*
X32561271Y-50076552D01*
X32597009Y-50047222D01*
X32614913Y-50037652D01*
X32753533Y-49963557D01*
X32810147Y-49946384D01*
X32923373Y-49912037D01*
X32989557Y-49905519D01*
X33055740Y-49899000D01*
X33144260Y-49899000D01*
X33210442Y-49905518D01*
X33210442Y-49905518D01*
G37*
G36*
X61150442Y-49905518D02*
X61216627Y-49912037D01*
X61329853Y-49946384D01*
X61386467Y-49963557D01*
X61525087Y-50037652D01*
X61542991Y-50047222D01*
X61578729Y-50076552D01*
X61680186Y-50159814D01*
X61763448Y-50261271D01*
X61792778Y-50297009D01*
X61792779Y-50297011D01*
X61876443Y-50453533D01*
X61876443Y-50453534D01*
X61927963Y-50623373D01*
X61945359Y-50800000D01*
X61927963Y-50976627D01*
X61893616Y-51089853D01*
X61876443Y-51146467D01*
X61802348Y-51285087D01*
X61792778Y-51302991D01*
X61763448Y-51338729D01*
X61680186Y-51440186D01*
X61578729Y-51523448D01*
X61542991Y-51552778D01*
X61542989Y-51552779D01*
X61386467Y-51636443D01*
X61329853Y-51653616D01*
X61216627Y-51687963D01*
X61150442Y-51694482D01*
X61084260Y-51701000D01*
X60995740Y-51701000D01*
X60929558Y-51694482D01*
X60863373Y-51687963D01*
X60750147Y-51653616D01*
X60693533Y-51636443D01*
X60537011Y-51552779D01*
X60537009Y-51552778D01*
X60501271Y-51523448D01*
X60399814Y-51440186D01*
X60316552Y-51338729D01*
X60287222Y-51302991D01*
X60277652Y-51285087D01*
X60203557Y-51146467D01*
X60186384Y-51089853D01*
X60152037Y-50976627D01*
X60134641Y-50800000D01*
X60152037Y-50623373D01*
X60203557Y-50453534D01*
X60203557Y-50453533D01*
X60287221Y-50297011D01*
X60287222Y-50297009D01*
X60316552Y-50261271D01*
X60399814Y-50159814D01*
X60501271Y-50076552D01*
X60537009Y-50047222D01*
X60554913Y-50037652D01*
X60693533Y-49963557D01*
X60750147Y-49946384D01*
X60863373Y-49912037D01*
X60929557Y-49905519D01*
X60995740Y-49899000D01*
X61084260Y-49899000D01*
X61150442Y-49905518D01*
X61150442Y-49905518D01*
G37*
G36*
X35750442Y-49905518D02*
X35816627Y-49912037D01*
X35929853Y-49946384D01*
X35986467Y-49963557D01*
X36125087Y-50037652D01*
X36142991Y-50047222D01*
X36178729Y-50076552D01*
X36280186Y-50159814D01*
X36363448Y-50261271D01*
X36392778Y-50297009D01*
X36392779Y-50297011D01*
X36476443Y-50453533D01*
X36476443Y-50453534D01*
X36527963Y-50623373D01*
X36545359Y-50800000D01*
X36527963Y-50976627D01*
X36493616Y-51089853D01*
X36476443Y-51146467D01*
X36402348Y-51285087D01*
X36392778Y-51302991D01*
X36363448Y-51338729D01*
X36280186Y-51440186D01*
X36178729Y-51523448D01*
X36142991Y-51552778D01*
X36142989Y-51552779D01*
X35986467Y-51636443D01*
X35929853Y-51653616D01*
X35816627Y-51687963D01*
X35750442Y-51694482D01*
X35684260Y-51701000D01*
X35595740Y-51701000D01*
X35529558Y-51694482D01*
X35463373Y-51687963D01*
X35350147Y-51653616D01*
X35293533Y-51636443D01*
X35137011Y-51552779D01*
X35137009Y-51552778D01*
X35101271Y-51523448D01*
X34999814Y-51440186D01*
X34916552Y-51338729D01*
X34887222Y-51302991D01*
X34877652Y-51285087D01*
X34803557Y-51146467D01*
X34786384Y-51089853D01*
X34752037Y-50976627D01*
X34734641Y-50800000D01*
X34752037Y-50623373D01*
X34803557Y-50453534D01*
X34803557Y-50453533D01*
X34887221Y-50297011D01*
X34887222Y-50297009D01*
X34916552Y-50261271D01*
X34999814Y-50159814D01*
X35101271Y-50076552D01*
X35137009Y-50047222D01*
X35154913Y-50037652D01*
X35293533Y-49963557D01*
X35350147Y-49946384D01*
X35463373Y-49912037D01*
X35529557Y-49905519D01*
X35595740Y-49899000D01*
X35684260Y-49899000D01*
X35750442Y-49905518D01*
X35750442Y-49905518D01*
G37*
G36*
X58610442Y-49905518D02*
X58676627Y-49912037D01*
X58789853Y-49946384D01*
X58846467Y-49963557D01*
X58985087Y-50037652D01*
X59002991Y-50047222D01*
X59038729Y-50076552D01*
X59140186Y-50159814D01*
X59223448Y-50261271D01*
X59252778Y-50297009D01*
X59252779Y-50297011D01*
X59336443Y-50453533D01*
X59336443Y-50453534D01*
X59387963Y-50623373D01*
X59405359Y-50800000D01*
X59387963Y-50976627D01*
X59353616Y-51089853D01*
X59336443Y-51146467D01*
X59262348Y-51285087D01*
X59252778Y-51302991D01*
X59223448Y-51338729D01*
X59140186Y-51440186D01*
X59038729Y-51523448D01*
X59002991Y-51552778D01*
X59002989Y-51552779D01*
X58846467Y-51636443D01*
X58789853Y-51653616D01*
X58676627Y-51687963D01*
X58610442Y-51694482D01*
X58544260Y-51701000D01*
X58455740Y-51701000D01*
X58389558Y-51694482D01*
X58323373Y-51687963D01*
X58210147Y-51653616D01*
X58153533Y-51636443D01*
X57997011Y-51552779D01*
X57997009Y-51552778D01*
X57961271Y-51523448D01*
X57859814Y-51440186D01*
X57776552Y-51338729D01*
X57747222Y-51302991D01*
X57737652Y-51285087D01*
X57663557Y-51146467D01*
X57646384Y-51089853D01*
X57612037Y-50976627D01*
X57594641Y-50800000D01*
X57612037Y-50623373D01*
X57663557Y-50453534D01*
X57663557Y-50453533D01*
X57747221Y-50297011D01*
X57747222Y-50297009D01*
X57776552Y-50261271D01*
X57859814Y-50159814D01*
X57961271Y-50076552D01*
X57997009Y-50047222D01*
X58014913Y-50037652D01*
X58153533Y-49963557D01*
X58210147Y-49946384D01*
X58323373Y-49912037D01*
X58389557Y-49905519D01*
X58455740Y-49899000D01*
X58544260Y-49899000D01*
X58610442Y-49905518D01*
X58610442Y-49905518D01*
G37*
G36*
X38290442Y-49905518D02*
X38356627Y-49912037D01*
X38469853Y-49946384D01*
X38526467Y-49963557D01*
X38665087Y-50037652D01*
X38682991Y-50047222D01*
X38718729Y-50076552D01*
X38820186Y-50159814D01*
X38903448Y-50261271D01*
X38932778Y-50297009D01*
X38932779Y-50297011D01*
X39016443Y-50453533D01*
X39016443Y-50453534D01*
X39067963Y-50623373D01*
X39085359Y-50800000D01*
X39067963Y-50976627D01*
X39033616Y-51089853D01*
X39016443Y-51146467D01*
X38942348Y-51285087D01*
X38932778Y-51302991D01*
X38903448Y-51338729D01*
X38820186Y-51440186D01*
X38718729Y-51523448D01*
X38682991Y-51552778D01*
X38682989Y-51552779D01*
X38526467Y-51636443D01*
X38469853Y-51653616D01*
X38356627Y-51687963D01*
X38290442Y-51694482D01*
X38224260Y-51701000D01*
X38135740Y-51701000D01*
X38069558Y-51694482D01*
X38003373Y-51687963D01*
X37890147Y-51653616D01*
X37833533Y-51636443D01*
X37677011Y-51552779D01*
X37677009Y-51552778D01*
X37641271Y-51523448D01*
X37539814Y-51440186D01*
X37456552Y-51338729D01*
X37427222Y-51302991D01*
X37417652Y-51285087D01*
X37343557Y-51146467D01*
X37326384Y-51089853D01*
X37292037Y-50976627D01*
X37274641Y-50800000D01*
X37292037Y-50623373D01*
X37343557Y-50453534D01*
X37343557Y-50453533D01*
X37427221Y-50297011D01*
X37427222Y-50297009D01*
X37456552Y-50261271D01*
X37539814Y-50159814D01*
X37641271Y-50076552D01*
X37677009Y-50047222D01*
X37694913Y-50037652D01*
X37833533Y-49963557D01*
X37890147Y-49946384D01*
X38003373Y-49912037D01*
X38069557Y-49905519D01*
X38135740Y-49899000D01*
X38224260Y-49899000D01*
X38290442Y-49905518D01*
X38290442Y-49905518D01*
G37*
G36*
X56070442Y-49905518D02*
X56136627Y-49912037D01*
X56249853Y-49946384D01*
X56306467Y-49963557D01*
X56445087Y-50037652D01*
X56462991Y-50047222D01*
X56498729Y-50076552D01*
X56600186Y-50159814D01*
X56683448Y-50261271D01*
X56712778Y-50297009D01*
X56712779Y-50297011D01*
X56796443Y-50453533D01*
X56796443Y-50453534D01*
X56847963Y-50623373D01*
X56865359Y-50800000D01*
X56847963Y-50976627D01*
X56813616Y-51089853D01*
X56796443Y-51146467D01*
X56722348Y-51285087D01*
X56712778Y-51302991D01*
X56683448Y-51338729D01*
X56600186Y-51440186D01*
X56498729Y-51523448D01*
X56462991Y-51552778D01*
X56462989Y-51552779D01*
X56306467Y-51636443D01*
X56249853Y-51653616D01*
X56136627Y-51687963D01*
X56070442Y-51694482D01*
X56004260Y-51701000D01*
X55915740Y-51701000D01*
X55849558Y-51694482D01*
X55783373Y-51687963D01*
X55670147Y-51653616D01*
X55613533Y-51636443D01*
X55457011Y-51552779D01*
X55457009Y-51552778D01*
X55421271Y-51523448D01*
X55319814Y-51440186D01*
X55236552Y-51338729D01*
X55207222Y-51302991D01*
X55197652Y-51285087D01*
X55123557Y-51146467D01*
X55106384Y-51089853D01*
X55072037Y-50976627D01*
X55054641Y-50800000D01*
X55072037Y-50623373D01*
X55123557Y-50453534D01*
X55123557Y-50453533D01*
X55207221Y-50297011D01*
X55207222Y-50297009D01*
X55236552Y-50261271D01*
X55319814Y-50159814D01*
X55421271Y-50076552D01*
X55457009Y-50047222D01*
X55474913Y-50037652D01*
X55613533Y-49963557D01*
X55670147Y-49946384D01*
X55783373Y-49912037D01*
X55849557Y-49905519D01*
X55915740Y-49899000D01*
X56004260Y-49899000D01*
X56070442Y-49905518D01*
X56070442Y-49905518D01*
G37*
G36*
X40830442Y-49905518D02*
X40896627Y-49912037D01*
X41009853Y-49946384D01*
X41066467Y-49963557D01*
X41205087Y-50037652D01*
X41222991Y-50047222D01*
X41258729Y-50076552D01*
X41360186Y-50159814D01*
X41443448Y-50261271D01*
X41472778Y-50297009D01*
X41472779Y-50297011D01*
X41556443Y-50453533D01*
X41556443Y-50453534D01*
X41607963Y-50623373D01*
X41625359Y-50800000D01*
X41607963Y-50976627D01*
X41573616Y-51089853D01*
X41556443Y-51146467D01*
X41482348Y-51285087D01*
X41472778Y-51302991D01*
X41443448Y-51338729D01*
X41360186Y-51440186D01*
X41258729Y-51523448D01*
X41222991Y-51552778D01*
X41222989Y-51552779D01*
X41066467Y-51636443D01*
X41009853Y-51653616D01*
X40896627Y-51687963D01*
X40830442Y-51694482D01*
X40764260Y-51701000D01*
X40675740Y-51701000D01*
X40609558Y-51694482D01*
X40543373Y-51687963D01*
X40430147Y-51653616D01*
X40373533Y-51636443D01*
X40217011Y-51552779D01*
X40217009Y-51552778D01*
X40181271Y-51523448D01*
X40079814Y-51440186D01*
X39996552Y-51338729D01*
X39967222Y-51302991D01*
X39957652Y-51285087D01*
X39883557Y-51146467D01*
X39866384Y-51089853D01*
X39832037Y-50976627D01*
X39814641Y-50800000D01*
X39832037Y-50623373D01*
X39883557Y-50453534D01*
X39883557Y-50453533D01*
X39967221Y-50297011D01*
X39967222Y-50297009D01*
X39996552Y-50261271D01*
X40079814Y-50159814D01*
X40181271Y-50076552D01*
X40217009Y-50047222D01*
X40234913Y-50037652D01*
X40373533Y-49963557D01*
X40430147Y-49946384D01*
X40543373Y-49912037D01*
X40609557Y-49905519D01*
X40675740Y-49899000D01*
X40764260Y-49899000D01*
X40830442Y-49905518D01*
X40830442Y-49905518D01*
G37*
G36*
X53530442Y-49905518D02*
X53596627Y-49912037D01*
X53709853Y-49946384D01*
X53766467Y-49963557D01*
X53905087Y-50037652D01*
X53922991Y-50047222D01*
X53958729Y-50076552D01*
X54060186Y-50159814D01*
X54143448Y-50261271D01*
X54172778Y-50297009D01*
X54172779Y-50297011D01*
X54256443Y-50453533D01*
X54256443Y-50453534D01*
X54307963Y-50623373D01*
X54325359Y-50800000D01*
X54307963Y-50976627D01*
X54273616Y-51089853D01*
X54256443Y-51146467D01*
X54182348Y-51285087D01*
X54172778Y-51302991D01*
X54143448Y-51338729D01*
X54060186Y-51440186D01*
X53958729Y-51523448D01*
X53922991Y-51552778D01*
X53922989Y-51552779D01*
X53766467Y-51636443D01*
X53709853Y-51653616D01*
X53596627Y-51687963D01*
X53530442Y-51694482D01*
X53464260Y-51701000D01*
X53375740Y-51701000D01*
X53309558Y-51694482D01*
X53243373Y-51687963D01*
X53130147Y-51653616D01*
X53073533Y-51636443D01*
X52917011Y-51552779D01*
X52917009Y-51552778D01*
X52881271Y-51523448D01*
X52779814Y-51440186D01*
X52696552Y-51338729D01*
X52667222Y-51302991D01*
X52657652Y-51285087D01*
X52583557Y-51146467D01*
X52566384Y-51089853D01*
X52532037Y-50976627D01*
X52514641Y-50800000D01*
X52532037Y-50623373D01*
X52583557Y-50453534D01*
X52583557Y-50453533D01*
X52667221Y-50297011D01*
X52667222Y-50297009D01*
X52696552Y-50261271D01*
X52779814Y-50159814D01*
X52881271Y-50076552D01*
X52917009Y-50047222D01*
X52934913Y-50037652D01*
X53073533Y-49963557D01*
X53130147Y-49946384D01*
X53243373Y-49912037D01*
X53309557Y-49905519D01*
X53375740Y-49899000D01*
X53464260Y-49899000D01*
X53530442Y-49905518D01*
X53530442Y-49905518D01*
G37*
G36*
X43370442Y-49905518D02*
X43436627Y-49912037D01*
X43549853Y-49946384D01*
X43606467Y-49963557D01*
X43745087Y-50037652D01*
X43762991Y-50047222D01*
X43798729Y-50076552D01*
X43900186Y-50159814D01*
X43983448Y-50261271D01*
X44012778Y-50297009D01*
X44012779Y-50297011D01*
X44096443Y-50453533D01*
X44096443Y-50453534D01*
X44147963Y-50623373D01*
X44165359Y-50800000D01*
X44147963Y-50976627D01*
X44113616Y-51089853D01*
X44096443Y-51146467D01*
X44022348Y-51285087D01*
X44012778Y-51302991D01*
X43983448Y-51338729D01*
X43900186Y-51440186D01*
X43798729Y-51523448D01*
X43762991Y-51552778D01*
X43762989Y-51552779D01*
X43606467Y-51636443D01*
X43549853Y-51653616D01*
X43436627Y-51687963D01*
X43370442Y-51694482D01*
X43304260Y-51701000D01*
X43215740Y-51701000D01*
X43149558Y-51694482D01*
X43083373Y-51687963D01*
X42970147Y-51653616D01*
X42913533Y-51636443D01*
X42757011Y-51552779D01*
X42757009Y-51552778D01*
X42721271Y-51523448D01*
X42619814Y-51440186D01*
X42536552Y-51338729D01*
X42507222Y-51302991D01*
X42497652Y-51285087D01*
X42423557Y-51146467D01*
X42406384Y-51089853D01*
X42372037Y-50976627D01*
X42354641Y-50800000D01*
X42372037Y-50623373D01*
X42423557Y-50453534D01*
X42423557Y-50453533D01*
X42507221Y-50297011D01*
X42507222Y-50297009D01*
X42536552Y-50261271D01*
X42619814Y-50159814D01*
X42721271Y-50076552D01*
X42757009Y-50047222D01*
X42774913Y-50037652D01*
X42913533Y-49963557D01*
X42970147Y-49946384D01*
X43083373Y-49912037D01*
X43149557Y-49905519D01*
X43215740Y-49899000D01*
X43304260Y-49899000D01*
X43370442Y-49905518D01*
X43370442Y-49905518D01*
G37*
G36*
X50990442Y-49905518D02*
X51056627Y-49912037D01*
X51169853Y-49946384D01*
X51226467Y-49963557D01*
X51365087Y-50037652D01*
X51382991Y-50047222D01*
X51418729Y-50076552D01*
X51520186Y-50159814D01*
X51603448Y-50261271D01*
X51632778Y-50297009D01*
X51632779Y-50297011D01*
X51716443Y-50453533D01*
X51716443Y-50453534D01*
X51767963Y-50623373D01*
X51785359Y-50800000D01*
X51767963Y-50976627D01*
X51733616Y-51089853D01*
X51716443Y-51146467D01*
X51642348Y-51285087D01*
X51632778Y-51302991D01*
X51603448Y-51338729D01*
X51520186Y-51440186D01*
X51418729Y-51523448D01*
X51382991Y-51552778D01*
X51382989Y-51552779D01*
X51226467Y-51636443D01*
X51169853Y-51653616D01*
X51056627Y-51687963D01*
X50990442Y-51694482D01*
X50924260Y-51701000D01*
X50835740Y-51701000D01*
X50769558Y-51694482D01*
X50703373Y-51687963D01*
X50590147Y-51653616D01*
X50533533Y-51636443D01*
X50377011Y-51552779D01*
X50377009Y-51552778D01*
X50341271Y-51523448D01*
X50239814Y-51440186D01*
X50156552Y-51338729D01*
X50127222Y-51302991D01*
X50117652Y-51285087D01*
X50043557Y-51146467D01*
X50026384Y-51089853D01*
X49992037Y-50976627D01*
X49974641Y-50800000D01*
X49992037Y-50623373D01*
X50043557Y-50453534D01*
X50043557Y-50453533D01*
X50127221Y-50297011D01*
X50127222Y-50297009D01*
X50156552Y-50261271D01*
X50239814Y-50159814D01*
X50341271Y-50076552D01*
X50377009Y-50047222D01*
X50394913Y-50037652D01*
X50533533Y-49963557D01*
X50590147Y-49946384D01*
X50703373Y-49912037D01*
X50769557Y-49905519D01*
X50835740Y-49899000D01*
X50924260Y-49899000D01*
X50990442Y-49905518D01*
X50990442Y-49905518D01*
G37*
G36*
X45910442Y-49905518D02*
X45976627Y-49912037D01*
X46089853Y-49946384D01*
X46146467Y-49963557D01*
X46285087Y-50037652D01*
X46302991Y-50047222D01*
X46338729Y-50076552D01*
X46440186Y-50159814D01*
X46523448Y-50261271D01*
X46552778Y-50297009D01*
X46552779Y-50297011D01*
X46636443Y-50453533D01*
X46636443Y-50453534D01*
X46687963Y-50623373D01*
X46705359Y-50800000D01*
X46687963Y-50976627D01*
X46653616Y-51089853D01*
X46636443Y-51146467D01*
X46562348Y-51285087D01*
X46552778Y-51302991D01*
X46523448Y-51338729D01*
X46440186Y-51440186D01*
X46338729Y-51523448D01*
X46302991Y-51552778D01*
X46302989Y-51552779D01*
X46146467Y-51636443D01*
X46089853Y-51653616D01*
X45976627Y-51687963D01*
X45910442Y-51694482D01*
X45844260Y-51701000D01*
X45755740Y-51701000D01*
X45689558Y-51694482D01*
X45623373Y-51687963D01*
X45510147Y-51653616D01*
X45453533Y-51636443D01*
X45297011Y-51552779D01*
X45297009Y-51552778D01*
X45261271Y-51523448D01*
X45159814Y-51440186D01*
X45076552Y-51338729D01*
X45047222Y-51302991D01*
X45037652Y-51285087D01*
X44963557Y-51146467D01*
X44946384Y-51089853D01*
X44912037Y-50976627D01*
X44894641Y-50800000D01*
X44912037Y-50623373D01*
X44963557Y-50453534D01*
X44963557Y-50453533D01*
X45047221Y-50297011D01*
X45047222Y-50297009D01*
X45076552Y-50261271D01*
X45159814Y-50159814D01*
X45261271Y-50076552D01*
X45297009Y-50047222D01*
X45314913Y-50037652D01*
X45453533Y-49963557D01*
X45510147Y-49946384D01*
X45623373Y-49912037D01*
X45689557Y-49905519D01*
X45755740Y-49899000D01*
X45844260Y-49899000D01*
X45910442Y-49905518D01*
X45910442Y-49905518D01*
G37*
G36*
X24201060Y-45401060D02*
X20598940Y-45401060D01*
X20598940Y-41798940D01*
X24201060Y-41798940D01*
X24201060Y-45401060D01*
X24201060Y-45401060D01*
G37*
G36*
X22626905Y-36728789D02*
X22925350Y-36788153D01*
X23253122Y-36923921D01*
X23548109Y-37121025D01*
X23798975Y-37371891D01*
X23996079Y-37666878D01*
X24131847Y-37994650D01*
X24201060Y-38342611D01*
X24201060Y-38697389D01*
X24131847Y-39045350D01*
X23996079Y-39373122D01*
X23798975Y-39668109D01*
X23548109Y-39918975D01*
X23253122Y-40116079D01*
X22925350Y-40251847D01*
X22626905Y-40311211D01*
X22577390Y-40321060D01*
X22222610Y-40321060D01*
X22173095Y-40311211D01*
X21874650Y-40251847D01*
X21546878Y-40116079D01*
X21251891Y-39918975D01*
X21001025Y-39668109D01*
X20803921Y-39373122D01*
X20668153Y-39045350D01*
X20598940Y-38697389D01*
X20598940Y-38342611D01*
X20668153Y-37994650D01*
X20803921Y-37666878D01*
X21001025Y-37371891D01*
X21251891Y-37121025D01*
X21546878Y-36923921D01*
X21874650Y-36788153D01*
X22173095Y-36728789D01*
X22222610Y-36718940D01*
X22577390Y-36718940D01*
X22626905Y-36728789D01*
X22626905Y-36728789D01*
G37*
M02*
