G04 #@! TF.GenerationSoftware,KiCad,Pcbnew,(5.0.1-3-g963ef8bb5)*
G04 #@! TF.CreationDate,2018-11-19T18:06:17+01:00*
G04 #@! TF.ProjectId,wmbus_pihat,776D6275735F70696861742E6B696361,0.1*
G04 #@! TF.SameCoordinates,Original*
G04 #@! TF.FileFunction,Copper,L2,Bot,Signal*
G04 #@! TF.FilePolarity,Positive*
%FSLAX46Y46*%
G04 Gerber Fmt 4.6, Leading zero omitted, Abs format (unit mm)*
G04 Created by KiCad (PCBNEW (5.0.1-3-g963ef8bb5)) date Monday 19 November 2018 at 18:06:17*
%MOMM*%
%LPD*%
G01*
G04 APERTURE LIST*
G04 #@! TA.AperFunction,ComponentPad*
%ADD10R,3.500120X3.500120*%
G04 #@! TD*
G04 #@! TA.AperFunction,ComponentPad*
%ADD11C,3.500120*%
G04 #@! TD*
G04 #@! TA.AperFunction,ComponentPad*
%ADD12R,1.700000X1.700000*%
G04 #@! TD*
G04 #@! TA.AperFunction,ComponentPad*
%ADD13O,1.700000X1.700000*%
G04 #@! TD*
G04 #@! TA.AperFunction,Conductor*
%ADD14C,1.000000*%
G04 #@! TD*
G04 #@! TA.AperFunction,Conductor*
%ADD15C,0.250000*%
G04 #@! TD*
G04 #@! TA.AperFunction,Conductor*
%ADD16C,0.254000*%
G04 #@! TD*
G04 APERTURE END LIST*
D10*
G04 #@! TO.P,J2,1*
G04 #@! TO.N,+5V*
X22400000Y-43600000D03*
D11*
G04 #@! TO.P,J2,2*
G04 #@! TO.N,GND*
X22400000Y-38520000D03*
G04 #@! TD*
D12*
G04 #@! TO.P,J3,1*
G04 #@! TO.N,+3V3*
X71200000Y-50800000D03*
D13*
G04 #@! TO.P,J3,2*
G04 #@! TO.N,+5V*
X71200000Y-53340000D03*
G04 #@! TO.P,J3,3*
G04 #@! TO.N,Net-(J3-Pad3)*
X68660000Y-50800000D03*
G04 #@! TO.P,J3,4*
G04 #@! TO.N,+5V*
X68660000Y-53340000D03*
G04 #@! TO.P,J3,5*
G04 #@! TO.N,Net-(J3-Pad5)*
X66120000Y-50800000D03*
G04 #@! TO.P,J3,6*
G04 #@! TO.N,GND*
X66120000Y-53340000D03*
G04 #@! TO.P,J3,7*
G04 #@! TO.N,Net-(J3-Pad7)*
X63580000Y-50800000D03*
G04 #@! TO.P,J3,8*
G04 #@! TO.N,Net-(J3-Pad8)*
X63580000Y-53340000D03*
G04 #@! TO.P,J3,9*
G04 #@! TO.N,GND*
X61040000Y-50800000D03*
G04 #@! TO.P,J3,10*
G04 #@! TO.N,Net-(J3-Pad10)*
X61040000Y-53340000D03*
G04 #@! TO.P,J3,11*
G04 #@! TO.N,Net-(J3-Pad11)*
X58500000Y-50800000D03*
G04 #@! TO.P,J3,12*
G04 #@! TO.N,Net-(J3-Pad12)*
X58500000Y-53340000D03*
G04 #@! TO.P,J3,13*
G04 #@! TO.N,Net-(J3-Pad13)*
X55960000Y-50800000D03*
G04 #@! TO.P,J3,14*
G04 #@! TO.N,GND*
X55960000Y-53340000D03*
G04 #@! TO.P,J3,15*
G04 #@! TO.N,Net-(J3-Pad15)*
X53420000Y-50800000D03*
G04 #@! TO.P,J3,16*
G04 #@! TO.N,Net-(J3-Pad16)*
X53420000Y-53340000D03*
G04 #@! TO.P,J3,17*
G04 #@! TO.N,+3V3*
X50880000Y-50800000D03*
G04 #@! TO.P,J3,18*
G04 #@! TO.N,Net-(J3-Pad18)*
X50880000Y-53340000D03*
G04 #@! TO.P,J3,19*
G04 #@! TO.N,Net-(J3-Pad19)*
X48340000Y-50800000D03*
G04 #@! TO.P,J3,20*
G04 #@! TO.N,GND*
X48340000Y-53340000D03*
G04 #@! TO.P,J3,21*
G04 #@! TO.N,Net-(J3-Pad21)*
X45800000Y-50800000D03*
G04 #@! TO.P,J3,22*
G04 #@! TO.N,Net-(J3-Pad22)*
X45800000Y-53340000D03*
G04 #@! TO.P,J3,23*
G04 #@! TO.N,Net-(J3-Pad23)*
X43260000Y-50800000D03*
G04 #@! TO.P,J3,24*
G04 #@! TO.N,Net-(J3-Pad24)*
X43260000Y-53340000D03*
G04 #@! TO.P,J3,25*
G04 #@! TO.N,GND*
X40720000Y-50800000D03*
G04 #@! TO.P,J3,26*
G04 #@! TO.N,Net-(J3-Pad26)*
X40720000Y-53340000D03*
G04 #@! TO.P,J3,27*
G04 #@! TO.N,Net-(J3-Pad27)*
X38180000Y-50800000D03*
G04 #@! TO.P,J3,28*
G04 #@! TO.N,Net-(J3-Pad28)*
X38180000Y-53340000D03*
G04 #@! TO.P,J3,29*
G04 #@! TO.N,Net-(J3-Pad29)*
X35640000Y-50800000D03*
G04 #@! TO.P,J3,30*
G04 #@! TO.N,GND*
X35640000Y-53340000D03*
G04 #@! TO.P,J3,31*
G04 #@! TO.N,Net-(J3-Pad31)*
X33100000Y-50800000D03*
G04 #@! TO.P,J3,32*
G04 #@! TO.N,Net-(J3-Pad32)*
X33100000Y-53340000D03*
G04 #@! TO.P,J3,33*
G04 #@! TO.N,Net-(J3-Pad33)*
X30560000Y-50800000D03*
G04 #@! TO.P,J3,34*
G04 #@! TO.N,GND*
X30560000Y-53340000D03*
G04 #@! TO.P,J3,35*
G04 #@! TO.N,Net-(J3-Pad35)*
X28020000Y-50800000D03*
G04 #@! TO.P,J3,36*
G04 #@! TO.N,Net-(J3-Pad36)*
X28020000Y-53340000D03*
G04 #@! TO.P,J3,37*
G04 #@! TO.N,Net-(J3-Pad37)*
X25480000Y-50800000D03*
G04 #@! TO.P,J3,38*
G04 #@! TO.N,Net-(J3-Pad38)*
X25480000Y-53340000D03*
G04 #@! TO.P,J3,39*
G04 #@! TO.N,GND*
X22940000Y-50800000D03*
G04 #@! TO.P,J3,40*
G04 #@! TO.N,Net-(J3-Pad40)*
X22940000Y-53340000D03*
G04 #@! TD*
D14*
G04 #@! TO.N,+3V3*
X50880000Y-49320000D02*
X50880000Y-50800000D01*
X51800000Y-48400000D02*
X50880000Y-49320000D01*
X71200000Y-50000000D02*
X69600000Y-48400000D01*
X69600000Y-48400000D02*
X51800000Y-48400000D01*
X71200000Y-50800000D02*
X71200000Y-50000000D01*
D15*
G04 #@! TO.N,GND*
X22940000Y-50800000D02*
X22940000Y-48460000D01*
X22940000Y-48460000D02*
X25400000Y-46000000D01*
X25400000Y-41520000D02*
X22400000Y-38520000D01*
X25400000Y-46000000D02*
X25400000Y-41520000D01*
X61889999Y-51649999D02*
X61040000Y-50800000D01*
X62215001Y-51975001D02*
X61889999Y-51649999D01*
X64755001Y-51975001D02*
X62215001Y-51975001D01*
X66120000Y-53340000D02*
X64755001Y-51975001D01*
X56809999Y-52490001D02*
X55960000Y-53340000D01*
X57324999Y-51975001D02*
X56809999Y-52490001D01*
X59864999Y-51975001D02*
X57324999Y-51975001D01*
X61040000Y-50800000D02*
X59864999Y-51975001D01*
X49189999Y-52490001D02*
X48340000Y-53340000D01*
X49704999Y-51975001D02*
X49189999Y-52490001D01*
X54595001Y-51975001D02*
X49704999Y-51975001D01*
X55960000Y-53340000D02*
X54595001Y-51975001D01*
X41569999Y-51649999D02*
X40720000Y-50800000D01*
X41895001Y-51975001D02*
X41569999Y-51649999D01*
X46975001Y-51975001D02*
X41895001Y-51975001D01*
X48340000Y-53340000D02*
X46975001Y-51975001D01*
X36489999Y-52490001D02*
X35640000Y-53340000D01*
X37004999Y-51975001D02*
X36489999Y-52490001D01*
X39544999Y-51975001D02*
X37004999Y-51975001D01*
X40720000Y-50800000D02*
X39544999Y-51975001D01*
X31735001Y-52164999D02*
X31409999Y-52490001D01*
X34464999Y-52164999D02*
X31735001Y-52164999D01*
X31409999Y-52490001D02*
X30560000Y-53340000D01*
X35640000Y-53340000D02*
X34464999Y-52164999D01*
X29195001Y-51975001D02*
X29710001Y-52490001D01*
X29710001Y-52490001D02*
X30560000Y-53340000D01*
X24115001Y-51975001D02*
X29195001Y-51975001D01*
X22940000Y-50800000D02*
X24115001Y-51975001D01*
D14*
G04 #@! TO.N,+5V*
X19649940Y-43600000D02*
X18800000Y-44449940D01*
X22400000Y-43600000D02*
X19649940Y-43600000D01*
X18800000Y-44449940D02*
X18800000Y-54200000D01*
X18800000Y-54200000D02*
X20600000Y-56000000D01*
X20600000Y-56000000D02*
X67600000Y-56000000D01*
X68660000Y-54940000D02*
X68660000Y-53340000D01*
X67600000Y-56000000D02*
X68660000Y-54940000D01*
X68660000Y-53340000D02*
X71200000Y-53340000D01*
G04 #@! TD*
D16*
G04 #@! TO.N,GND*
G36*
X76290001Y-56290000D02*
X68915131Y-56290000D01*
X69383521Y-55821611D01*
X69478289Y-55758289D01*
X69729146Y-55382855D01*
X69795000Y-55051783D01*
X69795000Y-55051782D01*
X69817235Y-54940001D01*
X69795000Y-54828219D01*
X69795000Y-54475000D01*
X70225719Y-54475000D01*
X70620582Y-54738839D01*
X71053744Y-54825000D01*
X71346256Y-54825000D01*
X71779418Y-54738839D01*
X72270625Y-54410625D01*
X72598839Y-53919418D01*
X72714092Y-53340000D01*
X72598839Y-52760582D01*
X72270625Y-52269375D01*
X72252381Y-52257184D01*
X72297765Y-52248157D01*
X72507809Y-52107809D01*
X72648157Y-51897765D01*
X72697440Y-51650000D01*
X72697440Y-49950000D01*
X72648157Y-49702235D01*
X72507809Y-49492191D01*
X72297765Y-49351843D01*
X72106554Y-49313809D01*
X72018289Y-49181711D01*
X71923521Y-49118389D01*
X70481613Y-47676482D01*
X70418289Y-47581711D01*
X70042855Y-47330854D01*
X69711783Y-47265000D01*
X69600000Y-47242765D01*
X69488217Y-47265000D01*
X51911781Y-47265000D01*
X51799999Y-47242765D01*
X51688217Y-47265000D01*
X51357145Y-47330854D01*
X50981711Y-47581711D01*
X50918391Y-47676477D01*
X50156481Y-48438388D01*
X50061711Y-48501711D01*
X49810855Y-48877145D01*
X49810854Y-48877146D01*
X49722765Y-49320000D01*
X49745000Y-49431783D01*
X49745000Y-49825719D01*
X49610000Y-50027761D01*
X49410625Y-49729375D01*
X48919418Y-49401161D01*
X48486256Y-49315000D01*
X48193744Y-49315000D01*
X47760582Y-49401161D01*
X47269375Y-49729375D01*
X47070000Y-50027761D01*
X46870625Y-49729375D01*
X46379418Y-49401161D01*
X45946256Y-49315000D01*
X45653744Y-49315000D01*
X45220582Y-49401161D01*
X44729375Y-49729375D01*
X44530000Y-50027761D01*
X44330625Y-49729375D01*
X43839418Y-49401161D01*
X43406256Y-49315000D01*
X43113744Y-49315000D01*
X42680582Y-49401161D01*
X42189375Y-49729375D01*
X41976157Y-50048478D01*
X41915183Y-49918642D01*
X41486924Y-49528355D01*
X41076890Y-49358524D01*
X40847000Y-49479845D01*
X40847000Y-50673000D01*
X40867000Y-50673000D01*
X40867000Y-50927000D01*
X40847000Y-50927000D01*
X40847000Y-50947000D01*
X40593000Y-50947000D01*
X40593000Y-50927000D01*
X40573000Y-50927000D01*
X40573000Y-50673000D01*
X40593000Y-50673000D01*
X40593000Y-49479845D01*
X40363110Y-49358524D01*
X39953076Y-49528355D01*
X39524817Y-49918642D01*
X39463843Y-50048478D01*
X39250625Y-49729375D01*
X38759418Y-49401161D01*
X38326256Y-49315000D01*
X38033744Y-49315000D01*
X37600582Y-49401161D01*
X37109375Y-49729375D01*
X36910000Y-50027761D01*
X36710625Y-49729375D01*
X36219418Y-49401161D01*
X35786256Y-49315000D01*
X35493744Y-49315000D01*
X35060582Y-49401161D01*
X34569375Y-49729375D01*
X34370000Y-50027761D01*
X34170625Y-49729375D01*
X33679418Y-49401161D01*
X33246256Y-49315000D01*
X32953744Y-49315000D01*
X32520582Y-49401161D01*
X32029375Y-49729375D01*
X31830000Y-50027761D01*
X31630625Y-49729375D01*
X31139418Y-49401161D01*
X30706256Y-49315000D01*
X30413744Y-49315000D01*
X29980582Y-49401161D01*
X29489375Y-49729375D01*
X29290000Y-50027761D01*
X29090625Y-49729375D01*
X28599418Y-49401161D01*
X28166256Y-49315000D01*
X27873744Y-49315000D01*
X27440582Y-49401161D01*
X26949375Y-49729375D01*
X26750000Y-50027761D01*
X26550625Y-49729375D01*
X26059418Y-49401161D01*
X25626256Y-49315000D01*
X25333744Y-49315000D01*
X24900582Y-49401161D01*
X24409375Y-49729375D01*
X24196157Y-50048478D01*
X24135183Y-49918642D01*
X23706924Y-49528355D01*
X23296890Y-49358524D01*
X23067000Y-49479845D01*
X23067000Y-50673000D01*
X23087000Y-50673000D01*
X23087000Y-50927000D01*
X23067000Y-50927000D01*
X23067000Y-50947000D01*
X22813000Y-50947000D01*
X22813000Y-50927000D01*
X21619181Y-50927000D01*
X21498514Y-51156892D01*
X21744817Y-51681358D01*
X22169786Y-52068647D01*
X21869375Y-52269375D01*
X21541161Y-52760582D01*
X21425908Y-53340000D01*
X21541161Y-53919418D01*
X21869375Y-54410625D01*
X22360582Y-54738839D01*
X22793744Y-54825000D01*
X23086256Y-54825000D01*
X23519418Y-54738839D01*
X24010625Y-54410625D01*
X24210000Y-54112239D01*
X24409375Y-54410625D01*
X24900582Y-54738839D01*
X25333744Y-54825000D01*
X25626256Y-54825000D01*
X26059418Y-54738839D01*
X26550625Y-54410625D01*
X26750000Y-54112239D01*
X26949375Y-54410625D01*
X27440582Y-54738839D01*
X27873744Y-54825000D01*
X28166256Y-54825000D01*
X28599418Y-54738839D01*
X29090625Y-54410625D01*
X29303843Y-54091522D01*
X29364817Y-54221358D01*
X29793076Y-54611645D01*
X30203110Y-54781476D01*
X30433000Y-54660155D01*
X30433000Y-53467000D01*
X30413000Y-53467000D01*
X30413000Y-53213000D01*
X30433000Y-53213000D01*
X30433000Y-53193000D01*
X30687000Y-53193000D01*
X30687000Y-53213000D01*
X30707000Y-53213000D01*
X30707000Y-53467000D01*
X30687000Y-53467000D01*
X30687000Y-54660155D01*
X30916890Y-54781476D01*
X31326924Y-54611645D01*
X31755183Y-54221358D01*
X31816157Y-54091522D01*
X32029375Y-54410625D01*
X32520582Y-54738839D01*
X32953744Y-54825000D01*
X33246256Y-54825000D01*
X33679418Y-54738839D01*
X34170625Y-54410625D01*
X34383843Y-54091522D01*
X34444817Y-54221358D01*
X34873076Y-54611645D01*
X35283110Y-54781476D01*
X35513000Y-54660155D01*
X35513000Y-53467000D01*
X35493000Y-53467000D01*
X35493000Y-53213000D01*
X35513000Y-53213000D01*
X35513000Y-53193000D01*
X35767000Y-53193000D01*
X35767000Y-53213000D01*
X35787000Y-53213000D01*
X35787000Y-53467000D01*
X35767000Y-53467000D01*
X35767000Y-54660155D01*
X35996890Y-54781476D01*
X36406924Y-54611645D01*
X36835183Y-54221358D01*
X36896157Y-54091522D01*
X37109375Y-54410625D01*
X37600582Y-54738839D01*
X38033744Y-54825000D01*
X38326256Y-54825000D01*
X38759418Y-54738839D01*
X39250625Y-54410625D01*
X39450000Y-54112239D01*
X39649375Y-54410625D01*
X40140582Y-54738839D01*
X40573744Y-54825000D01*
X40866256Y-54825000D01*
X41299418Y-54738839D01*
X41790625Y-54410625D01*
X41990000Y-54112239D01*
X42189375Y-54410625D01*
X42680582Y-54738839D01*
X43113744Y-54825000D01*
X43406256Y-54825000D01*
X43839418Y-54738839D01*
X44330625Y-54410625D01*
X44530000Y-54112239D01*
X44729375Y-54410625D01*
X45220582Y-54738839D01*
X45653744Y-54825000D01*
X45946256Y-54825000D01*
X46379418Y-54738839D01*
X46870625Y-54410625D01*
X47083843Y-54091522D01*
X47144817Y-54221358D01*
X47573076Y-54611645D01*
X47983110Y-54781476D01*
X48213000Y-54660155D01*
X48213000Y-53467000D01*
X48193000Y-53467000D01*
X48193000Y-53213000D01*
X48213000Y-53213000D01*
X48213000Y-53193000D01*
X48467000Y-53193000D01*
X48467000Y-53213000D01*
X48487000Y-53213000D01*
X48487000Y-53467000D01*
X48467000Y-53467000D01*
X48467000Y-54660155D01*
X48696890Y-54781476D01*
X49106924Y-54611645D01*
X49535183Y-54221358D01*
X49596157Y-54091522D01*
X49809375Y-54410625D01*
X50300582Y-54738839D01*
X50733744Y-54825000D01*
X51026256Y-54825000D01*
X51459418Y-54738839D01*
X51950625Y-54410625D01*
X52150000Y-54112239D01*
X52349375Y-54410625D01*
X52840582Y-54738839D01*
X53273744Y-54825000D01*
X53566256Y-54825000D01*
X53999418Y-54738839D01*
X54490625Y-54410625D01*
X54703843Y-54091522D01*
X54764817Y-54221358D01*
X55193076Y-54611645D01*
X55603110Y-54781476D01*
X55833000Y-54660155D01*
X55833000Y-53467000D01*
X55813000Y-53467000D01*
X55813000Y-53213000D01*
X55833000Y-53213000D01*
X55833000Y-53193000D01*
X56087000Y-53193000D01*
X56087000Y-53213000D01*
X56107000Y-53213000D01*
X56107000Y-53467000D01*
X56087000Y-53467000D01*
X56087000Y-54660155D01*
X56316890Y-54781476D01*
X56726924Y-54611645D01*
X57155183Y-54221358D01*
X57216157Y-54091522D01*
X57429375Y-54410625D01*
X57920582Y-54738839D01*
X58353744Y-54825000D01*
X58646256Y-54825000D01*
X59079418Y-54738839D01*
X59570625Y-54410625D01*
X59770000Y-54112239D01*
X59969375Y-54410625D01*
X60460582Y-54738839D01*
X60893744Y-54825000D01*
X61186256Y-54825000D01*
X61619418Y-54738839D01*
X62110625Y-54410625D01*
X62310000Y-54112239D01*
X62509375Y-54410625D01*
X63000582Y-54738839D01*
X63433744Y-54825000D01*
X63726256Y-54825000D01*
X64159418Y-54738839D01*
X64650625Y-54410625D01*
X64863843Y-54091522D01*
X64924817Y-54221358D01*
X65353076Y-54611645D01*
X65763110Y-54781476D01*
X65993000Y-54660155D01*
X65993000Y-53467000D01*
X65973000Y-53467000D01*
X65973000Y-53213000D01*
X65993000Y-53213000D01*
X65993000Y-53193000D01*
X66247000Y-53193000D01*
X66247000Y-53213000D01*
X66267000Y-53213000D01*
X66267000Y-53467000D01*
X66247000Y-53467000D01*
X66247000Y-54660155D01*
X66476890Y-54781476D01*
X66886924Y-54611645D01*
X67315183Y-54221358D01*
X67376157Y-54091522D01*
X67525000Y-54314281D01*
X67525000Y-54469868D01*
X67129869Y-54865000D01*
X21070132Y-54865000D01*
X19935000Y-53729869D01*
X19935000Y-50443108D01*
X21498514Y-50443108D01*
X21619181Y-50673000D01*
X22813000Y-50673000D01*
X22813000Y-49479845D01*
X22583110Y-49358524D01*
X22173076Y-49528355D01*
X21744817Y-49918642D01*
X21498514Y-50443108D01*
X19935000Y-50443108D01*
X19935000Y-44920071D01*
X20002500Y-44852571D01*
X20002500Y-45350060D01*
X20051783Y-45597825D01*
X20192131Y-45807869D01*
X20402175Y-45948217D01*
X20649940Y-45997500D01*
X24150060Y-45997500D01*
X24397825Y-45948217D01*
X24607869Y-45807869D01*
X24748217Y-45597825D01*
X24797500Y-45350060D01*
X24797500Y-41849940D01*
X24748217Y-41602175D01*
X24607869Y-41392131D01*
X24397825Y-41251783D01*
X24150060Y-41202500D01*
X20649940Y-41202500D01*
X20402175Y-41251783D01*
X20192131Y-41392131D01*
X20051783Y-41602175D01*
X20002500Y-41849940D01*
X20002500Y-42465000D01*
X19761723Y-42465000D01*
X19649940Y-42442765D01*
X19538157Y-42465000D01*
X19207085Y-42530854D01*
X18831651Y-42781711D01*
X18768329Y-42876479D01*
X18076481Y-43568327D01*
X17981711Y-43631651D01*
X17730855Y-44007085D01*
X17730854Y-44007086D01*
X17710000Y-44111926D01*
X17710000Y-40214571D01*
X20885034Y-40214571D01*
X21075328Y-40559319D01*
X21956576Y-40911015D01*
X22905332Y-40898701D01*
X23724672Y-40559319D01*
X23914966Y-40214571D01*
X22400000Y-38699605D01*
X20885034Y-40214571D01*
X17710000Y-40214571D01*
X17710000Y-38076576D01*
X20008985Y-38076576D01*
X20021299Y-39025332D01*
X20360681Y-39844672D01*
X20705429Y-40034966D01*
X22220395Y-38520000D01*
X22579605Y-38520000D01*
X24094571Y-40034966D01*
X24439319Y-39844672D01*
X24791015Y-38963424D01*
X24778701Y-38014668D01*
X24439319Y-37195328D01*
X24094571Y-37005034D01*
X22579605Y-38520000D01*
X22220395Y-38520000D01*
X20705429Y-37005034D01*
X20360681Y-37195328D01*
X20008985Y-38076576D01*
X17710000Y-38076576D01*
X17710000Y-36825429D01*
X20885034Y-36825429D01*
X22400000Y-38340395D01*
X23914966Y-36825429D01*
X23724672Y-36480681D01*
X22843424Y-36128985D01*
X21894668Y-36141299D01*
X21075328Y-36480681D01*
X20885034Y-36825429D01*
X17710000Y-36825429D01*
X17710000Y-30327000D01*
X32000000Y-30327000D01*
X32048601Y-30317333D01*
X32089803Y-30289803D01*
X32117333Y-30248601D01*
X32127000Y-30200000D01*
X32127000Y-17710000D01*
X76290000Y-17710000D01*
X76290001Y-56290000D01*
X76290001Y-56290000D01*
G37*
X76290001Y-56290000D02*
X68915131Y-56290000D01*
X69383521Y-55821611D01*
X69478289Y-55758289D01*
X69729146Y-55382855D01*
X69795000Y-55051783D01*
X69795000Y-55051782D01*
X69817235Y-54940001D01*
X69795000Y-54828219D01*
X69795000Y-54475000D01*
X70225719Y-54475000D01*
X70620582Y-54738839D01*
X71053744Y-54825000D01*
X71346256Y-54825000D01*
X71779418Y-54738839D01*
X72270625Y-54410625D01*
X72598839Y-53919418D01*
X72714092Y-53340000D01*
X72598839Y-52760582D01*
X72270625Y-52269375D01*
X72252381Y-52257184D01*
X72297765Y-52248157D01*
X72507809Y-52107809D01*
X72648157Y-51897765D01*
X72697440Y-51650000D01*
X72697440Y-49950000D01*
X72648157Y-49702235D01*
X72507809Y-49492191D01*
X72297765Y-49351843D01*
X72106554Y-49313809D01*
X72018289Y-49181711D01*
X71923521Y-49118389D01*
X70481613Y-47676482D01*
X70418289Y-47581711D01*
X70042855Y-47330854D01*
X69711783Y-47265000D01*
X69600000Y-47242765D01*
X69488217Y-47265000D01*
X51911781Y-47265000D01*
X51799999Y-47242765D01*
X51688217Y-47265000D01*
X51357145Y-47330854D01*
X50981711Y-47581711D01*
X50918391Y-47676477D01*
X50156481Y-48438388D01*
X50061711Y-48501711D01*
X49810855Y-48877145D01*
X49810854Y-48877146D01*
X49722765Y-49320000D01*
X49745000Y-49431783D01*
X49745000Y-49825719D01*
X49610000Y-50027761D01*
X49410625Y-49729375D01*
X48919418Y-49401161D01*
X48486256Y-49315000D01*
X48193744Y-49315000D01*
X47760582Y-49401161D01*
X47269375Y-49729375D01*
X47070000Y-50027761D01*
X46870625Y-49729375D01*
X46379418Y-49401161D01*
X45946256Y-49315000D01*
X45653744Y-49315000D01*
X45220582Y-49401161D01*
X44729375Y-49729375D01*
X44530000Y-50027761D01*
X44330625Y-49729375D01*
X43839418Y-49401161D01*
X43406256Y-49315000D01*
X43113744Y-49315000D01*
X42680582Y-49401161D01*
X42189375Y-49729375D01*
X41976157Y-50048478D01*
X41915183Y-49918642D01*
X41486924Y-49528355D01*
X41076890Y-49358524D01*
X40847000Y-49479845D01*
X40847000Y-50673000D01*
X40867000Y-50673000D01*
X40867000Y-50927000D01*
X40847000Y-50927000D01*
X40847000Y-50947000D01*
X40593000Y-50947000D01*
X40593000Y-50927000D01*
X40573000Y-50927000D01*
X40573000Y-50673000D01*
X40593000Y-50673000D01*
X40593000Y-49479845D01*
X40363110Y-49358524D01*
X39953076Y-49528355D01*
X39524817Y-49918642D01*
X39463843Y-50048478D01*
X39250625Y-49729375D01*
X38759418Y-49401161D01*
X38326256Y-49315000D01*
X38033744Y-49315000D01*
X37600582Y-49401161D01*
X37109375Y-49729375D01*
X36910000Y-50027761D01*
X36710625Y-49729375D01*
X36219418Y-49401161D01*
X35786256Y-49315000D01*
X35493744Y-49315000D01*
X35060582Y-49401161D01*
X34569375Y-49729375D01*
X34370000Y-50027761D01*
X34170625Y-49729375D01*
X33679418Y-49401161D01*
X33246256Y-49315000D01*
X32953744Y-49315000D01*
X32520582Y-49401161D01*
X32029375Y-49729375D01*
X31830000Y-50027761D01*
X31630625Y-49729375D01*
X31139418Y-49401161D01*
X30706256Y-49315000D01*
X30413744Y-49315000D01*
X29980582Y-49401161D01*
X29489375Y-49729375D01*
X29290000Y-50027761D01*
X29090625Y-49729375D01*
X28599418Y-49401161D01*
X28166256Y-49315000D01*
X27873744Y-49315000D01*
X27440582Y-49401161D01*
X26949375Y-49729375D01*
X26750000Y-50027761D01*
X26550625Y-49729375D01*
X26059418Y-49401161D01*
X25626256Y-49315000D01*
X25333744Y-49315000D01*
X24900582Y-49401161D01*
X24409375Y-49729375D01*
X24196157Y-50048478D01*
X24135183Y-49918642D01*
X23706924Y-49528355D01*
X23296890Y-49358524D01*
X23067000Y-49479845D01*
X23067000Y-50673000D01*
X23087000Y-50673000D01*
X23087000Y-50927000D01*
X23067000Y-50927000D01*
X23067000Y-50947000D01*
X22813000Y-50947000D01*
X22813000Y-50927000D01*
X21619181Y-50927000D01*
X21498514Y-51156892D01*
X21744817Y-51681358D01*
X22169786Y-52068647D01*
X21869375Y-52269375D01*
X21541161Y-52760582D01*
X21425908Y-53340000D01*
X21541161Y-53919418D01*
X21869375Y-54410625D01*
X22360582Y-54738839D01*
X22793744Y-54825000D01*
X23086256Y-54825000D01*
X23519418Y-54738839D01*
X24010625Y-54410625D01*
X24210000Y-54112239D01*
X24409375Y-54410625D01*
X24900582Y-54738839D01*
X25333744Y-54825000D01*
X25626256Y-54825000D01*
X26059418Y-54738839D01*
X26550625Y-54410625D01*
X26750000Y-54112239D01*
X26949375Y-54410625D01*
X27440582Y-54738839D01*
X27873744Y-54825000D01*
X28166256Y-54825000D01*
X28599418Y-54738839D01*
X29090625Y-54410625D01*
X29303843Y-54091522D01*
X29364817Y-54221358D01*
X29793076Y-54611645D01*
X30203110Y-54781476D01*
X30433000Y-54660155D01*
X30433000Y-53467000D01*
X30413000Y-53467000D01*
X30413000Y-53213000D01*
X30433000Y-53213000D01*
X30433000Y-53193000D01*
X30687000Y-53193000D01*
X30687000Y-53213000D01*
X30707000Y-53213000D01*
X30707000Y-53467000D01*
X30687000Y-53467000D01*
X30687000Y-54660155D01*
X30916890Y-54781476D01*
X31326924Y-54611645D01*
X31755183Y-54221358D01*
X31816157Y-54091522D01*
X32029375Y-54410625D01*
X32520582Y-54738839D01*
X32953744Y-54825000D01*
X33246256Y-54825000D01*
X33679418Y-54738839D01*
X34170625Y-54410625D01*
X34383843Y-54091522D01*
X34444817Y-54221358D01*
X34873076Y-54611645D01*
X35283110Y-54781476D01*
X35513000Y-54660155D01*
X35513000Y-53467000D01*
X35493000Y-53467000D01*
X35493000Y-53213000D01*
X35513000Y-53213000D01*
X35513000Y-53193000D01*
X35767000Y-53193000D01*
X35767000Y-53213000D01*
X35787000Y-53213000D01*
X35787000Y-53467000D01*
X35767000Y-53467000D01*
X35767000Y-54660155D01*
X35996890Y-54781476D01*
X36406924Y-54611645D01*
X36835183Y-54221358D01*
X36896157Y-54091522D01*
X37109375Y-54410625D01*
X37600582Y-54738839D01*
X38033744Y-54825000D01*
X38326256Y-54825000D01*
X38759418Y-54738839D01*
X39250625Y-54410625D01*
X39450000Y-54112239D01*
X39649375Y-54410625D01*
X40140582Y-54738839D01*
X40573744Y-54825000D01*
X40866256Y-54825000D01*
X41299418Y-54738839D01*
X41790625Y-54410625D01*
X41990000Y-54112239D01*
X42189375Y-54410625D01*
X42680582Y-54738839D01*
X43113744Y-54825000D01*
X43406256Y-54825000D01*
X43839418Y-54738839D01*
X44330625Y-54410625D01*
X44530000Y-54112239D01*
X44729375Y-54410625D01*
X45220582Y-54738839D01*
X45653744Y-54825000D01*
X45946256Y-54825000D01*
X46379418Y-54738839D01*
X46870625Y-54410625D01*
X47083843Y-54091522D01*
X47144817Y-54221358D01*
X47573076Y-54611645D01*
X47983110Y-54781476D01*
X48213000Y-54660155D01*
X48213000Y-53467000D01*
X48193000Y-53467000D01*
X48193000Y-53213000D01*
X48213000Y-53213000D01*
X48213000Y-53193000D01*
X48467000Y-53193000D01*
X48467000Y-53213000D01*
X48487000Y-53213000D01*
X48487000Y-53467000D01*
X48467000Y-53467000D01*
X48467000Y-54660155D01*
X48696890Y-54781476D01*
X49106924Y-54611645D01*
X49535183Y-54221358D01*
X49596157Y-54091522D01*
X49809375Y-54410625D01*
X50300582Y-54738839D01*
X50733744Y-54825000D01*
X51026256Y-54825000D01*
X51459418Y-54738839D01*
X51950625Y-54410625D01*
X52150000Y-54112239D01*
X52349375Y-54410625D01*
X52840582Y-54738839D01*
X53273744Y-54825000D01*
X53566256Y-54825000D01*
X53999418Y-54738839D01*
X54490625Y-54410625D01*
X54703843Y-54091522D01*
X54764817Y-54221358D01*
X55193076Y-54611645D01*
X55603110Y-54781476D01*
X55833000Y-54660155D01*
X55833000Y-53467000D01*
X55813000Y-53467000D01*
X55813000Y-53213000D01*
X55833000Y-53213000D01*
X55833000Y-53193000D01*
X56087000Y-53193000D01*
X56087000Y-53213000D01*
X56107000Y-53213000D01*
X56107000Y-53467000D01*
X56087000Y-53467000D01*
X56087000Y-54660155D01*
X56316890Y-54781476D01*
X56726924Y-54611645D01*
X57155183Y-54221358D01*
X57216157Y-54091522D01*
X57429375Y-54410625D01*
X57920582Y-54738839D01*
X58353744Y-54825000D01*
X58646256Y-54825000D01*
X59079418Y-54738839D01*
X59570625Y-54410625D01*
X59770000Y-54112239D01*
X59969375Y-54410625D01*
X60460582Y-54738839D01*
X60893744Y-54825000D01*
X61186256Y-54825000D01*
X61619418Y-54738839D01*
X62110625Y-54410625D01*
X62310000Y-54112239D01*
X62509375Y-54410625D01*
X63000582Y-54738839D01*
X63433744Y-54825000D01*
X63726256Y-54825000D01*
X64159418Y-54738839D01*
X64650625Y-54410625D01*
X64863843Y-54091522D01*
X64924817Y-54221358D01*
X65353076Y-54611645D01*
X65763110Y-54781476D01*
X65993000Y-54660155D01*
X65993000Y-53467000D01*
X65973000Y-53467000D01*
X65973000Y-53213000D01*
X65993000Y-53213000D01*
X65993000Y-53193000D01*
X66247000Y-53193000D01*
X66247000Y-53213000D01*
X66267000Y-53213000D01*
X66267000Y-53467000D01*
X66247000Y-53467000D01*
X66247000Y-54660155D01*
X66476890Y-54781476D01*
X66886924Y-54611645D01*
X67315183Y-54221358D01*
X67376157Y-54091522D01*
X67525000Y-54314281D01*
X67525000Y-54469868D01*
X67129869Y-54865000D01*
X21070132Y-54865000D01*
X19935000Y-53729869D01*
X19935000Y-50443108D01*
X21498514Y-50443108D01*
X21619181Y-50673000D01*
X22813000Y-50673000D01*
X22813000Y-49479845D01*
X22583110Y-49358524D01*
X22173076Y-49528355D01*
X21744817Y-49918642D01*
X21498514Y-50443108D01*
X19935000Y-50443108D01*
X19935000Y-44920071D01*
X20002500Y-44852571D01*
X20002500Y-45350060D01*
X20051783Y-45597825D01*
X20192131Y-45807869D01*
X20402175Y-45948217D01*
X20649940Y-45997500D01*
X24150060Y-45997500D01*
X24397825Y-45948217D01*
X24607869Y-45807869D01*
X24748217Y-45597825D01*
X24797500Y-45350060D01*
X24797500Y-41849940D01*
X24748217Y-41602175D01*
X24607869Y-41392131D01*
X24397825Y-41251783D01*
X24150060Y-41202500D01*
X20649940Y-41202500D01*
X20402175Y-41251783D01*
X20192131Y-41392131D01*
X20051783Y-41602175D01*
X20002500Y-41849940D01*
X20002500Y-42465000D01*
X19761723Y-42465000D01*
X19649940Y-42442765D01*
X19538157Y-42465000D01*
X19207085Y-42530854D01*
X18831651Y-42781711D01*
X18768329Y-42876479D01*
X18076481Y-43568327D01*
X17981711Y-43631651D01*
X17730855Y-44007085D01*
X17730854Y-44007086D01*
X17710000Y-44111926D01*
X17710000Y-40214571D01*
X20885034Y-40214571D01*
X21075328Y-40559319D01*
X21956576Y-40911015D01*
X22905332Y-40898701D01*
X23724672Y-40559319D01*
X23914966Y-40214571D01*
X22400000Y-38699605D01*
X20885034Y-40214571D01*
X17710000Y-40214571D01*
X17710000Y-38076576D01*
X20008985Y-38076576D01*
X20021299Y-39025332D01*
X20360681Y-39844672D01*
X20705429Y-40034966D01*
X22220395Y-38520000D01*
X22579605Y-38520000D01*
X24094571Y-40034966D01*
X24439319Y-39844672D01*
X24791015Y-38963424D01*
X24778701Y-38014668D01*
X24439319Y-37195328D01*
X24094571Y-37005034D01*
X22579605Y-38520000D01*
X22220395Y-38520000D01*
X20705429Y-37005034D01*
X20360681Y-37195328D01*
X20008985Y-38076576D01*
X17710000Y-38076576D01*
X17710000Y-36825429D01*
X20885034Y-36825429D01*
X22400000Y-38340395D01*
X23914966Y-36825429D01*
X23724672Y-36480681D01*
X22843424Y-36128985D01*
X21894668Y-36141299D01*
X21075328Y-36480681D01*
X20885034Y-36825429D01*
X17710000Y-36825429D01*
X17710000Y-30327000D01*
X32000000Y-30327000D01*
X32048601Y-30317333D01*
X32089803Y-30289803D01*
X32117333Y-30248601D01*
X32127000Y-30200000D01*
X32127000Y-17710000D01*
X76290000Y-17710000D01*
X76290001Y-56290000D01*
G36*
X47269375Y-51870625D02*
X47569786Y-52071353D01*
X47144817Y-52458642D01*
X47083843Y-52588478D01*
X46870625Y-52269375D01*
X46572239Y-52070000D01*
X46870625Y-51870625D01*
X47070000Y-51572239D01*
X47269375Y-51870625D01*
X47269375Y-51870625D01*
G37*
X47269375Y-51870625D02*
X47569786Y-52071353D01*
X47144817Y-52458642D01*
X47083843Y-52588478D01*
X46870625Y-52269375D01*
X46572239Y-52070000D01*
X46870625Y-51870625D01*
X47070000Y-51572239D01*
X47269375Y-51870625D01*
G36*
X49809375Y-51870625D02*
X50107761Y-52070000D01*
X49809375Y-52269375D01*
X49596157Y-52588478D01*
X49535183Y-52458642D01*
X49110214Y-52071353D01*
X49410625Y-51870625D01*
X49610000Y-51572239D01*
X49809375Y-51870625D01*
X49809375Y-51870625D01*
G37*
X49809375Y-51870625D02*
X50107761Y-52070000D01*
X49809375Y-52269375D01*
X49596157Y-52588478D01*
X49535183Y-52458642D01*
X49110214Y-52071353D01*
X49410625Y-51870625D01*
X49610000Y-51572239D01*
X49809375Y-51870625D01*
G36*
X54889375Y-51870625D02*
X55189786Y-52071353D01*
X54764817Y-52458642D01*
X54703843Y-52588478D01*
X54490625Y-52269375D01*
X54192239Y-52070000D01*
X54490625Y-51870625D01*
X54690000Y-51572239D01*
X54889375Y-51870625D01*
X54889375Y-51870625D01*
G37*
X54889375Y-51870625D02*
X55189786Y-52071353D01*
X54764817Y-52458642D01*
X54703843Y-52588478D01*
X54490625Y-52269375D01*
X54192239Y-52070000D01*
X54490625Y-51870625D01*
X54690000Y-51572239D01*
X54889375Y-51870625D01*
G36*
X57429375Y-51870625D02*
X57727761Y-52070000D01*
X57429375Y-52269375D01*
X57216157Y-52588478D01*
X57155183Y-52458642D01*
X56730214Y-52071353D01*
X57030625Y-51870625D01*
X57230000Y-51572239D01*
X57429375Y-51870625D01*
X57429375Y-51870625D01*
G37*
X57429375Y-51870625D02*
X57727761Y-52070000D01*
X57429375Y-52269375D01*
X57216157Y-52588478D01*
X57155183Y-52458642D01*
X56730214Y-52071353D01*
X57030625Y-51870625D01*
X57230000Y-51572239D01*
X57429375Y-51870625D01*
G36*
X65049375Y-51870625D02*
X65349786Y-52071353D01*
X64924817Y-52458642D01*
X64863843Y-52588478D01*
X64650625Y-52269375D01*
X64352239Y-52070000D01*
X64650625Y-51870625D01*
X64850000Y-51572239D01*
X65049375Y-51870625D01*
X65049375Y-51870625D01*
G37*
X65049375Y-51870625D02*
X65349786Y-52071353D01*
X64924817Y-52458642D01*
X64863843Y-52588478D01*
X64650625Y-52269375D01*
X64352239Y-52070000D01*
X64650625Y-51870625D01*
X64850000Y-51572239D01*
X65049375Y-51870625D01*
G36*
X37109375Y-51870625D02*
X37407761Y-52070000D01*
X37109375Y-52269375D01*
X36896157Y-52588478D01*
X36835183Y-52458642D01*
X36410214Y-52071353D01*
X36710625Y-51870625D01*
X36910000Y-51572239D01*
X37109375Y-51870625D01*
X37109375Y-51870625D01*
G37*
X37109375Y-51870625D02*
X37407761Y-52070000D01*
X37109375Y-52269375D01*
X36896157Y-52588478D01*
X36835183Y-52458642D01*
X36410214Y-52071353D01*
X36710625Y-51870625D01*
X36910000Y-51572239D01*
X37109375Y-51870625D01*
G36*
X34569375Y-51870625D02*
X34869786Y-52071353D01*
X34444817Y-52458642D01*
X34383843Y-52588478D01*
X34170625Y-52269375D01*
X33872239Y-52070000D01*
X34170625Y-51870625D01*
X34370000Y-51572239D01*
X34569375Y-51870625D01*
X34569375Y-51870625D01*
G37*
X34569375Y-51870625D02*
X34869786Y-52071353D01*
X34444817Y-52458642D01*
X34383843Y-52588478D01*
X34170625Y-52269375D01*
X33872239Y-52070000D01*
X34170625Y-51870625D01*
X34370000Y-51572239D01*
X34569375Y-51870625D01*
G36*
X32029375Y-51870625D02*
X32327761Y-52070000D01*
X32029375Y-52269375D01*
X31816157Y-52588478D01*
X31755183Y-52458642D01*
X31330214Y-52071353D01*
X31630625Y-51870625D01*
X31830000Y-51572239D01*
X32029375Y-51870625D01*
X32029375Y-51870625D01*
G37*
X32029375Y-51870625D02*
X32327761Y-52070000D01*
X32029375Y-52269375D01*
X31816157Y-52588478D01*
X31755183Y-52458642D01*
X31330214Y-52071353D01*
X31630625Y-51870625D01*
X31830000Y-51572239D01*
X32029375Y-51870625D01*
G36*
X29489375Y-51870625D02*
X29789786Y-52071353D01*
X29364817Y-52458642D01*
X29303843Y-52588478D01*
X29090625Y-52269375D01*
X28792239Y-52070000D01*
X29090625Y-51870625D01*
X29290000Y-51572239D01*
X29489375Y-51870625D01*
X29489375Y-51870625D01*
G37*
X29489375Y-51870625D02*
X29789786Y-52071353D01*
X29364817Y-52458642D01*
X29303843Y-52588478D01*
X29090625Y-52269375D01*
X28792239Y-52070000D01*
X29090625Y-51870625D01*
X29290000Y-51572239D01*
X29489375Y-51870625D01*
G36*
X39524817Y-51681358D02*
X39949786Y-52068647D01*
X39649375Y-52269375D01*
X39450000Y-52567761D01*
X39250625Y-52269375D01*
X38952239Y-52070000D01*
X39250625Y-51870625D01*
X39463843Y-51551522D01*
X39524817Y-51681358D01*
X39524817Y-51681358D01*
G37*
X39524817Y-51681358D02*
X39949786Y-52068647D01*
X39649375Y-52269375D01*
X39450000Y-52567761D01*
X39250625Y-52269375D01*
X38952239Y-52070000D01*
X39250625Y-51870625D01*
X39463843Y-51551522D01*
X39524817Y-51681358D01*
G36*
X42189375Y-51870625D02*
X42487761Y-52070000D01*
X42189375Y-52269375D01*
X41990000Y-52567761D01*
X41790625Y-52269375D01*
X41490214Y-52068647D01*
X41915183Y-51681358D01*
X41976157Y-51551522D01*
X42189375Y-51870625D01*
X42189375Y-51870625D01*
G37*
X42189375Y-51870625D02*
X42487761Y-52070000D01*
X42189375Y-52269375D01*
X41990000Y-52567761D01*
X41790625Y-52269375D01*
X41490214Y-52068647D01*
X41915183Y-51681358D01*
X41976157Y-51551522D01*
X42189375Y-51870625D01*
G36*
X59844817Y-51681358D02*
X60269786Y-52068647D01*
X59969375Y-52269375D01*
X59770000Y-52567761D01*
X59570625Y-52269375D01*
X59272239Y-52070000D01*
X59570625Y-51870625D01*
X59783843Y-51551522D01*
X59844817Y-51681358D01*
X59844817Y-51681358D01*
G37*
X59844817Y-51681358D02*
X60269786Y-52068647D01*
X59969375Y-52269375D01*
X59770000Y-52567761D01*
X59570625Y-52269375D01*
X59272239Y-52070000D01*
X59570625Y-51870625D01*
X59783843Y-51551522D01*
X59844817Y-51681358D01*
G36*
X24409375Y-51870625D02*
X24707761Y-52070000D01*
X24409375Y-52269375D01*
X24210000Y-52567761D01*
X24010625Y-52269375D01*
X23710214Y-52068647D01*
X24135183Y-51681358D01*
X24196157Y-51551522D01*
X24409375Y-51870625D01*
X24409375Y-51870625D01*
G37*
X24409375Y-51870625D02*
X24707761Y-52070000D01*
X24409375Y-52269375D01*
X24210000Y-52567761D01*
X24010625Y-52269375D01*
X23710214Y-52068647D01*
X24135183Y-51681358D01*
X24196157Y-51551522D01*
X24409375Y-51870625D01*
G36*
X62509375Y-51870625D02*
X62807761Y-52070000D01*
X62509375Y-52269375D01*
X62310000Y-52567761D01*
X62110625Y-52269375D01*
X61810214Y-52068647D01*
X62235183Y-51681358D01*
X62296157Y-51551522D01*
X62509375Y-51870625D01*
X62509375Y-51870625D01*
G37*
X62509375Y-51870625D02*
X62807761Y-52070000D01*
X62509375Y-52269375D01*
X62310000Y-52567761D01*
X62110625Y-52269375D01*
X61810214Y-52068647D01*
X62235183Y-51681358D01*
X62296157Y-51551522D01*
X62509375Y-51870625D01*
G36*
X61167000Y-50673000D02*
X61187000Y-50673000D01*
X61187000Y-50927000D01*
X61167000Y-50927000D01*
X61167000Y-50947000D01*
X60913000Y-50947000D01*
X60913000Y-50927000D01*
X60893000Y-50927000D01*
X60893000Y-50673000D01*
X60913000Y-50673000D01*
X60913000Y-50653000D01*
X61167000Y-50653000D01*
X61167000Y-50673000D01*
X61167000Y-50673000D01*
G37*
X61167000Y-50673000D02*
X61187000Y-50673000D01*
X61187000Y-50927000D01*
X61167000Y-50927000D01*
X61167000Y-50947000D01*
X60913000Y-50947000D01*
X60913000Y-50927000D01*
X60893000Y-50927000D01*
X60893000Y-50673000D01*
X60913000Y-50673000D01*
X60913000Y-50653000D01*
X61167000Y-50653000D01*
X61167000Y-50673000D01*
G04 #@! TD*
M02*
